<svg width="44" height="45" viewBox="0 0 44 45" fill="none" xmlns="http://www.w3.org/2000/svg">
<path d="M44 22.0049C44 9.85332 34.1516 0.00488281 22 0.00488281C9.84844 0.00488281 0 9.85332 0 22.0049C0 34.1564 9.84844 44.0049 22 44.0049C22.1289 44.0049 22.2578 44.0049 22.3867 43.9963V26.8775H17.6602V21.3689H22.3867V17.3127C22.3867 12.6119 25.257 10.051 29.4508 10.051C31.4617 10.051 33.1891 10.1971 33.6875 10.2658V15.1814H30.8C28.5227 15.1814 28.0758 16.2643 28.0758 17.8541V21.3604H33.5328L32.8195 26.8689H28.0758V43.1541C37.2711 40.5158 44 32.051 44 22.0049Z" fill="#333333"/>
</svg>
