<svg width="44" height="45" viewBox="0 0 44 45" fill="none" xmlns="http://www.w3.org/2000/svg">
<g clip-path="url(#clip0_805_4335)">
<path d="M19.2598 26.1261L26.4161 22.0045L19.2598 17.8828V26.1261Z" fill="#333333"/>
<path d="M22 0.00488281C9.85159 0.00488281 0 9.85648 0 22.0049C0 34.1533 9.85159 44.0049 22 44.0049C34.1484 44.0049 44 34.1533 44 22.0049C44 9.85648 34.1484 0.00488281 22 0.00488281ZM35.7466 22.0274C35.7466 22.0274 35.7466 26.4891 35.1807 28.6405C34.8634 29.8181 33.9349 30.7467 32.7573 31.0636C30.6058 31.6299 22 31.6299 22 31.6299C22 31.6299 13.4167 31.6299 11.2427 31.0411C10.0651 30.7242 9.13657 29.7953 8.81934 28.6177C8.25302 26.4891 8.25302 22.0049 8.25302 22.0049C8.25302 22.0049 8.25302 17.5435 8.81934 15.3921C9.13623 14.2144 10.0876 13.2631 11.2427 12.9462C13.3942 12.3799 22 12.3799 22 12.3799C22 12.3799 30.6058 12.3799 32.7573 12.9687C33.9349 13.2856 34.8634 14.2144 35.1807 15.3921C35.7695 17.5435 35.7466 22.0274 35.7466 22.0274Z" fill="#333333"/>
</g>
<defs>
<clipPath id="clip0_805_4335">
<rect width="44" height="44" fill="white" transform="translate(0 0.00488281)"/>
</clipPath>
</defs>
</svg>
