<svg width="44" height="44" viewBox="0 0 44 44" fill="none" xmlns="http://www.w3.org/2000/svg">
<circle cx="22" cy="22" r="22" fill="#333333"/>
<path d="M17.5967 8.43347C21.2912 7.24923 24.8917 7.17843 27.4906 8.02928C24.3946 6.82207 20.9868 6.67238 17.7971 7.60348C14.6073 8.53458 11.8141 10.4943 9.85156 13.1781C11.5554 11.2383 14.2893 9.49413 17.5967 8.43347Z" fill="white"/>
<path d="M36.2346 26.5665C36.2346 26.4919 36.2423 26.4172 36.2526 26.3426C36.3507 25.7153 36.3267 25.0749 36.1819 24.4568C35.9247 23.4438 35.3409 22.6547 34.5475 22.0111C33.8329 21.4375 33.0153 21.0058 32.1389 20.7393C31.7724 20.6235 31.4072 20.4973 31.033 20.4162C30.5791 20.3171 30.1162 20.2541 29.6571 20.1858C29.4063 20.1498 29.1543 20.1318 28.9022 20.1112C28.0843 20.0481 27.2628 20.0481 26.4448 20.1112C25.9305 20.1472 25.4161 20.2219 24.9017 20.2849C24.6638 20.3133 24.4272 20.3506 24.1932 20.3944C23.9257 20.4433 23.6582 20.496 23.3933 20.5591C22.9664 20.6595 22.5408 20.7638 22.119 20.8796C21.7936 20.9685 21.4683 21.065 21.1507 21.1783C20.6826 21.343 20.2145 21.5117 19.758 21.7047C19.1974 21.9416 18.6405 22.1887 18.0966 22.4603C17.4038 22.8105 16.735 23.2061 16.0944 23.6446C15.2974 24.1833 14.5526 24.7957 13.8698 25.4737C13.2628 26.0687 12.7335 26.7382 12.2945 27.4663C11.9647 28.0112 11.7103 28.5984 11.5384 29.2118C11.3522 29.8747 11.3084 30.5696 11.4098 31.2507C11.5092 31.8974 11.7652 32.51 12.1556 33.0348C12.2945 33.2214 12.4488 33.3952 12.5954 33.5754C12.6439 33.626 12.6788 33.688 12.697 33.7556C12.5684 33.6655 12.4398 33.5819 12.3318 33.4815C11.1157 32.438 10.0673 31.2132 9.22371 29.8502C8.98266 29.4771 8.78302 29.0787 8.62833 28.6621C8.55889 28.4549 8.51517 28.2386 8.46373 28.0262C8.36017 27.5085 8.33977 26.9775 8.40329 26.4533C8.44033 26.0826 8.51224 25.7163 8.61804 25.3591C8.75044 24.9076 8.92748 24.4703 9.14656 24.0539C9.47876 23.419 9.87519 22.8199 10.3296 22.266C11.2906 21.1091 12.4106 20.0946 13.6563 19.2526C14.7591 18.4926 15.9291 17.8351 17.1514 17.2883C18.0772 16.8696 19.027 16.5063 19.9959 16.2006C20.4576 16.0552 20.9282 15.9432 21.3937 15.8145C22.0991 15.6242 22.8143 15.472 23.5361 15.3588C23.9951 15.2803 24.4594 15.2429 24.921 15.1811C25.8878 15.0662 26.8622 15.0284 27.8349 15.0679C28.2876 15.0807 28.7351 15.1335 29.189 15.1747C29.4539 15.2005 29.7188 15.2275 29.9811 15.2738C30.354 15.3382 30.727 15.4025 31.0947 15.4978C31.4625 15.5931 31.8367 15.7025 32.1994 15.826C33.4647 16.256 34.6195 16.8725 35.5543 17.8521C36.1786 18.4931 36.6223 19.288 36.8403 20.1562C36.9545 20.6368 37.0076 21.1298 36.9984 21.6236C36.9933 22.251 36.968 22.8774 36.9226 23.503C36.8891 23.908 36.8298 24.3104 36.7451 24.7078C36.6358 25.2484 36.4982 25.7813 36.3683 26.3168C36.3431 26.4044 36.3126 26.4904 36.277 26.5743L36.2346 26.5665Z" fill="white"/>
<path d="M22.5855 36.9841C21.8533 37.0215 21.1191 36.9935 20.3918 36.9004C20.1204 36.8695 19.8491 36.8451 19.5803 36.8026C19.3116 36.7601 19.057 36.7099 18.7998 36.6455C18.3934 36.5451 17.9858 36.4512 17.5897 36.3199C16.534 35.971 15.5875 35.4394 14.879 34.5551C14.4912 34.0711 14.2359 33.4944 14.1383 32.8817C13.984 31.9498 14.1975 31.0796 14.5948 30.2507C15.0886 29.2132 15.828 28.3636 16.678 27.608C17.7943 26.6355 19.049 25.8346 20.4008 25.2318C21.0821 24.9203 21.7811 24.6491 22.4942 24.4196C22.8659 24.2986 23.2478 24.2123 23.6246 24.1068C24.0721 23.9781 24.5247 23.9008 24.9864 23.8185C26.0211 23.6221 27.0736 23.5349 28.1266 23.5584C28.6529 23.5697 29.1781 23.6127 29.6993 23.6872C30.608 23.8109 31.4921 24.0749 32.32 24.4698C33.0736 24.8418 33.7461 25.3193 34.2373 26.0144C34.669 26.6073 34.9059 27.3198 34.915 28.0534C34.9173 28.8331 34.7293 29.6015 34.3672 30.2918C33.9043 31.2212 33.2291 31.9807 32.4987 32.6989C31.4206 33.7642 30.1849 34.6568 28.8351 35.3454C28.1985 35.6736 27.5367 35.9503 26.8561 36.1731C26.4099 36.3173 25.956 36.4563 25.5072 36.5799C25.25 36.6507 24.9709 36.679 24.7048 36.7369C24.0062 36.8764 23.2974 36.959 22.5855 36.9841ZM23.1591 36.6327C23.7739 36.641 24.3879 36.5862 24.9915 36.4692C25.2641 36.4087 25.5445 36.3791 25.8119 36.307C26.1694 36.2092 26.5218 36.0895 26.8715 35.9685C27.5041 35.7505 28.1122 35.4671 28.686 35.1228C29.3409 34.7469 29.9371 34.2768 30.4554 33.7274C31.0199 33.1108 31.4661 32.4299 31.5549 31.5675C31.6114 31.1015 31.5148 30.6298 31.2797 30.2236C30.9734 29.7209 30.5193 29.3252 29.9796 29.0909C29.5423 28.8824 29.0771 28.7385 28.5985 28.6635C28.186 28.5905 27.7687 28.5475 27.3499 28.5348C26.7975 28.5358 26.246 28.5789 25.7001 28.6635C25.2137 28.7288 24.7328 28.8295 24.2611 28.9647C23.4647 29.1944 22.6975 29.5153 21.9747 29.9211C21.1468 30.3683 20.4062 30.9613 19.7887 31.6717C19.4402 32.0725 19.1729 32.5372 19.0017 33.0401C18.853 33.4792 18.8329 33.9517 18.9438 34.4019C19.0946 34.9644 19.4477 35.4512 19.9353 35.7689C20.6644 36.2838 21.4977 36.4833 22.3605 36.5902C22.6627 36.6314 22.9649 36.6237 23.1591 36.6327Z" fill="white"/>
<path d="M7.22767 24.4856C7.19681 24.3402 7.15309 24.196 7.13508 24.0493C6.99779 23.0574 6.96503 22.0539 7.03735 21.0552C7.06822 20.6897 7.09008 20.3228 7.12994 19.9585C7.15566 19.7281 7.2071 19.5003 7.25082 19.2724C7.29454 19.0446 7.34726 18.7897 7.39998 18.5503C7.48939 18.1569 7.62267 17.7748 7.79734 17.4111C8.45702 15.9875 9.46004 14.8367 10.6264 13.8069C11.7292 12.853 12.9403 12.0321 14.2347 11.3612C15.071 10.9186 15.9368 10.5341 16.8258 10.2105C17.3903 10.0019 17.9562 9.79855 18.5387 9.64408C18.8897 9.55011 19.2421 9.45357 19.5944 9.36604C19.9468 9.27851 20.3017 9.18197 20.6592 9.11761C21.1825 9.02364 21.7098 8.95027 22.2357 8.8769C22.5906 8.82799 22.9481 8.79323 23.3056 8.74818C23.3911 8.73991 23.4769 8.73605 23.5628 8.73659C24.2289 8.73659 24.8963 8.72501 25.5624 8.73659C26.1661 8.75641 26.7677 8.81878 27.3627 8.92324C27.8345 8.9964 28.3017 9.09697 28.7618 9.22445C29.995 9.56556 31.1497 10.0701 32.1193 10.921C33.3989 12.1051 34.4686 13.4979 35.2827 15.0401C35.3869 15.246 35.482 15.4571 35.5798 15.6669C35.5875 15.6824 35.5798 15.7043 35.5708 15.7532C35.5065 15.6669 35.4563 15.6026 35.41 15.5344C34.8399 14.7242 34.0921 14.0554 33.2239 13.5791C32.5999 13.2156 31.9346 12.9283 31.2423 12.7231C30.8566 12.6098 30.4708 12.4875 30.076 12.3923C29.7931 12.3228 29.5012 12.288 29.2119 12.2391L28.4403 12.1104C28.4144 12.1052 28.3882 12.1013 28.3619 12.0988C27.5782 12.0289 26.7914 12.0001 26.0048 12.0126C25.3927 12.0319 24.7806 12.0602 24.1685 12.1014C23.8856 12.1207 23.6039 12.1799 23.3223 12.2211C22.979 12.2713 22.6369 12.3163 22.2936 12.3717C22.0853 12.4052 21.8782 12.4528 21.6712 12.5004C21.4372 12.5493 21.2031 12.5982 20.9704 12.6536C20.6412 12.7308 20.3094 12.8016 19.9853 12.8982C19.3321 13.0925 18.6763 13.2843 18.0359 13.5122C17.4263 13.7297 16.8271 13.9768 16.2356 14.2446C15.5926 14.5394 14.9497 14.8534 14.3363 15.1958C13.5001 15.6548 12.6997 16.1763 11.9419 16.7559C11.0976 17.3916 10.3165 18.1072 9.60921 18.8927C8.96415 19.6067 8.41709 20.4037 7.98251 21.2625C7.75389 21.7185 7.57538 22.198 7.45013 22.6926C7.31639 23.1964 7.25022 23.7159 7.25339 24.2372C7.25339 24.3209 7.25339 24.4033 7.2431 24.4869L7.22767 24.4856Z" fill="white"/>
<path d="M27.215 29.8016C27.6558 29.7771 28.0977 29.8205 28.5253 29.9303C29.1464 30.0796 29.7238 30.3164 30.1469 30.8313C30.3203 31.0297 30.4433 31.267 30.5056 31.5232C30.5678 31.7793 30.5674 32.0467 30.5044 32.3026C30.3655 32.9552 29.99 33.4611 29.5335 33.9142C29.017 34.4136 28.4201 34.8222 27.7679 35.1229C27.3446 35.3284 26.904 35.4959 26.4511 35.6236C25.9907 35.7494 25.5225 35.8444 25.0495 35.9081C24.6474 35.9646 24.2407 35.9801 23.8356 35.9544C23.1424 35.9081 22.466 35.7742 21.8604 35.4061C21.4458 35.1726 21.1304 34.796 20.9731 34.3467C20.8631 34.0079 20.8631 33.6429 20.9731 33.3041C21.1647 32.6514 21.5698 32.1456 22.0648 31.695C22.733 31.1074 23.5049 30.6499 24.3409 30.346C24.7859 30.1744 25.2444 30.0405 25.7117 29.9457C26.2041 29.8306 26.7097 29.7822 27.215 29.8016Z" fill="white"/>
</svg>
