<svg width="290" height="74" viewBox="0 0 290 74" fill="none" xmlns="http://www.w3.org/2000/svg">
<path d="M75.8203 20.0703C75.7734 20.3516 75.6484 20.5 75.4453 20.5156C75.2734 20.5312 75.1719 20.4922 75.1406 20.3984C75.125 20.2891 75.1328 20.1094 75.1641 19.8594C75.1797 19.7812 75.1953 19.6875 75.2109 19.5781C75.3203 18.6875 75.25 17.875 75 17.1406C74.75 16.4062 74.2422 15.7734 73.4766 15.2422C72.6484 14.5859 71.1797 14.3047 69.0703 14.3984C66.9766 14.4766 63.9219 15.1953 59.9062 16.5547C55.8906 17.9141 50.5781 20.1875 43.9688 23.375C43.9531 23.375 43.9375 23.375 43.9219 23.375C43.8594 23.4062 43.7969 23.4375 43.7344 23.4688C42.0156 24.2656 40.3438 25.0312 38.7188 25.7656C38.0469 26.0781 37.5234 26.4219 37.1484 26.7969C36.7734 27.1719 36.5 27.4922 36.3281 27.7578C35.875 28.3984 35.3984 29.0703 34.8984 29.7734C31.7109 34.2422 28.8672 38.2422 26.3672 41.7734C26.1641 42.0703 26.0938 42.2578 26.1562 42.3359C26.2188 42.3984 26.3438 42.4062 26.5312 42.3594C30.2656 41.375 34.2031 40.4062 38.3438 39.4531C38.4688 39.4219 38.5781 39.3906 38.6719 39.3594C38.9219 39.2969 39.0938 39.2734 39.1875 39.2891C39.2969 39.3047 39.3359 39.4062 39.3047 39.5938C39.3047 39.6719 39.2812 39.7188 39.2344 39.7344C39.1875 39.75 39.1172 39.7578 39.0234 39.7578C38.8672 39.7422 38.6172 39.7734 38.2734 39.8516C33.8359 41.0391 29.9375 42.125 26.5781 43.1094C25.9375 43.3125 25.4375 43.5625 25.0781 43.8594C24.7344 44.1562 24.4844 44.4297 24.3281 44.6797C24.3125 44.7109 24.2891 44.75 24.2578 44.7969C24.2266 44.8281 24.2031 44.8594 24.1875 44.8906C19.3906 51.7188 15.7891 57.2109 13.3828 61.3672C10.9766 65.5234 9.35156 69.1953 8.50781 72.3828C8.41406 72.7578 8.28125 73.0625 8.10938 73.2969C7.95312 73.5469 7.69531 73.6719 7.33594 73.6719C7.11719 73.6719 7.01562 73.6406 7.03125 73.5781C7.04688 73.5156 7.10938 73.4141 7.21875 73.2734C7.375 73.1016 7.5 72.8672 7.59375 72.5703C8.48438 69.2422 10.0547 65.4922 12.3047 61.3203C14.5703 57.1484 18.0156 51.6953 22.6406 44.9609C22.8594 44.6328 22.9219 44.4375 22.8281 44.375C22.7344 44.3125 22.5234 44.3281 22.1953 44.4219C20.1484 45.0625 17.9609 45.7734 15.6328 46.5547C15.1641 46.7109 14.7109 46.8594 14.2734 47C10.5234 48.2188 7.88281 49.1797 6.35156 49.8828C4.82031 50.5859 3.60156 51.5391 2.69531 52.7422C2.42969 53.0859 2.16406 53.2969 1.89844 53.375C1.63281 53.4375 1.33594 53.4688 1.00781 53.4688C0.648438 53.4688 0.390625 53.4062 0.234375 53.2812C0.078125 53.1406 0.046875 52.8906 0.140625 52.5312C0.421875 51.375 2.14062 50.1172 5.29688 48.7578C7.20312 47.9453 9.6875 47.1172 12.75 46.2734C13.5938 46.0234 14.4375 45.7734 15.2812 45.5234C17.7031 44.8047 20.0547 44.125 22.3359 43.4844C23.0547 43.2656 23.6172 42.9844 24.0234 42.6406C24.4297 42.2812 24.7422 41.9297 24.9609 41.5859C27.4922 37.9297 30.4219 33.7734 33.75 29.1172C33.9219 28.8984 34.0781 28.6797 34.2188 28.4609C34.5781 27.8672 34.5 27.6562 33.9844 27.8281C32.4531 28.4688 31.0234 29.0234 29.6953 29.4922C19.8828 32.9453 14.5469 33.1016 13.6875 29.9609C13.3438 28.4141 13.9766 26.5391 15.5859 24.3359C17.2109 22.1328 19.4375 19.8594 22.2656 17.5156C25.0938 15.1562 28.1484 12.9844 31.4297 11C39.2109 6.29688 43.9766 4.92969 45.7266 6.89844C46.2109 7.30469 46.4375 8.05469 46.4062 9.14844C46.375 10.2422 45.8047 11.9531 44.6953 14.2812C43.5859 16.6094 41.6641 19.8359 38.9297 23.9609C38.7578 24.2266 38.7109 24.3906 38.7891 24.4531C38.8828 24.5156 39.0469 24.5 39.2812 24.4062C40.7188 23.7969 42.1797 23.1484 43.6641 22.4609C51.6953 18.7109 58.2031 16.1094 63.1875 14.6562C68.1719 13.2031 71.6172 12.9844 73.5234 14C74.7891 14.75 75.5391 15.6797 75.7734 16.7891C76.0078 17.8828 76.0234 18.9766 75.8203 20.0703ZM29.4609 28.25C31.0703 27.6875 32.8438 27.0234 34.7812 26.2578C35.8594 25.7422 36.5391 25.2344 36.8203 24.7344C38.8984 21.6719 40.4609 19.1875 41.5078 17.2812C42.5703 15.375 43.2656 13.8906 43.5938 12.8281C43.9375 11.7656 44.0625 10.9766 43.9688 10.4609C43.875 9.94531 43.7188 9.54688 43.5 9.26562C43.2344 8.78125 42.1953 8.78906 40.3828 9.28906C38.5703 9.77344 35.8984 11.0547 32.3672 13.1328C29.1172 15.1016 26.1875 17.1406 23.5781 19.25C20.9688 21.3438 18.9375 23.3203 17.4844 25.1797C16.0469 27.0234 15.4375 28.5312 15.6562 29.7031C15.8281 30.5469 17.0312 30.9062 19.2656 30.7812C21.5156 30.6562 24.9141 29.8125 29.4609 28.25ZM46.6641 40.7891C46.4141 40.7578 46.3047 40.6562 46.3359 40.4844C46.3672 40.3125 46.4375 40.1094 46.5469 39.875C46.6562 39.6875 46.7344 39.5078 46.7812 39.3359C46.8906 38.9453 47.0703 38.6328 47.3203 38.3984C47.5859 38.1484 47.9062 38.0234 48.2812 38.0234C48.5469 38.0234 48.7812 38.0469 48.9844 38.0938C49.1875 38.1406 49.3203 38.2656 49.3828 38.4688C49.4609 38.6719 49.4297 38.9844 49.2891 39.4062C49.0391 40.0156 48.6406 40.4141 48.0938 40.6016C47.5469 40.7891 47.0703 40.8516 46.6641 40.7891ZM57.6797 44.4219C57.8516 44.2969 57.9688 44.2578 58.0312 44.3047C58.1094 44.3516 58.125 44.4375 58.0781 44.5625C58.0312 44.6719 57.9375 44.7812 57.7969 44.8906C56.0625 46.0781 54.1406 47.3672 52.0312 48.7578C49.9219 50.1484 47.8516 51.4531 45.8203 52.6719C43.8047 53.875 42.0625 54.7891 40.5938 55.4141C39.1094 56.0391 38.1406 56.1641 37.6875 55.7891C37.1719 55.2422 37.0703 54.4766 37.3828 53.4922C37.6797 52.5078 38.2422 51.3828 39.0703 50.1172C39.8828 48.8359 40.7969 47.4922 41.8125 46.0859C41.9688 45.8672 42.1094 45.6719 42.2344 45.5C42.375 45.2969 42.5078 45.1094 42.6328 44.9375C42.7578 44.7656 42.8906 44.5703 43.0312 44.3516C43.2031 44.1328 43.5078 43.9609 43.9453 43.8359C44.3828 43.7109 44.8125 43.6562 45.2344 43.6719C45.6562 43.6719 45.9297 43.7656 46.0547 43.9531C46.1641 44.1562 46.1719 44.3438 46.0781 44.5156C45.9844 44.6719 45.8359 44.8359 45.6328 45.0078C45.5078 45.1328 45.375 45.2734 45.2344 45.4297C45.1719 45.4922 45.0391 45.625 44.8359 45.8281C44.2734 46.4062 43.4922 47.2656 42.4922 48.4062C41.4766 49.5312 40.5859 50.6797 39.8203 51.8516C39.0547 53.0234 38.7734 53.9375 38.9766 54.5938C39.3203 55.1094 40.9297 54.6172 43.8047 53.1172C46.6797 51.6172 51.3047 48.7188 57.6797 44.4219ZM86.1094 44.4219C86.1719 44.3594 86.2266 44.3359 86.2734 44.3516C86.3359 44.3516 86.3672 44.3828 86.3672 44.4453C86.3672 44.4922 86.3281 44.5547 86.25 44.6328C81.5938 48.4922 77.6328 51.2969 74.3672 53.0469C71.1172 54.7969 68.6641 55.2656 67.0078 54.4531C65.9297 53.875 65.2969 52.8672 65.1094 51.4297C64.9375 49.9922 65.2344 48.25 66 46.2031C66.1406 45.8438 66.2969 45.4844 66.4688 45.125C66.7656 44.5156 66.9766 43.9531 67.1016 43.4375C67.1328 43.25 67.0938 43.1484 66.9844 43.1328C66.8906 43.1016 66.7656 43.125 66.6094 43.2031C66.4531 43.2656 66.3047 43.3359 66.1641 43.4141C64.9922 44.2266 63.4922 45.4688 61.6641 47.1406C59.8359 48.8125 58.125 50.4141 56.5312 51.9453C54.9531 53.4609 53.9219 54.4141 53.4375 54.8047C53.0312 55.1484 52.6172 55.4062 52.1953 55.5781C51.7734 55.7344 51.4766 55.7422 51.3047 55.6016C51.1172 55.4453 51.1719 55.0625 51.4688 54.4531C51.5 54.3906 51.8281 53.8281 52.4531 52.7656C53.0625 51.6875 53.8359 50.3906 54.7734 48.875C55.7109 47.3438 56.6719 45.8594 57.6562 44.4219C57.8906 44.0938 58.1641 43.8984 58.4766 43.8359C58.8047 43.7578 59.125 43.7891 59.4375 43.9297C59.75 44.0547 59.9375 44.2422 60 44.4922C60.0781 44.7266 59.9844 45.0703 59.7188 45.5234C59.4219 45.9609 58.7578 46.7812 57.7266 47.9844C56.4766 49.4531 55.2188 51.0156 53.9531 52.6719C53.8281 52.8594 53.7188 53.0391 53.625 53.2109C53.5156 53.3672 53.4531 53.4922 53.4375 53.5859C53.4062 53.6797 53.4531 53.7031 53.5781 53.6562C53.7031 53.5938 53.9297 53.4219 54.2578 53.1406C55.2266 52.2656 56.4141 51.1484 57.8203 49.7891C59.2891 48.3828 60.7891 46.9766 62.3203 45.5703C63.8672 44.1484 65.2422 42.9844 66.4453 42.0781C67.6484 41.1562 68.4922 40.75 68.9766 40.8594C69.7422 41.0781 70.0625 41.5781 69.9375 42.3594C69.8125 43.1406 69.2656 44.4844 68.2969 46.3906C67.7812 47.4688 67.3984 48.5703 67.1484 49.6953C66.9141 50.8047 66.8672 51.7656 67.0078 52.5781C67.1641 53.375 67.5703 53.8438 68.2266 53.9844C69.7578 54.1875 71.4766 53.8516 73.3828 52.9766C75.3047 52.1016 77.2734 50.9453 79.2891 49.5078C81.3203 48.0703 83.2812 46.6094 85.1719 45.125C85.4844 44.8906 85.7969 44.6562 86.1094 44.4219ZM116.602 44.4219C116.742 44.3281 116.859 44.2969 116.953 44.3281C117.047 44.3594 117.078 44.4375 117.047 44.5625C117.031 44.6875 116.898 44.8516 116.648 45.0547C115.352 46.0859 113.758 47.1953 111.867 48.3828C109.992 49.5547 108.047 50.6016 106.031 51.5234C104.016 52.4453 102.164 53.0312 100.477 53.2812C98.7891 53.5312 97.5 53.2344 96.6094 52.3906C95.7188 51.5469 95.4453 49.9531 95.7891 47.6094C95.8203 47.375 95.8047 47.25 95.7422 47.2344C95.6797 47.2031 95.5938 47.2344 95.4844 47.3281C95.4688 47.3438 95.4531 47.3594 95.4375 47.375C95.375 47.4219 95.3047 47.4766 95.2266 47.5391C95.2266 47.5391 95.2266 47.5469 95.2266 47.5625C95.2109 47.5625 95.2031 47.5625 95.2031 47.5625C91.2656 50.6875 88.25 52.8359 86.1562 54.0078C84.0781 55.1641 82.6094 55.7109 81.75 55.6484C81.0938 55.6172 80.6328 55.4297 80.3672 55.0859C79.8047 54.3984 79.7578 53.4453 80.2266 52.2266C80.6953 51.0078 81.4062 49.7578 82.3594 48.4766C83.3125 47.1953 84.2344 46.125 85.125 45.2656C86.5156 43.9531 87.6562 43.0703 88.5469 42.6172C89.4531 42.1641 90.1562 41.9688 90.6562 42.0312C91.1562 42.0781 91.5 42.1953 91.6875 42.3828C92.2188 42.8516 92.3594 43.5469 92.1094 44.4688C91.8594 45.375 91.25 46.3984 90.2812 47.5391C90 47.8516 89.6797 48.0547 89.3203 48.1484C88.9609 48.2266 88.6406 48.1719 88.3594 47.9844C88.0938 47.7969 87.9609 47.5312 87.9609 47.1875C87.9609 46.8438 88.1094 46.5156 88.4062 46.2031C88.5312 46.0781 88.6953 45.9531 88.8984 45.8281C89.1328 45.6719 89.3047 45.5312 89.4141 45.4062C89.5391 45.2656 89.5078 45.1406 89.3203 45.0312C89.1328 44.9688 88.7344 45.1484 88.125 45.5703C87.5156 45.9922 86.8906 46.5078 86.25 47.1172C85.3906 47.9453 84.5312 48.8516 83.6719 49.8359C82.8125 50.8047 82.1562 51.7031 81.7031 52.5312C81.2344 53.3438 81.1562 53.9141 81.4688 54.2422C82.1562 54.6328 83.2109 54.5078 84.6328 53.8672C86.0391 53.2109 87.625 52.2578 89.3906 51.0078C91.1719 49.7422 92.9453 48.3828 94.7109 46.9297C95.3203 46.3828 95.7656 45.9062 96.0469 45.5C96.3281 45.0781 96.5078 44.7344 96.5859 44.4688C96.6172 44.3906 96.6406 44.3125 96.6562 44.2344C96.6719 44.1875 96.6875 44.1328 96.7031 44.0703C96.7188 44.0391 96.7266 44.0156 96.7266 44C96.7422 43.9688 96.75 43.9453 96.75 43.9297C98.7812 37.5547 101.203 31.7422 104.016 26.4922C106.844 21.2422 109.766 16.7109 112.781 12.8984C115.812 9.07031 118.648 6.11719 121.289 4.03906C123.93 1.94531 126.031 0.898438 127.594 0.898438C129.031 0.898438 129.922 1.625 130.266 3.07812C130.719 6.09375 128.844 10.8047 124.641 17.2109C123 19.7734 120.508 23.0078 117.164 26.9141C113.836 30.8203 109.438 35.2422 103.969 40.1797C103.953 40.1953 103.945 40.2031 103.945 40.2031C102.867 41.1719 101.758 42.1406 100.617 43.1094C100.586 43.125 100.562 43.1406 100.547 43.1562C100.516 43.1875 100.477 43.2188 100.43 43.25C100.43 43.2656 100.43 43.2734 100.43 43.2734C100.414 43.2734 100.406 43.2734 100.406 43.2734C100.234 43.4297 100.062 43.5781 99.8906 43.7188C99.4375 44.0781 98.9609 44.625 98.4609 45.3594C97.9609 46.0781 97.6328 46.9766 97.4766 48.0547C97.3047 49.8828 97.6484 51.0859 98.5078 51.6641C99.3828 52.2266 100.578 52.3438 102.094 52.0156C103.609 51.6719 105.266 51.0625 107.062 50.1875C108.859 49.3125 110.594 48.3516 112.266 47.3047C113.953 46.2422 115.398 45.2812 116.602 44.4219ZM98.9531 42.6172C98.8594 42.8984 98.8359 43.0703 98.8828 43.1328C98.9453 43.1797 99.0391 43.1641 99.1641 43.0859C99.2891 42.9922 99.4141 42.8906 99.5391 42.7812C101.117 41.375 102.25 40.3594 102.938 39.7344C103.141 39.5469 103.281 39.4141 103.359 39.3359C108.672 34.5234 112.93 30.1719 116.133 26.2812C119.352 22.3906 121.758 19.2109 123.352 16.7422C125.383 13.6328 126.758 10.9141 127.477 8.58594C128.195 6.25781 128.461 4.67188 128.273 3.82812C128.227 3.60937 128.156 3.44531 128.062 3.33594C127.984 3.22656 127.898 3.16406 127.805 3.14844C127.727 3.13281 127.656 3.13281 127.594 3.14844C124.109 4.50781 120.805 6.85156 117.68 10.1797C114.57 13.5078 111.742 17.2422 109.195 21.3828C106.648 25.5234 104.492 29.5078 102.727 33.3359C100.977 37.1641 99.7188 40.2578 98.9531 42.6172ZM166.805 44.3984C166.852 44.3672 166.906 44.3594 166.969 44.375C167.031 44.375 167.078 44.3984 167.109 44.4453C167.156 44.4766 167.156 44.5312 167.109 44.6094C167.078 44.6875 166.977 44.7891 166.805 44.9141C163.977 46.8359 161.359 48.5234 158.953 49.9766C156.547 51.4297 154.484 52.4844 152.766 53.1406C151.062 53.7969 149.844 53.9062 149.109 53.4688C148.578 53.0625 148.266 52.4609 148.172 51.6641C148.078 50.8516 148.102 49.9922 148.242 49.0859C148.398 48.1641 148.578 47.3281 148.781 46.5781C148.812 46.4688 148.82 46.3984 148.805 46.3672C148.805 46.3359 148.789 46.3359 148.758 46.3672C148.727 46.3828 148.695 46.4062 148.664 46.4375C148.648 46.4531 148.641 46.4688 148.641 46.4844C148.625 46.4844 148.617 46.4922 148.617 46.5078C148.602 46.5078 148.594 46.5078 148.594 46.5078C148.375 46.7422 148.156 46.9766 147.938 47.2109C146.609 48.6641 145.398 49.8438 144.305 50.75C143.227 51.6562 142.281 51.9609 141.469 51.6641C140.953 51.3828 140.812 50.5938 141.047 49.2969C141.281 48 141.758 46.4531 142.477 44.6562C143.195 42.8438 144.008 41.0391 144.914 39.2422C144.977 39.1172 145 39.0391 144.984 39.0078C144.984 38.9766 144.961 38.9766 144.914 39.0078C144.867 39.0391 144.82 39.0859 144.773 39.1484C142.586 41.4141 140.133 43.8125 137.414 46.3438C134.695 48.8594 132.477 50.75 130.758 52.0156C129.711 52.7344 128.922 53.0625 128.391 53C127.844 52.9219 127.852 52.4062 128.414 51.4531C128.773 50.875 129.125 50.3047 129.469 49.7422C130.234 48.4141 131.422 46.6094 133.031 44.3281C133.281 43.9844 133.594 43.7656 133.969 43.6719C134.344 43.5625 134.688 43.5781 135 43.7188C135.312 43.875 135.562 44.0781 135.75 44.3281C135.938 44.5781 135.891 44.8516 135.609 45.1484C134.875 45.8672 134 46.7969 132.984 47.9375C131.953 49.0781 131.18 50 130.664 50.7031C130.617 50.7656 130.578 50.8359 130.547 50.9141C130.5 50.9766 130.477 51.0391 130.477 51.1016C130.477 51.1484 130.508 51.1641 130.57 51.1484C130.633 51.1328 130.75 51.0703 130.922 50.9609C132 50.2109 133.953 48.5391 136.781 45.9453C139.625 43.3359 142.734 40.2344 146.109 36.6406C146.375 36.375 146.711 36.2266 147.117 36.1953C147.539 36.1484 147.891 36.2188 148.172 36.4062C148.453 36.5781 148.539 36.875 148.43 37.2969C148.43 37.2969 148.148 37.7266 147.586 38.5859C147.023 39.4453 146.359 40.5391 145.594 41.8672C144.844 43.1797 144.133 44.5625 143.461 46.0156C142.805 47.4688 142.344 48.8125 142.078 50.0469C142.078 50.0625 142.078 50.0781 142.078 50.0938C142.078 50.1094 142.078 50.1172 142.078 50.1172C142.062 50.1953 142.047 50.2656 142.031 50.3281C142 50.5 142 50.6641 142.031 50.8203C142.062 50.9766 142.148 51.1094 142.289 51.2188C142.789 51.4375 143.516 51.0703 144.469 50.1172C145.438 49.1484 146.438 48.0469 147.469 46.8125C148.234 45.9062 148.914 45.1484 149.508 44.5391C150.102 43.9141 150.523 43.6172 150.773 43.6484C151.305 43.8047 151.555 44.1094 151.523 44.5625C151.492 45 151.367 45.5234 151.148 46.1328C151.055 46.3672 150.969 46.6094 150.891 46.8594C150.828 47.0625 150.758 47.2969 150.68 47.5625C150.477 48.1719 150.273 48.8438 150.07 49.5781C149.867 50.2969 149.734 50.9531 149.672 51.5469C149.625 52.1406 149.734 52.5234 150 52.6953C150.234 52.8828 150.953 52.8281 152.156 52.5312C153.375 52.2188 155.172 51.4453 157.547 50.2109C159.938 48.9609 163.023 47.0156 166.805 44.375V44.3984ZM186.984 44.3984C187.031 44.4297 187.039 44.4844 187.008 44.5625C186.977 44.6406 186.906 44.7188 186.797 44.7969C186.781 44.7969 186.773 44.7969 186.773 44.7969C186.773 44.7969 186.773 44.8047 186.773 44.8203C182.758 47.3359 178.945 49.3438 175.336 50.8438C171.727 52.3438 168.953 53.0156 167.016 52.8594C165.75 52.7812 164.859 52.3516 164.344 51.5703C163.766 50.4141 163.906 48.9688 164.766 47.2344C165.016 46.75 165.289 46.2969 165.586 45.875C165.82 45.5312 166.055 45.2031 166.289 44.8906C167.367 43.6562 168.258 42.7578 168.961 42.1953C169.023 42.1328 169.078 42.0781 169.125 42.0312C169.141 42.0312 169.148 42.0234 169.148 42.0078C169.633 41.6172 170.102 41.25 170.555 40.9062C173.789 38.5625 176.156 37.6719 177.656 38.2344C178.016 38.3906 178.289 38.6328 178.477 38.9609C178.664 39.2734 178.688 39.6484 178.547 40.0859C178.344 40.6328 177.906 41.1328 177.234 41.5859C176.578 42.0391 175.797 42.4375 174.891 42.7812C172.969 43.5 171.164 44.0391 169.477 44.3984C169.273 44.4297 168.977 44.5547 168.586 44.7734C168.211 44.9766 167.812 45.2891 167.391 45.7109C167.375 45.7266 167.367 45.7344 167.367 45.7344C167.336 45.7812 167.297 45.8281 167.25 45.875C166.328 46.9062 165.727 48.0312 165.445 49.25C165.445 50.1094 165.766 50.75 166.406 51.1719C167.047 51.5781 167.812 51.7812 168.703 51.7812C170.453 51.7812 172.898 51.1328 176.039 49.8359C179.18 48.5391 182.75 46.7266 186.75 44.3984C186.859 44.3359 186.938 44.3359 186.984 44.3984ZM169.688 43.6484C169.562 43.7422 169.484 43.8203 169.453 43.8828C169.422 43.9453 169.492 43.9609 169.664 43.9297C170.523 43.7266 171.531 43.4297 172.688 43.0391C173.531 42.7578 174.227 42.4609 174.773 42.1484C175.336 41.8203 175.57 41.5234 175.477 41.2578C175.477 41.2578 175.477 41.25 175.477 41.2344C175.477 41.2344 175.469 41.2266 175.453 41.2109C175.453 41.1953 175.453 41.1875 175.453 41.1875C175.328 41.0469 175.109 40.9844 174.797 41C174.547 41.0312 174.25 41.1016 173.906 41.2109C173.891 41.2109 173.883 41.2109 173.883 41.2109C173.883 41.2266 173.883 41.2344 173.883 41.2344C173.836 41.2344 173.789 41.25 173.742 41.2812C173.742 41.2812 173.734 41.2812 173.719 41.2812C173.719 41.2812 173.711 41.2812 173.695 41.2812C173.273 41.4375 172.797 41.6719 172.266 41.9844C171.438 42.4219 170.578 42.9766 169.688 43.6484ZM226.641 44.4219C226.734 44.3281 226.828 44.2812 226.922 44.2812C227.016 44.2812 227.062 44.3281 227.062 44.4219C227.078 44.5156 227 44.6562 226.828 44.8438C223.359 48.375 220.305 51.0391 217.664 52.8359C215.039 54.6172 212.875 55.3281 211.172 54.9688C210.469 54.7812 209.938 54.375 209.578 53.75C209.219 53.125 208.969 52.4219 208.828 51.6406C208.688 50.8438 208.586 50.1172 208.523 49.4609C208.461 48.6641 208.367 48.1875 208.242 48.0312C207.664 47.75 206.75 48.0703 205.5 48.9922C204.266 49.8984 202.922 51.0781 201.469 52.5312C200 53.9844 198.641 55.3672 197.391 56.6797C196.547 57.5703 195.844 58.2969 195.281 58.8594C194.719 59.4219 194.359 59.7188 194.203 59.75C194.188 59.75 194.172 59.75 194.156 59.75C194.078 59.7656 193.992 59.7656 193.898 59.75C193.789 59.75 193.703 59.7188 193.641 59.6562C193.562 59.5938 193.531 59.4844 193.547 59.3281C193.547 59.1875 193.617 58.9766 193.758 58.6953C193.82 58.6016 194.25 57.9531 195.047 56.75C196.453 54.5938 198.352 51.6797 200.742 48.0078C203.133 44.3203 205.32 40.8984 207.305 37.7422C214.352 26.4297 220.547 17.4609 225.891 10.8359C231.234 4.19531 235.188 0.695313 237.75 0.335938C238.828 0.257812 239.516 0.679687 239.812 1.60156C240.328 3.53906 238.836 7.17187 235.336 12.5C231.836 17.8125 226.609 24.0469 219.656 31.2031C219.641 31.2031 219.633 31.2109 219.633 31.2266C215.727 35.1016 211.516 38.8516 207 42.4766C206.984 42.4922 206.977 42.5 206.977 42.5C206.977 42.5 206.969 42.5 206.953 42.5C206.578 42.7969 205.922 43.4609 204.984 44.4922C204.047 45.5078 202.984 46.8594 201.797 48.5469C201.422 49.0781 201.055 49.6094 200.695 50.1406C199.273 52.1719 198.07 53.9141 197.086 55.3672C196.961 55.5391 196.852 55.7109 196.758 55.8828C196.648 56.0547 196.578 56.1875 196.547 56.2812C196.516 56.3906 196.547 56.4219 196.641 56.375C196.719 56.3438 196.891 56.1953 197.156 55.9297C197.578 55.5078 198.031 55.0469 198.516 54.5469C199.672 53.3281 200.93 52.0703 202.289 50.7734C203.648 49.4766 204.984 48.375 206.297 47.4688C207.625 46.5469 208.805 46.0703 209.836 46.0391C210.164 46.0391 210.414 46.1406 210.586 46.3438C210.773 46.5312 210.859 46.7812 210.844 47.0938C210.797 47.5781 210.797 48.3516 210.844 49.4141C210.891 50.4609 211.039 51.4531 211.289 52.3906C211.539 53.3125 211.945 53.8359 212.508 53.9609C213.414 54.1328 215.023 53.5469 217.336 52.2031C219.664 50.8594 222.766 48.2656 226.641 44.4219ZM206.32 41.9375C206.305 41.9531 206.297 41.9609 206.297 41.9609C206.219 42.0703 206.148 42.1797 206.086 42.2891C206.023 42.3828 205.984 42.4609 205.969 42.5234C205.953 42.5703 205.977 42.5781 206.039 42.5469C206.117 42.5156 206.258 42.4141 206.461 42.2422C211.18 38.3672 215.445 34.5547 219.258 30.8047C219.273 30.7891 219.281 30.7812 219.281 30.7812C222.5 27.4688 225.453 24.0703 228.141 20.5859C230.828 17.1016 233.07 13.9219 234.867 11.0469C236.523 8.29688 237.508 6.14844 237.82 4.60156C238.133 3.05469 238.086 2.30469 237.68 2.35156C237.18 2.36719 235.758 3.42969 233.414 5.53906C231.07 7.63281 227.82 11.2969 223.664 16.5312C219.523 21.75 214.508 29.0391 208.617 38.3984C207.977 39.4141 207.211 40.5938 206.32 41.9375ZM246.844 44.3984C246.891 44.4297 246.898 44.4844 246.867 44.5625C246.836 44.6406 246.766 44.7188 246.656 44.7969C246.641 44.7969 246.633 44.7969 246.633 44.7969C246.633 44.7969 246.633 44.8047 246.633 44.8203C242.617 47.3359 238.805 49.3438 235.195 50.8438C231.586 52.3438 228.812 53.0156 226.875 52.8594C225.609 52.7812 224.719 52.3516 224.203 51.5703C223.625 50.4141 223.766 48.9688 224.625 47.2344C224.875 46.75 225.148 46.2969 225.445 45.875C225.68 45.5312 225.914 45.2031 226.148 44.8906C227.227 43.6562 228.117 42.7578 228.82 42.1953C228.883 42.1328 228.938 42.0781 228.984 42.0312C229 42.0312 229.008 42.0234 229.008 42.0078C229.492 41.6172 229.961 41.25 230.414 40.9062C233.648 38.5625 236.016 37.6719 237.516 38.2344C237.875 38.3906 238.148 38.6328 238.336 38.9609C238.523 39.2734 238.547 39.6484 238.406 40.0859C238.203 40.6328 237.766 41.1328 237.094 41.5859C236.438 42.0391 235.656 42.4375 234.75 42.7812C232.828 43.5 231.023 44.0391 229.336 44.3984C229.133 44.4297 228.836 44.5547 228.445 44.7734C228.07 44.9766 227.672 45.2891 227.25 45.7109C227.234 45.7266 227.227 45.7344 227.227 45.7344C227.195 45.7812 227.156 45.8281 227.109 45.875C226.188 46.9062 225.586 48.0312 225.305 49.25C225.305 50.1094 225.625 50.75 226.266 51.1719C226.906 51.5781 227.672 51.7812 228.562 51.7812C230.312 51.7812 232.758 51.1328 235.898 49.8359C239.039 48.5391 242.609 46.7266 246.609 44.3984C246.719 44.3359 246.797 44.3359 246.844 44.3984ZM229.547 43.6484C229.422 43.7422 229.344 43.8203 229.312 43.8828C229.281 43.9453 229.352 43.9609 229.523 43.9297C230.383 43.7266 231.391 43.4297 232.547 43.0391C233.391 42.7578 234.086 42.4609 234.633 42.1484C235.195 41.8203 235.43 41.5234 235.336 41.2578C235.336 41.2578 235.336 41.25 235.336 41.2344C235.336 41.2344 235.328 41.2266 235.312 41.2109C235.312 41.1953 235.312 41.1875 235.312 41.1875C235.188 41.0469 234.969 40.9844 234.656 41C234.406 41.0312 234.109 41.1016 233.766 41.2109C233.75 41.2109 233.742 41.2109 233.742 41.2109C233.742 41.2266 233.742 41.2344 233.742 41.2344C233.695 41.2344 233.648 41.25 233.602 41.2812C233.602 41.2812 233.594 41.2812 233.578 41.2812C233.578 41.2812 233.57 41.2812 233.555 41.2812C233.133 41.4375 232.656 41.6719 232.125 41.9844C231.297 42.4219 230.438 42.9766 229.547 43.6484ZM268.875 44.9609C268.875 44.9766 268.875 44.9844 268.875 44.9844C267.359 45.9844 265.906 46.9531 264.516 47.8906C259.609 51.2812 255.75 53.7266 252.938 55.2266C250.641 56.3828 248.945 56.9609 247.852 56.9609C247.227 56.9609 246.766 56.7812 246.469 56.4219C246.062 55.9531 246.008 55.3125 246.305 54.5C246.305 54.4844 246.305 54.4766 246.305 54.4766C246.305 54.4609 246.305 54.4531 246.305 54.4531C246.539 53.8438 246.906 53.2188 247.406 52.5781C247.922 51.9375 248.414 51.375 248.883 50.8906C249.117 50.6562 249.359 50.3984 249.609 50.1172C249.672 50.0547 249.719 50.0078 249.75 49.9766C250.094 49.6016 250.383 49.25 250.617 48.9219C250.867 48.5781 251.008 48.3047 251.039 48.1016C251.07 47.6953 250.883 47.375 250.477 47.1406C250.07 46.9062 249.586 46.6953 249.023 46.5078C248.336 46.2891 247.719 46.0078 247.172 45.6641C246.641 45.3047 246.398 44.7812 246.445 44.0938C246.586 42.2812 248.008 40.625 250.711 39.125L250.758 39.1016C251.133 38.9141 251.477 38.8594 251.789 38.9375C252.117 39 252.344 39.1797 252.469 39.4766C252.578 39.8203 252.555 40.2656 252.398 40.8125C252.258 41.3438 251.969 41.75 251.531 42.0312L251.484 42.0547C251.125 42.2578 250.797 42.4297 250.5 42.5703C250.031 42.7734 249.648 42.9844 249.352 43.2031C249.055 43.4219 248.867 43.7031 248.789 44.0469C248.773 44.3125 249.328 44.7109 250.453 45.2422C252.141 46.0859 252.961 47.1094 252.914 48.3125C252.836 49.0156 252.469 49.7422 251.812 50.4922C251.172 51.2422 250.477 51.9688 249.727 52.6719C249.102 53.25 248.578 53.7812 248.156 54.2656C247.75 54.7344 247.578 55.1172 247.641 55.4141C248.297 56.3047 250.414 55.7578 253.992 53.7734C257.57 51.7734 262.523 48.6562 268.852 44.4219C268.852 44.4219 268.859 44.4219 268.875 44.4219C268.969 44.3594 269.055 44.3438 269.133 44.375C269.227 44.4062 269.266 44.4766 269.25 44.5859C269.234 44.6797 269.109 44.8047 268.875 44.9609ZM289.125 44.3984C289.172 44.4297 289.18 44.4844 289.148 44.5625C289.117 44.6406 289.047 44.7188 288.938 44.7969C288.922 44.7969 288.914 44.7969 288.914 44.7969C288.914 44.7969 288.914 44.8047 288.914 44.8203C284.898 47.3359 281.086 49.3438 277.477 50.8438C273.867 52.3438 271.094 53.0156 269.156 52.8594C267.891 52.7812 267 52.3516 266.484 51.5703C265.906 50.4141 266.047 48.9688 266.906 47.2344C267.156 46.75 267.43 46.2969 267.727 45.875C267.961 45.5312 268.195 45.2031 268.43 44.8906C269.508 43.6562 270.398 42.7578 271.102 42.1953C271.164 42.1328 271.219 42.0781 271.266 42.0312C271.281 42.0312 271.289 42.0234 271.289 42.0078C271.773 41.6172 272.242 41.25 272.695 40.9062C275.93 38.5625 278.297 37.6719 279.797 38.2344C280.156 38.3906 280.43 38.6328 280.617 38.9609C280.805 39.2734 280.828 39.6484 280.688 40.0859C280.484 40.6328 280.047 41.1328 279.375 41.5859C278.719 42.0391 277.938 42.4375 277.031 42.7812C275.109 43.5 273.305 44.0391 271.617 44.3984C271.414 44.4297 271.117 44.5547 270.727 44.7734C270.352 44.9766 269.953 45.2891 269.531 45.7109C269.516 45.7266 269.508 45.7344 269.508 45.7344C269.477 45.7812 269.438 45.8281 269.391 45.875C268.469 46.9062 267.867 48.0312 267.586 49.25C267.586 50.1094 267.906 50.75 268.547 51.1719C269.188 51.5781 269.953 51.7812 270.844 51.7812C272.594 51.7812 275.039 51.1328 278.18 49.8359C281.32 48.5391 284.891 46.7266 288.891 44.3984C289 44.3359 289.078 44.3359 289.125 44.3984ZM271.828 43.6484C271.703 43.7422 271.625 43.8203 271.594 43.8828C271.562 43.9453 271.633 43.9609 271.805 43.9297C272.664 43.7266 273.672 43.4297 274.828 43.0391C275.672 42.7578 276.367 42.4609 276.914 42.1484C277.477 41.8203 277.711 41.5234 277.617 41.2578C277.617 41.2578 277.617 41.25 277.617 41.2344C277.617 41.2344 277.609 41.2266 277.594 41.2109C277.594 41.1953 277.594 41.1875 277.594 41.1875C277.469 41.0469 277.25 40.9844 276.938 41C276.688 41.0312 276.391 41.1016 276.047 41.2109C276.031 41.2109 276.023 41.2109 276.023 41.2109C276.023 41.2266 276.023 41.2344 276.023 41.2344C275.977 41.2344 275.93 41.25 275.883 41.2812C275.883 41.2812 275.875 41.2812 275.859 41.2812C275.859 41.2812 275.852 41.2812 275.836 41.2812C275.414 41.4375 274.938 41.6719 274.406 41.9844C273.578 42.4219 272.719 42.9766 271.828 43.6484Z" fill="#1D1D1D"/>
</svg>
