<svg width="22" height="22" viewBox="0 0 22 22" fill="none" xmlns="http://www.w3.org/2000/svg">
<path fill-rule="evenodd" clip-rule="evenodd" d="M18.5002 3.70324C18.7602 3.42607 18.9248 3.08344 18.9565 2.75274C18.9884 2.42133 18.8843 2.129 18.668 1.94206L17.1267 0.67335C16.8907 0.542474 16.5959 0.505784 16.2846 0.570778C15.9457 0.641432 15.6092 0.827998 15.3324 1.09583L13.6743 2.95717L16.8421 5.56459L18.5002 3.70324Z" fill="black"/>
<path fill-rule="evenodd" clip-rule="evenodd" d="M12.7051 4.04688L15.8728 6.65429L6.79871 16.8406L3.63096 14.2332L12.7051 4.04688Z" fill="black"/>
<path fill-rule="evenodd" clip-rule="evenodd" d="M2.63281 15.3496L5.80057 17.957L1.89643 19.6658C1.78616 19.7019 1.67934 19.6883 1.6067 19.6285C1.53406 19.5687 1.50357 19.4694 1.52372 19.3591C1.8934 18.0226 2.2631 16.6861 2.63281 15.3496Z" fill="black"/>
<rect x="1.5" y="20.2695" width="19.7927" height="0.906586" rx="0.453293" fill="black"/>
</svg>
