<svg width="19" height="21" viewBox="0 0 19 21" fill="none" xmlns="http://www.w3.org/2000/svg">
<path d="M19 6.55123V5.83852C19 4.65811 18.0882 3.70042 16.9643 3.70042H16.2857V2.98772C16.2857 1.8073 15.3739 0.849609 14.25 0.849609H2.03571C0.91183 0.849609 0 1.8073 0 2.98772V15.8164C0 16.9968 0.91183 17.9545 2.03571 17.9545H2.71429V18.6672C2.71429 19.8476 3.62612 20.8053 4.75 20.8053H16.9643C18.0882 20.8053 19 19.8476 19 18.6672V6.55123ZM1.35714 12.6716V2.98772C1.35714 2.59573 1.6625 2.27501 2.03571 2.27501H14.25C14.6232 2.27501 14.9286 2.59573 14.9286 2.98772V9.82075L13.3763 8.19044C13.1134 7.91427 12.685 7.91427 12.4179 8.19044L9.5 11.2462L6.59062 8.18153C6.32768 7.90536 5.89933 7.90536 5.63214 8.18153L1.35714 12.6716ZM17.6429 18.6672C17.6429 19.0591 17.3375 19.3799 16.9643 19.3799H4.75C4.37679 19.3799 4.07143 19.0591 4.07143 18.6672V17.9545H14.25C15.3739 17.9545 16.2857 16.9968 16.2857 15.8164V5.12582H16.9643C17.3375 5.12582 17.6429 5.44654 17.6429 5.83852V18.6672Z" fill="white"/>
</svg>
