<svg width="19" height="20" viewBox="0 0 19 20" fill="none" xmlns="http://www.w3.org/2000/svg">
<path d="M19 5.71429V5C19 3.81696 18.0882 2.85714 16.9643 2.85714H16.2857V2.14286C16.2857 0.959821 15.3739 0 14.25 0H2.03571C0.91183 0 0 0.959821 0 2.14286V15C0 16.183 0.91183 17.1429 2.03571 17.1429H2.71429V17.8571C2.71429 19.0402 3.62612 20 4.75 20H16.9643C18.0882 20 19 19.0402 19 17.8571V5.71429ZM1.35714 11.8482V2.14286C1.35714 1.75 1.6625 1.42857 2.03571 1.42857H14.25C14.6232 1.42857 14.9286 1.75 14.9286 2.14286V8.99107L13.3763 7.35714C13.1134 7.08036 12.685 7.08036 12.4179 7.35714L9.5 10.4196L6.59062 7.34821C6.32768 7.07143 5.89933 7.07143 5.63214 7.34821L1.35714 11.8482ZM17.6429 17.8571C17.6429 18.25 17.3375 18.5714 16.9643 18.5714H4.75C4.37679 18.5714 4.07143 18.25 4.07143 17.8571V17.1429H14.25C15.3739 17.1429 16.2857 16.183 16.2857 15V4.28571H16.9643C17.3375 4.28571 17.6429 4.60714 17.6429 5V17.8571Z" fill="white"/>
</svg>
