<svg width="35" height="35" viewBox="0 0 35 35" fill="none" xmlns="http://www.w3.org/2000/svg">
<path d="M17.5 35C27.165 35 35 27.165 35 17.5C35 7.83502 27.165 0 17.5 0C7.83502 0 0 7.83502 0 17.5C0 27.165 7.83502 35 17.5 35Z" fill="black"/>
<path d="M19.2004 4.72964L22.6423 4.66797C22.959 5.80853 23.4961 6.87598 24.2233 7.80998C26.2044 10.3399 28.9695 11.0183 29.8783 11.2018L29.8506 15.8639C27.5266 15.8347 25.2684 15.0884 23.3846 13.7271C23.3846 14.2042 23.3923 14.9157 23.3923 15.7799C23.3923 16.9308 23.3877 17.5845 23.3846 18.2782C23.3654 22.5673 23.4717 23.3967 23.0948 25.0926C22.9776 25.6407 22.9159 25.9105 22.7772 26.2975C22.0526 28.3171 20.4739 29.9336 18.8643 30.7931C15.6337 32.5183 11.0632 31.8422 8.874 29.239C7.25212 27.3057 6.89521 24.2632 6.8613 23.49C6.85667 23.3921 6.85436 23.295 6.85436 23.295C6.82878 22.2415 6.97884 21.1911 7.29837 20.1869C7.62367 19.1485 8.6944 16.9801 11.1002 15.6635C12.6001 14.8536 14.3132 14.526 16.006 14.7253L15.9505 19.443C15.8549 19.4183 13.5508 18.8726 12.0376 20.4451C10.5976 21.9383 10.7749 24.4104 11.8988 25.6623C12.4431 26.2689 13.1322 26.4963 13.5947 26.6559C13.8059 26.7276 15.5134 27.2888 16.9526 26.6004C18.993 25.6253 19.2451 23.3343 19.2559 23.2148L19.2004 4.72964Z" fill="#FD2854"/>
<path d="M17.3499 3.54065L22.0306 3.51367C22.0278 3.87055 22.0777 4.22588 22.1786 4.5682C22.2665 4.86498 22.3721 5.0762 22.5524 5.43619C22.5679 5.46702 22.8061 5.9411 23.0658 6.35351C23.4004 6.88463 24.0371 7.89522 24.9668 8.64372C26.187 9.62888 27.5877 9.90716 28.4688 9.98887L28.5382 13.3105C26.9387 13.5678 25.3012 13.4437 23.7588 12.9482C22.6843 12.5986 21.6756 12.0724 20.7741 11.3911C21.3139 14.6579 21.3139 17.9912 20.7741 21.258C20.1335 25.0984 19.7319 27.502 17.5889 29.0437C14.6072 31.1851 10.3428 30.1491 8.81962 29.1917C8.30357 28.8556 7.82042 28.4716 7.37658 28.0447C6.60263 27.2939 5.98508 26.3973 5.55957 25.4066C5.13407 24.4159 4.90905 23.3507 4.8975 22.2725C4.86837 21.1558 5.05364 20.044 5.44327 18.9971C5.69534 18.3241 6.6327 15.9306 9.24514 14.4737C11.6703 13.1209 14.016 13.4246 14.7306 13.5487L14.6658 17.0407C13.8475 16.8472 13.0014 16.7999 12.1667 16.9011C11.4906 16.9844 10.8339 17.0615 10.1332 17.5024C8.75256 18.3712 8.41955 19.7703 8.36019 20.0277C8.21081 20.5319 8.18021 21.0638 8.27077 21.5818C8.29775 21.7298 8.4974 22.7589 9.3253 23.4966C9.60358 23.744 9.72307 23.7548 10.1301 24.1349C10.4893 24.4702 10.5772 24.6321 10.9071 24.9119C11.1613 25.1205 11.4352 25.3038 11.725 25.4592C12.5467 25.8901 14.0183 25.9356 15.0975 25.4114C16.5899 24.686 17.4039 23.0171 17.4008 22.0258L17.3499 3.54065Z" fill="#24F6FA"/>
<path d="M18.7102 4.74418L22.2106 4.6748C22.78 6.07428 23.6312 7.34164 24.7114 8.39805C25.7915 9.45446 27.0775 10.2773 28.4893 10.8155L28.5556 14.6273C26.2451 14.7119 23.9766 13.9936 22.1359 12.5946V22.4616C22.1127 22.8385 21.782 27.0096 18.0164 29.3037C14.2878 31.5777 10.4697 30.016 10.1105 29.8618C9.77046 29.749 9.44455 29.5974 9.13921 29.4101C6.4813 27.7697 6.37646 23.8599 6.36412 23.3095C6.33855 22.256 6.48861 21.2056 6.80814 20.2014C7.18971 18.985 8.3275 16.9337 10.61 15.678C11.8692 14.9923 13.2843 14.6439 14.7179 14.6667L14.6616 18.2311C14.4204 18.1663 12.9426 17.794 11.5011 18.7029C10.1205 19.5716 9.7875 20.9707 9.72815 21.2282C9.65723 21.552 9.51308 22.0939 9.63873 22.7822C9.79906 23.6556 10.2785 24.2237 10.5113 24.4928C10.8525 24.8879 11.2666 25.2137 11.7308 25.4525H11.7262H11.7308L11.7385 25.4587C12.0842 25.9719 12.5555 26.388 13.1076 26.6674C14.3286 27.274 15.6445 27.0042 16.4654 26.6119C18.5067 25.6398 18.7549 23.3457 18.7657 23.2263L18.7102 4.74418Z" fill="white"/>
</svg>
