<svg width="217" height="154" viewBox="0 0 217 154" fill="none" xmlns="http://www.w3.org/2000/svg">
<g clip-path="url(#clip0_896_5181)">
<path d="M29.6477 96.9008V119.474C29.2043 119.401 28.7571 119.353 28.3083 119.331C27.8589 119.344 27.4112 119.392 26.9689 119.474V96.9008C24.732 96.9069 22.4975 97.0484 20.2773 97.3248C20.3424 96.9739 20.3824 96.6188 20.3971 96.2622C20.3971 96.1245 20.3536 95.7722 20.2773 95.2051H35.9745C35.9745 95.3482 35.9636 95.5317 35.9419 95.7556C35.9419 95.9814 35.9419 96.1521 35.9419 96.2677C35.9419 96.3833 35.9419 96.565 35.9419 96.8182C35.9419 97.0715 35.9745 97.2257 35.9745 97.3688C33.8788 97.0651 31.7648 96.9087 29.6477 96.9008Z" fill="#209DD8"/>
<path d="M26.7398 119.787V97.1586C24.5866 97.1782 22.4362 97.3197 20.2986 97.5826L19.9883 97.6156L20.0482 97.2742C20.1115 96.9399 20.1497 96.6013 20.1625 96.2612C20.1431 95.9216 20.1049 95.5834 20.0482 95.2481L20.0046 94.9453H36.2027V95.2041C36.2027 95.3527 36.2027 95.5454 36.17 95.7547C36.1374 95.9639 36.1428 96.129 36.1428 96.2392C36.1428 96.3493 36.1428 96.5199 36.17 96.7457C36.1973 96.9714 36.2027 97.1751 36.2027 97.2962V97.588L35.9468 97.555C33.9345 97.2801 31.9065 97.1385 29.8759 97.1311V119.754L29.6146 119.715C29.1822 119.643 28.7458 119.597 28.3078 119.578C27.8694 119.589 27.4324 119.635 27.0011 119.715L26.7398 119.787ZM28.3078 119.082C28.6726 119.095 29.0362 119.13 29.3968 119.187V96.6135H29.6309C31.6644 96.6105 33.6959 96.741 35.7127 97.0044C35.7127 96.9384 35.7127 96.8723 35.7127 96.7952C35.7127 96.5475 35.68 96.3658 35.68 96.2447C35.68 96.1235 35.68 95.9418 35.7127 95.6941C35.7127 95.595 35.7127 95.5124 35.7127 95.4298H20.5219C20.567 95.6937 20.5943 95.9605 20.6035 96.2281C20.5985 96.4847 20.5749 96.7404 20.5328 96.9934C22.6617 96.7412 24.8031 96.6107 26.9467 96.6025H27.1753V119.148C27.5508 119.1 27.9293 119.077 28.3078 119.082Z" fill="#209DD8"/>
<path d="M76.0735 96.9008V119.474C75.6301 119.401 75.1829 119.353 74.7341 119.331C74.2847 119.344 73.837 119.392 73.3947 119.474V96.9008C71.1578 96.9069 68.9233 97.0484 66.7031 97.3248C66.7682 96.9739 66.8082 96.6188 66.8229 96.2622C66.8229 96.1245 66.7794 95.7722 66.7031 95.2051H82.4003C82.4003 95.3482 82.3894 95.5317 82.3676 95.7556C82.3676 95.9814 82.3404 96.1521 82.3404 96.2677C82.3404 96.3833 82.3404 96.565 82.3676 96.8182C82.3949 97.0715 82.4003 97.2257 82.4003 97.3688C80.3046 97.0651 78.1906 96.9087 76.0735 96.9008Z" fill="#209DD8"/>
<path d="M73.1655 119.787V97.1586C71.0124 97.1782 68.8619 97.3197 66.7244 97.5826L66.4141 97.6156L66.474 97.2742C66.5373 96.9399 66.5755 96.6013 66.5883 96.2612C66.5689 95.9216 66.5307 95.5834 66.474 95.2481L66.4304 94.9453H82.6285V95.2041C82.6285 95.3527 82.6285 95.5454 82.5958 95.7547C82.5632 95.9639 82.5958 96.129 82.5958 96.2392C82.5958 96.3493 82.5958 96.5199 82.5958 96.7457C82.5958 96.9714 82.6285 97.1751 82.6285 97.2962V97.588L82.3726 97.555C80.3603 97.2801 78.3323 97.1385 76.3017 97.1311V119.754L76.0404 119.715C75.608 119.643 75.1716 119.597 74.7336 119.578C74.2951 119.589 73.8582 119.635 73.4269 119.715L73.1655 119.787ZM74.7336 119.082C75.0984 119.095 75.462 119.13 75.8226 119.187V96.6135H76.0567C78.0902 96.6105 80.1217 96.741 82.1385 97.0044C82.1385 96.9384 82.1385 96.8723 82.1385 96.7952C82.1385 96.5475 82.1058 96.3658 82.1058 96.2447C82.1058 96.1235 82.1058 95.9418 82.1385 95.6941C82.1385 95.595 82.1385 95.5124 82.1385 95.4298H66.9477C66.9928 95.6937 67.0201 95.9605 67.0293 96.2281C67.0243 96.4847 67.0007 96.7404 66.9585 96.9934C69.0875 96.7412 71.2289 96.6107 73.3724 96.6025H73.6066V119.148C73.9803 119.1 74.3569 119.078 74.7336 119.082Z" fill="#209DD8"/>
<path d="M121.221 115.532L121.101 117.789C119.316 119.154 117.063 119.837 114.345 119.837C111.016 119.837 108.399 118.695 106.493 116.412C104.588 114.129 103.635 111.035 103.635 107.13C103.635 103.298 104.751 100.24 106.983 97.9573C109.092 95.7918 111.815 94.709 115.15 94.709C117.429 94.7097 119.673 95.2769 121.684 96.3607C121.394 97.2319 121.189 98.13 121.074 99.042L120.835 99.1135C120.325 98.407 119.683 97.8085 118.945 97.3517C117.804 96.541 116.447 96.0978 115.052 96.0799C113.806 96.0429 112.571 96.3321 111.467 96.9196C110.363 97.507 109.428 98.3727 108.753 99.4329C107.352 101.503 106.653 104.126 106.657 107.301C106.657 110.663 107.412 113.362 108.922 115.399C109.58 116.358 110.461 117.138 111.487 117.671C112.513 118.203 113.654 118.473 114.807 118.455C116.297 118.435 117.755 118.021 119.038 117.255C119.841 116.785 120.576 116.205 121.221 115.532Z" fill="#209DD8"/>
<path d="M114.345 120.096C110.969 120.096 108.268 118.918 106.33 116.594C104.392 114.271 103.406 111.089 103.406 107.13C103.406 103.171 104.555 100.088 106.826 97.7702C108.971 95.5679 111.764 94.4668 115.134 94.4668C117.438 94.4654 119.707 95.0324 121.744 96.1185L121.94 96.2231L121.864 96.4544C121.578 97.3054 121.377 98.1834 121.265 99.0751V99.2457L120.721 99.4054L120.628 99.2623C120.132 98.5845 119.513 98.0089 118.804 97.5665C117.696 96.784 116.382 96.3545 115.031 96.3332C113.822 96.3021 112.625 96.5848 111.554 97.1545C110.484 97.7241 109.576 98.5616 108.916 99.5871C107.555 101.597 106.864 104.195 106.864 107.295C106.864 110.598 107.61 113.252 109.08 115.229C109.72 116.155 110.574 116.909 111.569 117.425C112.564 117.94 113.668 118.201 114.786 118.185C116.239 118.166 117.662 117.762 118.913 117.013C119.711 116.567 120.444 116.011 121.091 115.361L121.515 114.926L121.352 117.954L121.254 118.026C119.242 119.472 116.811 120.2 114.345 120.096ZM115.134 94.9733C111.867 94.9733 109.194 96.0414 107.136 98.1501C104.958 100.352 103.869 103.392 103.869 107.13C103.869 110.868 104.806 114.012 106.662 116.236C108.519 118.461 111.1 119.578 114.345 119.578C116.672 119.667 118.965 118.989 120.878 117.646L120.966 116.126C120.393 116.632 119.77 117.079 119.109 117.459C117.788 118.246 116.286 118.67 114.753 118.686C113.566 118.703 112.393 118.425 111.336 117.877C110.28 117.329 109.372 116.527 108.693 115.543C107.152 113.467 106.368 110.687 106.368 107.284C106.368 104.063 107.092 101.365 108.519 99.2567C109.215 98.167 110.177 97.2766 111.311 96.6711C112.446 96.0656 113.716 95.7653 114.998 95.7992C116.435 95.8197 117.833 96.2762 119.011 97.1095C119.704 97.5536 120.319 98.1119 120.829 98.7612C120.936 97.9924 121.106 97.2337 121.336 96.4929C119.416 95.498 117.291 94.9773 115.134 94.9733Z" fill="#209DD8"/>
<path d="M161.746 95.2049V116.517C161.834 118.455 161.257 120.363 160.112 121.919C159.576 122.622 158.883 123.187 158.091 123.57C157.298 123.952 156.428 124.141 155.55 124.121L155.305 123.201C155.986 123.21 156.653 123.008 157.218 122.624C157.783 122.239 158.219 121.69 158.468 121.049C158.941 119.632 159.148 118.138 159.078 116.644V95.1719C159.52 95.2538 159.968 95.3016 160.417 95.315C160.862 95.3042 161.305 95.2675 161.746 95.2049Z" fill="#209DD8"/>
<path d="M155.366 124.407L154.99 122.976H155.29C155.927 122.988 156.552 122.803 157.082 122.444C157.612 122.086 158.02 121.572 158.252 120.972C158.709 119.587 158.908 118.129 158.84 116.672V94.9297L159.101 94.9737C159.532 95.0538 159.969 95.0998 160.408 95.1114C160.847 95.0924 161.286 95.0464 161.72 94.9737L161.976 94.9352V116.545C162.06 118.546 161.46 120.516 160.277 122.122C159.72 122.854 159.002 123.444 158.179 123.844C157.357 124.245 156.453 124.445 155.54 124.429L155.366 124.407ZM155.6 123.466L155.709 123.879C156.526 123.87 157.33 123.674 158.061 123.305C158.792 122.936 159.431 122.403 159.929 121.748C161.039 120.242 161.6 118.394 161.518 116.518V95.4803C161.158 95.5365 160.794 95.5714 160.43 95.5849C160.065 95.5767 159.701 95.5436 159.341 95.4858V116.639C159.409 118.172 159.195 119.705 158.709 121.159C158.465 121.805 158.041 122.366 157.49 122.775C156.939 123.184 156.283 123.424 155.6 123.466Z" fill="#209DD8"/>
<path d="M198.499 115.532L198.379 117.789C196.593 119.154 194.341 119.837 191.622 119.837C188.293 119.837 185.678 118.695 183.776 116.412C181.874 114.129 180.919 111.035 180.912 107.13C180.912 103.298 182.028 100.24 184.261 97.9573C186.37 95.7918 189.092 94.709 192.428 94.709C194.707 94.7097 196.95 95.2769 198.961 96.3607C198.673 97.2321 198.471 98.1302 198.357 99.042L198.112 99.1135C197.602 98.407 196.96 97.8085 196.223 97.3517C195.079 96.5181 193.712 96.0572 192.303 96.0303C191.056 95.9934 189.821 96.2826 188.717 96.87C187.613 97.4575 186.679 98.3232 186.003 99.3833C184.602 101.453 183.903 104.076 183.907 107.251C183.907 110.613 184.662 113.313 186.172 115.35C186.83 116.308 187.711 117.088 188.737 117.621C189.764 118.154 190.904 118.423 192.057 118.406C193.547 118.386 195.006 117.972 196.288 117.205C197.098 116.753 197.841 116.19 198.499 115.532Z" fill="#209DD8"/>
<path d="M191.622 120.096C188.246 120.096 185.546 118.918 183.607 116.594C181.669 114.271 180.684 111.089 180.684 107.13C180.684 103.171 181.832 100.088 184.103 97.7702C186.248 95.5679 189.041 94.4668 192.412 94.4668C194.715 94.4654 196.984 95.0324 199.021 96.1185L199.217 96.2231L199.141 96.4544C198.857 97.3059 198.656 98.1837 198.542 99.0751V99.2457L197.998 99.4054L197.905 99.2623C197.412 98.5845 196.795 98.0089 196.087 97.5665C194.976 96.7848 193.661 96.3554 192.308 96.3332C191.099 96.3021 189.902 96.5848 188.832 97.1545C187.761 97.7241 186.853 98.5616 186.194 99.5871C184.832 101.597 184.141 104.195 184.141 107.295C184.141 110.598 184.887 113.252 186.357 115.229C186.997 116.155 187.852 116.909 188.846 117.425C189.841 117.94 190.946 118.201 192.063 118.185C193.517 118.166 194.94 117.762 196.19 117.013C196.989 116.567 197.722 116.011 198.368 115.361L198.793 114.926L198.629 117.954L198.531 118.026C196.519 119.472 194.089 120.2 191.622 120.096ZM192.412 94.9733C189.145 94.9733 186.471 96.0414 184.413 98.1501C182.235 100.352 181.146 103.392 181.146 107.13C181.146 110.868 182.083 114.012 183.94 116.236C185.796 118.461 188.377 119.578 191.622 119.578C193.949 119.665 196.242 118.987 198.156 117.646L198.237 116.126C197.664 116.632 197.042 117.079 196.381 117.459C195.06 118.246 193.558 118.67 192.025 118.686C190.838 118.703 189.665 118.425 188.608 117.877C187.552 117.329 186.644 116.527 185.965 115.543C184.424 113.467 183.64 110.687 183.64 107.284C183.64 104.063 184.364 101.365 185.791 99.2567C186.487 98.167 187.449 97.2766 188.583 96.6711C189.718 96.0656 190.987 95.7653 192.27 95.7992C193.707 95.8197 195.105 96.2762 196.283 97.1095C196.976 97.5536 197.591 98.1119 198.101 98.7612C198.209 97.992 198.38 97.2332 198.613 96.4929C196.693 95.4994 194.568 94.9787 192.412 94.9733Z" fill="#209DD8"/>
<path d="M16.2579 104.003V108.408C16.2579 114.904 14.0673 118.151 9.68615 118.147C7.17068 118.147 5.39569 117.36 4.36119 115.785C3.41018 114.347 2.93286 112.005 2.92923 108.76V95.2051C2.48768 95.2788 2.04228 95.3266 1.59526 95.3482C1.14586 95.3348 0.698104 95.287 0.255859 95.2051V109.322C0.255859 113.088 0.981824 115.745 2.43375 117.294C4.03451 118.99 6.24507 119.838 9.06545 119.838C11.806 119.838 13.9712 118.92 15.561 117.085C17.1509 115.249 17.9513 112.636 17.9622 109.245V103.998L16.2579 104.003Z" fill="#209DD8"/>
<path d="M9.07608 120.096C6.21215 120.096 3.92536 119.221 2.2865 117.487C0.783749 115.89 0.0214844 113.143 0.0214844 109.322V94.9297L0.288275 94.9737C0.719595 95.0543 1.15653 95.1003 1.59501 95.1114C2.03295 95.0923 2.46933 95.0463 2.90175 94.9737L3.1631 94.9352V108.782C3.1631 111.959 3.6259 114.288 4.54606 115.648C5.53156 117.151 7.26843 117.91 9.68589 117.91C13.9546 117.91 16.029 114.811 16.029 108.43V103.739H18.2069V109.245C18.2069 112.708 17.3847 115.416 15.7513 117.277C14.1179 119.138 11.8638 120.096 9.07608 120.096ZM0.484286 95.5078V109.322C0.484286 112.994 1.19755 115.615 2.60229 117.107C4.15404 118.758 6.33194 119.579 9.07608 119.579C11.7386 119.579 13.8675 118.681 15.4083 116.919C16.9492 115.158 17.7332 112.575 17.7332 109.25V104.289H16.4864V108.43C16.4864 115.037 14.1996 118.434 9.68589 118.434C7.10509 118.434 5.25388 117.602 4.17582 115.961C3.19577 114.491 2.70029 112.074 2.70029 108.804V95.4803C2.33964 95.5366 1.97604 95.5715 1.61135 95.5849C1.23435 95.5855 0.857763 95.5598 0.484286 95.5078Z" fill="#209DD8"/>
<path d="M92.1196 96.8999H96.7694C97.6899 96.9349 98.6034 97.0772 99.4918 97.3239C99.4918 97.2028 99.4809 97.0193 99.4591 96.7733C99.4591 96.5366 99.4319 96.3604 99.4319 96.2228C99.4319 96.0851 99.4319 95.9365 99.4591 95.7107C99.4863 95.485 99.4918 95.3088 99.4918 95.1602H86.0215V96.8559H92.1196V96.8999Z" fill="#209DD8"/>
<path d="M99.7427 97.6822L99.4596 97.6051C98.5819 97.3614 97.6794 97.221 96.7699 97.1867H85.7715V94.9844H99.7427V95.2431C99.7427 95.3918 99.7427 95.5845 99.71 95.7937C99.6773 96.0029 99.6828 96.1681 99.6828 96.2782C99.6828 96.3883 99.6828 96.559 99.71 96.7847C99.7372 97.0105 99.7427 97.2142 99.7427 97.3353V97.6822ZM86.2343 96.6636H96.7753C97.6161 96.696 98.4516 96.8141 99.269 97.016C99.269 96.9664 99.269 96.9059 99.269 96.8453C99.269 96.5975 99.2363 96.4158 99.2363 96.2947C99.2363 96.1736 99.2363 95.9919 99.269 95.7442C99.269 95.6451 99.269 95.5625 99.269 95.4799H86.2506L86.2343 96.6636Z" fill="#209DD8"/>
<path d="M99.6497 118.214C99.6497 118.096 99.6606 117.913 99.6823 117.663C99.6823 117.426 99.7096 117.25 99.7096 117.113C98.7843 117.272 97.8492 117.366 96.911 117.393C96.4863 117.393 95.4173 117.428 93.704 117.498C91.9907 117.568 90.7475 117.604 89.9744 117.608C89.7947 117.608 89.5551 117.608 89.2611 117.57L88.7166 117.537V107.274H96.1378L98.8602 107.489C98.7785 106.938 98.7404 106.591 98.7404 106.498C98.7488 106.188 98.7889 105.88 98.8602 105.578C98.5553 105.578 98.0979 105.606 97.4881 105.65L96.8347 105.694H86.0215V119.271H99.7096C99.7096 119.155 99.7096 118.979 99.6823 118.72C99.6551 118.461 99.6497 118.329 99.6497 118.214Z" fill="#209DD8"/>
<path d="M99.9434 119.534H85.7871V105.434H96.8345L97.477 105.39C98.0813 105.34 98.5659 105.318 98.8599 105.318H99.154L99.0832 105.643C99.0163 105.923 98.978 106.209 98.9688 106.497C98.9688 106.535 98.9688 106.7 99.0886 107.444L99.1322 107.768L96.1049 107.532H88.9287V117.326L89.2772 117.354C89.5658 117.354 89.7944 117.387 89.9741 117.387C90.7418 117.387 91.9941 117.354 93.6929 117.282C95.3916 117.211 96.4806 117.178 96.9107 117.178C97.8399 117.15 98.766 117.056 99.6821 116.897L99.9434 116.858V117.156C99.9434 117.277 99.9434 117.464 99.9108 117.706C99.8781 117.948 99.8836 118.103 99.8836 118.213C99.8836 118.323 99.8836 118.494 99.9108 118.719C99.938 118.945 99.9434 119.149 99.9434 119.27V119.534ZM86.2499 119.011H99.4698C99.4698 118.939 99.4698 118.857 99.4698 118.769C99.4698 118.521 99.4371 118.339 99.4371 118.218C99.4371 118.097 99.4371 117.91 99.4698 117.668V117.464C98.6234 117.605 97.7683 117.686 96.9107 117.706C96.486 117.706 95.408 117.745 93.7092 117.816C92.0105 117.888 90.7473 117.921 89.9741 117.921C89.789 117.921 89.544 117.921 89.2445 117.882L88.7001 117.849H88.4659V107.042H96.1212L98.5877 107.229C98.5477 106.996 98.5204 106.76 98.506 106.524C98.5096 106.306 98.5315 106.089 98.5714 105.874C98.2937 105.874 97.9343 105.902 97.4824 105.935L96.8236 105.985H86.2499V119.011Z" fill="#209DD8"/>
<path d="M39.9965 105.077C40.1504 102.965 40.7659 100.913 41.7987 99.0705C43.0837 96.9178 44.8587 95.8387 47.1073 95.8387C49.356 95.8387 51.082 96.9949 52.3996 99.3018C53.3333 101.088 53.8668 103.059 53.9623 105.077H56.5213C56.2672 101.939 55.269 99.4358 53.5267 97.5675C52.6702 96.6364 51.6278 95.9001 50.4685 95.4075C49.3092 94.9148 48.0595 94.6771 46.8024 94.71C45.4955 94.6929 44.2034 94.9918 43.0338 95.5817C41.8642 96.1716 40.8509 97.0355 40.0782 98.1016C38.5528 100.122 37.636 102.544 37.4375 105.077H39.9965Z" fill="#209DD8"/>
<path d="M56.7785 105.335H53.7567V105.098C53.6623 103.121 53.142 101.19 52.2321 99.4379C50.9635 97.2357 49.2484 96.1015 47.1304 96.1015C45.0124 96.1015 43.2483 97.1476 42.0124 99.2122C41.0041 101.021 40.4018 103.033 40.2483 105.103L40.221 105.335H37.1992L37.2319 105.043C37.446 102.455 38.3909 99.984 39.9543 97.9239C40.7485 96.8336 41.7878 95.95 42.9863 95.346C44.1848 94.7419 45.5082 94.4347 46.8473 94.4498C48.1339 94.4194 49.4122 94.6646 50.5984 95.1694C51.7845 95.6743 52.8516 96.4272 53.7294 97.3788C55.499 99.2728 56.5335 101.849 56.8003 105.048L56.7785 105.335ZM54.1759 104.812H56.2667C55.9781 101.877 55.0035 99.504 53.3701 97.7587C52.5314 96.8529 51.5129 96.1365 50.3813 95.6564C49.2497 95.1763 48.0305 94.9433 46.8037 94.9728C45.5339 94.9615 44.2795 95.255 43.1437 95.8293C42.0078 96.4036 41.023 97.2422 40.2701 98.2762C38.8277 100.18 37.9378 102.453 37.7001 104.839H39.7909C39.9741 102.767 40.5942 100.758 41.6095 98.9479C42.938 96.7457 44.7837 95.606 47.1086 95.606C49.4335 95.606 51.2412 96.8117 52.5969 99.1847C53.5155 100.934 54.0538 102.862 54.1759 104.839V104.812Z" fill="#209DD8"/>
<path d="M53.9398 109.477C53.7379 111.269 53.2158 113.01 52.3989 114.613C51.0414 117.297 49.1956 118.638 46.8616 118.638C44.858 118.638 43.2245 117.709 41.9614 115.852C40.8289 114.228 40.17 112.097 39.9686 109.477H37.4531C37.6222 111.973 38.4784 114.372 39.925 116.403C40.6973 117.496 41.7219 118.383 42.9098 118.986C44.0978 119.588 45.4131 119.888 46.7418 119.86C48.1255 119.884 49.4942 119.568 50.7313 118.941C51.9685 118.314 53.0375 117.394 53.8472 116.26C55.3001 114.285 56.1941 111.948 56.4335 109.499L53.9398 109.477Z" fill="#209DD8"/>
<path d="M46.7438 120.096C45.3821 120.119 44.035 119.809 42.8176 119.191C41.6002 118.574 40.5487 117.668 39.7528 116.55C38.2724 114.485 37.3884 112.046 37.1992 109.503V109.211H40.1829V109.453C40.3789 112.024 41.0378 114.122 42.1267 115.686C43.3572 117.47 44.9525 118.378 46.8745 118.378C49.1395 118.378 50.8873 117.101 52.2158 114.485C53.013 112.909 53.5239 111.201 53.724 109.442V109.211H56.7295L56.6914 109.508C56.4286 112.009 55.501 114.391 54.0071 116.401C53.1777 117.56 52.0849 118.501 50.8209 119.144C49.5569 119.787 48.1586 120.113 46.7438 120.096ZM37.6729 109.734C37.8842 112.074 38.7198 114.312 40.0904 116.209C40.8448 117.271 41.8428 118.133 42.9987 118.72C44.1547 119.306 45.4342 119.601 46.7275 119.578C48.0766 119.597 49.4103 119.287 50.6165 118.676C51.8227 118.065 52.866 117.17 53.6587 116.066C55.0213 114.211 55.8809 112.028 56.1524 109.734H54.1269C53.9024 111.481 53.3811 113.176 52.586 114.744C51.1922 117.497 49.2593 118.895 46.8473 118.895C44.7783 118.895 43.036 117.926 41.7401 116.01C40.5315 114.135 39.8329 111.97 39.7147 109.734H37.6729Z" fill="#209DD8"/>
<path d="M168.732 99.8847C168.787 98.9154 169.192 98.0002 169.87 97.3136C170.211 96.9441 170.626 96.652 171.087 96.4565C171.547 96.261 172.044 96.1665 172.544 96.1794C174.391 96.1794 175.649 97.2163 176.317 99.2901H176.622C176.846 98.3075 177.131 97.3402 177.477 96.3941C176.904 95.8253 176.222 95.3813 175.473 95.0896C174.723 94.7979 173.923 94.6648 173.121 94.6984C171.388 94.6197 169.691 95.2102 168.373 96.3501C167.372 97.2762 166.712 98.5185 166.5 99.8737L168.732 99.8847Z" fill="#209DD8"/>
<path d="M168.939 100.155H166.217L166.271 99.8416C166.492 98.4285 167.181 97.1334 168.226 96.1692C169.586 94.9903 171.337 94.3765 173.126 94.4514C173.961 94.4148 174.795 94.5523 175.575 94.8554C176.355 95.1585 177.066 95.6207 177.662 96.2133L177.787 96.3399L177.716 96.5106C177.38 97.4451 177.1 98.3993 176.878 99.3681L176.829 99.5608H176.192L176.137 99.3901C175.495 97.4135 174.335 96.4555 172.576 96.4555C172.107 96.4437 171.641 96.5316 171.207 96.7137C170.774 96.8958 170.383 97.168 170.061 97.5126C169.416 98.1509 169.028 99.008 168.972 99.9186L168.939 100.155ZM166.761 99.6323H168.525C168.631 98.6861 169.049 97.8035 169.712 97.1272C170.075 96.7387 170.515 96.4316 171.002 96.2257C171.49 96.0199 172.015 95.92 172.544 95.9325C174.422 95.9325 175.74 96.9621 176.458 98.9882C176.661 98.1387 176.908 97.3006 177.199 96.4775C176.08 95.4486 174.604 94.9084 173.094 94.9745C171.415 94.902 169.771 95.4743 168.493 96.5767C167.612 97.386 167.007 98.4551 166.761 99.6323Z" fill="#209DD8"/>
<path d="M175.832 106.888C174.289 106.11 172.749 105.32 171.21 104.52C171.084 104.449 170.975 104.366 170.861 104.289H166.892C167.312 105.219 167.972 106.018 168.803 106.601C170.346 107.38 171.888 108.169 173.431 108.969C174.183 109.363 174.811 109.962 175.246 110.697C175.681 111.432 175.904 112.275 175.892 113.131C175.924 114.449 175.494 115.737 174.678 116.765C174.324 117.241 173.864 117.627 173.335 117.891C172.806 118.155 172.224 118.29 171.634 118.285C169.663 118.285 168.021 117.06 166.707 114.612H166.402C166.307 115.661 166.125 116.7 165.857 117.717C166.471 118.443 167.272 118.98 168.171 119.27C169 119.621 169.887 119.808 170.785 119.821C171.771 119.853 172.754 119.678 173.67 119.307C174.586 118.937 175.417 118.379 176.11 117.668C177.591 116.165 178.331 114.172 178.331 111.705C178.363 110.752 178.149 109.807 177.711 108.963C177.273 108.118 176.626 107.403 175.832 106.888Z" fill="#209DD8"/>
<path d="M170.779 120.095C169.856 120.086 168.943 119.899 168.089 119.545C167.149 119.232 166.313 118.66 165.677 117.893L165.59 117.783L165.633 117.64C165.897 116.638 166.079 115.616 166.178 114.584L166.205 114.358H166.837L166.907 114.485C168.176 116.836 169.766 118.025 171.639 118.025C172.195 118.033 172.745 117.907 173.244 117.658C173.743 117.41 174.176 117.045 174.508 116.594C175.285 115.615 175.695 114.391 175.668 113.136C175.681 112.325 175.468 111.526 175.054 110.831C174.64 110.136 174.042 109.573 173.327 109.205C171.797 108.412 170.256 107.619 168.715 106.849C167.837 106.237 167.138 105.396 166.695 104.415L166.526 104.035H170.931L171.073 104.129C171.151 104.188 171.233 104.243 171.318 104.294C172.846 105.087 174.383 105.872 175.929 106.65H175.957C176.789 107.192 177.467 107.943 177.924 108.831C178.381 109.718 178.602 110.71 178.565 111.71C178.612 112.84 178.433 113.968 178.038 115.025C177.643 116.083 177.041 117.049 176.267 117.865C175.553 118.599 174.697 119.175 173.753 119.559C172.808 119.943 171.796 120.125 170.779 120.095ZM166.113 117.656C166.696 118.285 167.426 118.756 168.236 119.027C169.529 119.576 170.954 119.724 172.331 119.453C173.707 119.181 174.973 118.502 175.968 117.502C176.691 116.736 177.253 115.83 177.622 114.838C177.99 113.847 178.157 112.79 178.113 111.732C178.152 110.822 177.954 109.917 177.537 109.108C177.12 108.3 176.5 107.618 175.739 107.129C174.203 106.355 172.666 105.568 171.127 104.767C171.018 104.707 170.931 104.641 170.839 104.58H170.811H167.305C167.703 105.309 168.262 105.934 168.938 106.408C170.452 107.168 171.993 107.955 173.534 108.759C174.329 109.177 174.994 109.81 175.453 110.588C175.913 111.366 176.149 112.258 176.136 113.164C176.166 114.546 175.713 115.895 174.857 116.974C174.482 117.475 173.996 117.881 173.438 118.159C172.88 118.437 172.266 118.58 171.644 118.576C169.641 118.576 167.947 117.353 166.608 114.947C166.507 115.861 166.342 116.767 166.113 117.656Z" fill="#209DD8"/>
<path d="M128.337 95.2051C127.896 95.2788 127.45 95.3266 127.003 95.3482C126.554 95.3348 126.106 95.287 125.664 95.2051V119.43C126.106 119.348 126.554 119.3 127.003 119.287C127.45 119.309 127.896 119.356 128.337 119.43V95.2051Z" fill="#209DD8"/>
<path d="M125.43 119.705V94.9297L125.696 94.9737C126.128 95.0543 126.565 95.1003 127.003 95.1114C127.441 95.0921 127.878 95.0461 128.31 94.9737L128.599 94.9297V119.705L128.337 119.667C127.905 119.594 127.468 119.548 127.03 119.529C126.592 119.54 126.155 119.586 125.724 119.667L125.43 119.705ZM127.003 119.001C127.368 119.014 127.732 119.049 128.092 119.105V95.4803C127.732 95.5366 127.368 95.5715 127.003 95.5849C126.638 95.5765 126.275 95.5434 125.914 95.4858V119.094C126.275 119.04 126.639 119.012 127.003 119.012V119.001Z" fill="#209DD8"/>
<path d="M142.516 95.3482C142.068 95.3345 141.622 95.2867 141.182 95.2051V105.391C138.256 105.486 136.126 105.534 134.79 105.534C134.098 105.534 133.211 105.534 132.133 105.495V107.147C133.222 107.147 134.098 107.114 134.79 107.114C136.129 107.114 138.26 107.16 141.182 107.252V119.463C141.622 119.382 142.068 119.334 142.516 119.32C142.965 119.341 143.412 119.389 143.855 119.463V95.2381C143.411 95.3011 142.964 95.3379 142.516 95.3482Z" fill="#209DD8"/>
<path d="M140.948 119.705V107.455C138.154 107.367 136.08 107.323 134.79 107.323C134.098 107.323 133.216 107.323 132.138 107.356H131.898V105.203H132.138C133.227 105.203 134.098 105.236 134.79 105.236C136.075 105.236 138.149 105.192 140.948 105.104V94.9292L141.214 94.9732C141.644 95.0535 142.079 95.0995 142.516 95.1109C142.962 95.0779 143.405 95.0173 143.844 94.9292L144.106 94.8906V119.666L143.844 119.628C143.41 119.555 142.972 119.509 142.532 119.49C142.095 119.501 141.66 119.547 141.231 119.628L140.948 119.705ZM142.516 119C142.88 119.013 143.244 119.048 143.605 119.105V95.4797C143.244 95.5361 142.88 95.5711 142.516 95.5843C142.151 95.5762 141.787 95.5431 141.427 95.4852V105.599H141.203C138.242 105.698 136.151 105.742 134.806 105.742C134.163 105.742 133.352 105.742 132.378 105.709V106.81C133.352 106.81 134.163 106.777 134.806 106.777C136.134 106.777 138.285 106.827 141.203 106.921H141.427V119.088C141.787 119.035 142.151 119.01 142.516 119.011V119Z" fill="#209DD8"/>
<path d="M40.6726 137.405H45.7308V137.873H40.6726V154.005H40.2642V137.873H35.168V137.389H40.6726V137.405Z" fill="#209DD8"/>
<path d="M40.9389 154.006H39.9752V137.874H34.8789V136.916H45.9971V137.874H40.9389V154.006ZM40.5305 137.423H45.4308H35.4234H40.5305Z" fill="#209DD8"/>
<path d="M46.9297 148.141C46.9297 144.871 48.8408 142.283 51.1548 142.283C52.7447 142.283 54.1494 143.61 54.8137 145.587V142.283H55.2166V154.005H54.8137V150.701C54.1494 152.667 52.7447 154.005 51.1548 154.005C48.8626 154.005 46.9297 151.417 46.9297 148.141ZM47.3326 148.141C47.3326 151.12 49.0422 153.515 51.1439 153.515C53.153 153.515 54.8028 151.098 54.8028 148.141C54.8028 145.185 53.1694 142.773 51.1439 142.773C49.064 142.773 47.3544 145.168 47.3544 148.141H47.3326Z" fill="#209DD8"/>
<path d="M55.5157 154.006H54.5519V151.76C53.7407 153.169 52.5156 154.006 51.1708 154.006C48.688 154.006 46.668 151.253 46.668 147.911C46.668 144.569 48.688 141.816 51.1708 141.816C52.5156 141.816 53.7407 142.648 54.5519 144.057V141.816H55.5102L55.5157 154.006ZM50.2996 153.395C50.8671 153.585 51.4799 153.585 52.0474 153.395C51.477 153.565 50.87 153.565 50.2996 153.395ZM51.1762 142.774C49.2215 142.774 47.6317 145.076 47.6317 147.911C47.6317 150.747 49.2215 153.043 51.1762 153.043C53.0056 153.043 54.5574 150.692 54.5574 147.911C54.5574 145.131 53.0056 142.774 51.1762 142.774ZM51.1762 142.301C51.4759 142.301 51.7736 142.349 52.0582 142.444C51.4842 142.249 50.8627 142.249 50.2887 142.444C50.5754 142.347 50.8742 142.291 51.1762 142.279V142.301Z" fill="#209DD8"/>
<path d="M60.3438 148.39H58.9064V154.006H58.498V137.158H58.9064V147.9H60.3547L65.4401 142.361L65.5 142.284H66.1098L65.7232 142.702L60.7032 148.142L65.7232 153.587L66.1098 154.006H65.5L65.4401 153.929L60.3438 148.39Z" fill="#209DD8"/>
<path d="M66.6993 154.005H65.3762L65.2292 153.829L60.2092 148.389H59.1747V154.005H58.2109V136.689H59.1747V147.426H60.2092L65.3762 141.815H66.6993L65.986 142.614L61.0858 147.91L66.6993 154.005ZM58.7663 147.916H60.3725H58.7663Z" fill="#209DD8"/>
<path d="M75.4696 151.342L75.7963 151.633C75.4231 152.352 74.8623 152.952 74.175 153.371C73.4877 153.789 72.7001 154.009 71.8979 154.006C69.4151 154.006 67.4277 151.419 67.4277 148.143C67.4277 144.867 69.4151 142.279 71.8979 142.279C74.3807 142.279 76.3626 144.867 76.3626 148.137V148.385H67.8361C67.9287 151.248 69.6819 153.511 71.8979 153.511C72.6321 153.512 73.3527 153.311 73.9821 152.929C74.6115 152.546 75.1258 151.998 75.4696 151.342ZM67.847 147.901H75.9705C75.9705 145.148 74.1629 142.775 71.9088 142.775C69.6546 142.775 67.9287 145.032 67.8361 147.901H67.847Z" fill="#209DD8"/>
<path d="M71.9741 154.006C69.2844 154.006 67.1719 151.352 67.1719 147.905C67.1719 144.459 69.2572 141.811 71.9197 141.811C74.5822 141.811 76.662 144.563 76.662 147.905V148.39H68.1247C68.3044 151.016 69.9269 153.042 71.8979 153.042C72.5844 153.04 73.2574 152.848 73.8438 152.487C74.4302 152.126 74.9077 151.61 75.2246 150.994L75.4043 150.702L76.1339 151.357L76.0413 151.506C75.0504 153.163 73.6729 154.006 71.9741 154.006ZM71.0376 153.406C71.3405 153.492 71.654 153.535 71.9687 153.532C72.3708 153.534 72.7709 153.475 73.1556 153.356C72.752 153.472 72.3336 153.525 71.9142 153.516C71.6114 153.517 71.3096 153.48 71.0159 153.406H71.0376ZM67.7272 147.9H76.1067H67.7055H67.7272ZM68.1465 147.41H75.6765C75.5785 144.866 73.8852 142.758 71.8979 142.758C69.9106 142.758 68.3044 144.8 68.1247 147.426L68.1465 147.41ZM71.9197 142.284C72.3205 142.287 72.718 142.358 73.0957 142.493C72.4272 142.233 71.6926 142.202 71.005 142.405C71.2963 142.326 71.5962 142.283 71.8979 142.279L71.9197 142.284Z" fill="#209DD8"/>
<path d="M87.5352 137.648V137.428H87.9816V137.67V148.731C87.9517 149.343 88.0452 149.955 88.2563 150.53C88.4675 151.105 88.7919 151.63 89.21 152.074C89.628 152.518 90.1309 152.872 90.6882 153.114C91.2454 153.355 91.8454 153.48 92.4518 153.48C93.0581 153.48 93.6581 153.355 94.2153 153.114C94.7726 152.872 95.2755 152.518 95.6935 152.074C96.1116 151.63 96.436 151.105 96.6472 150.53C96.8583 149.955 96.9518 149.343 96.9219 148.731V137.428H97.3683V137.67V148.731C97.3683 151.61 95.1905 154.005 92.4681 154.005C89.7457 154.005 87.5678 151.61 87.5678 148.731L87.5352 137.648Z" fill="#209DD8"/>
<path d="M92.4137 154.006C91.0089 153.964 89.6778 153.361 88.7115 152.329C87.7451 151.298 87.2224 149.921 87.2575 148.5V136.938H88.3084L88.2648 137.439V148.478C88.2233 149.06 88.3008 149.645 88.4927 150.196C88.6846 150.747 88.9866 151.252 89.38 151.679C89.7734 152.107 90.2496 152.448 90.7791 152.681C91.3085 152.914 91.8798 153.034 92.4572 153.034C93.0347 153.034 93.606 152.914 94.1354 152.681C94.6649 152.448 95.1411 152.107 95.5345 151.679C95.9279 151.252 96.2299 150.747 96.4218 150.196C96.6136 149.645 96.6912 149.06 96.6497 148.478V136.916H97.6679L97.6297 137.417V148.456C97.6537 149.168 97.5372 149.878 97.2869 150.544C97.0367 151.211 96.6577 151.82 96.1722 152.336C95.6866 152.853 95.1042 153.267 94.459 153.553C93.8137 153.84 93.1184 153.994 92.4137 154.006ZM90.9981 153.29C91.9144 153.604 92.9075 153.604 93.8239 153.29C92.904 153.582 91.9179 153.582 90.9981 153.29Z" fill="#209DD8"/>
<path d="M101.512 142.774V150.928C101.512 152.635 102.601 153.516 104.398 153.516H104.599V154.006H104.398C102.264 154.006 101.131 152.905 101.131 150.928V142.774H99.3398V142.279H101.131V139.471H101.534V142.279H104.621V142.769H101.534L101.512 142.774Z" fill="#209DD8"/>
<path d="M104.876 154.005H104.397C102.153 154.005 100.852 152.794 100.83 150.702V142.774H99.0391V141.816H100.83V139.008H101.789V141.816H104.876V142.774H101.789V150.691C101.789 152.227 102.709 153.042 104.397 153.042H104.876V154.005ZM102.698 153.185C103.209 153.426 103.768 153.544 104.331 153.532C103.771 153.533 103.216 153.414 102.703 153.185H102.698ZM101.375 142.278H104.31H99.5835H101.375Z" fill="#209DD8"/>
<path d="M105.818 148.141C105.818 144.871 107.849 142.283 110.288 142.283C112.728 142.283 114.759 144.871 114.759 148.141C114.759 151.412 112.75 154.005 110.288 154.005C107.827 154.005 105.818 151.417 105.818 148.141ZM106.227 148.141C106.227 151.12 108.056 153.515 110.288 153.515C112.521 153.515 114.35 151.12 114.35 148.141C114.35 145.163 112.543 142.773 110.288 142.773C108.034 142.773 106.227 145.168 106.227 148.141Z" fill="#209DD8"/>
<path d="M110.289 154.006C107.67 154.006 105.541 151.253 105.541 147.911C105.541 144.569 107.67 141.816 110.289 141.816C112.908 141.816 115.037 144.569 115.037 147.911C115.037 151.253 112.908 154.006 110.289 154.006ZM109.113 153.29C109.79 153.555 110.535 153.584 111.231 153.373C110.533 153.561 109.795 153.532 109.113 153.29ZM110.289 142.758C108.203 142.758 106.505 145.059 106.505 147.895C106.505 150.73 108.203 153.026 110.289 153.026C112.374 153.026 114.073 150.725 114.073 147.895C114.073 145.065 112.374 142.774 110.289 142.774V142.758ZM110.289 142.268C109.881 142.269 109.476 142.347 109.096 142.499C109.789 142.252 110.538 142.223 111.247 142.417C110.936 142.324 110.613 142.277 110.289 142.279V142.268Z" fill="#209DD8"/>
<path d="M123.861 153.52V153.768H123.458V137.411C123.453 137.362 123.465 137.313 123.493 137.273C123.521 137.233 123.562 137.204 123.609 137.192C123.656 137.18 123.706 137.185 123.749 137.207C123.792 137.229 123.826 137.266 123.845 137.312L129.752 152.937L135.643 137.323C135.662 137.277 135.696 137.24 135.739 137.218C135.783 137.196 135.832 137.191 135.879 137.203C135.926 137.215 135.967 137.244 135.995 137.284C136.023 137.324 136.035 137.373 136.03 137.422V153.531V153.779H135.622V153.531V138.545L129.932 153.63C129.918 153.668 129.892 153.699 129.86 153.722C129.827 153.744 129.789 153.756 129.75 153.756C129.71 153.756 129.672 153.744 129.639 153.722C129.607 153.699 129.582 153.668 129.567 153.63L123.861 138.534V153.52Z" fill="#209DD8"/>
<path d="M136.332 154.005H135.368V140.037L130.217 153.691C130.182 153.781 130.121 153.857 130.04 153.909C129.96 153.962 129.866 153.987 129.771 153.983C129.676 153.986 129.583 153.959 129.503 153.907C129.423 153.855 129.361 153.78 129.325 153.691L124.157 140.037V154.005H123.199V137.411C123.2 137.295 123.243 137.183 123.321 137.098C123.398 137.013 123.504 136.959 123.618 136.948C123.723 136.933 123.83 136.953 123.921 137.006C124.013 137.059 124.085 137.141 124.125 137.24L129.755 152.188L135.385 137.262C135.425 137.163 135.496 137.081 135.588 137.028C135.68 136.975 135.786 136.955 135.891 136.97C136.005 136.981 136.111 137.035 136.189 137.12C136.266 137.206 136.309 137.317 136.31 137.433L136.332 154.005Z" fill="#209DD8"/>
<path d="M138.895 147.91C138.895 144.64 140.806 142.047 143.12 142.047C144.709 142.047 146.114 143.374 146.778 145.35V142.047H147.187V153.769H146.778V150.465C146.114 152.431 144.709 153.769 143.12 153.769C140.806 153.769 138.895 151.181 138.895 147.91ZM139.303 147.91C139.303 150.889 141.007 153.279 143.114 153.279C145.129 153.279 146.773 150.862 146.773 147.91C146.773 144.959 145.14 142.537 143.114 142.537C141.007 142.537 139.303 144.932 139.303 147.91Z" fill="#209DD8"/>
<path d="M147.459 154.006H146.501V151.76C145.69 153.169 144.47 154.006 143.12 154.006C140.637 154.006 138.617 151.253 138.617 147.911C138.617 144.569 140.637 141.816 143.12 141.816C144.47 141.816 145.69 142.648 146.501 144.057V141.816H147.459V154.006ZM142.249 153.395C142.814 153.585 143.426 153.585 143.991 153.395C143.423 153.566 142.817 153.566 142.249 153.395ZM143.12 142.774C141.171 142.774 139.581 145.076 139.581 147.911C139.581 150.747 141.171 153.043 143.12 153.043C144.955 153.043 146.501 150.692 146.501 147.911C146.501 145.131 144.933 142.774 143.12 142.774ZM143.12 142.301C143.42 142.301 143.717 142.349 144.002 142.444C143.428 142.249 142.807 142.249 142.233 142.444C142.519 142.347 142.818 142.292 143.12 142.279V142.301Z" fill="#209DD8"/>
<path d="M150.841 145.24C151.132 144.292 151.723 143.466 152.522 142.889C153.321 142.313 154.286 142.017 155.267 142.047H155.474V142.537H155.278C152.73 142.537 150.873 144.403 150.852 147.795V153.769H150.443V142.047H150.852V145.24H150.841Z" fill="#209DD8"/>
<path d="M151.12 154.005H150.156V141.816H151.12V144.018C151.562 143.317 152.177 142.745 152.905 142.359C153.632 141.973 154.447 141.785 155.269 141.816H155.753V142.774H155.28C152.737 142.774 151.147 144.701 151.131 147.8L151.12 154.005ZM155.198 142.278C154.661 142.284 154.129 142.383 153.625 142.57C154.131 142.394 154.662 142.301 155.198 142.295V142.278Z" fill="#209DD8"/>
<path d="M163.681 145.075H163.272C163.272 143.638 161.873 142.537 160.267 142.537C158.661 142.537 157.261 143.638 157.261 145.075C157.261 147.861 164.067 147.47 164.046 150.74C164.046 152.392 162.412 153.769 160.267 153.769C158.122 153.769 156.488 152.376 156.488 150.74H156.913C156.913 152.183 158.476 153.279 160.283 153.279C162.091 153.279 163.659 152.177 163.659 150.74C163.659 147.955 156.891 148.395 156.869 145.075C156.869 143.423 158.356 142.047 160.283 142.047C162.211 142.047 163.681 143.44 163.681 145.075Z" fill="#209DD8"/>
<path d="M160.267 154.006C157.991 154.006 156.211 152.569 156.211 150.741V150.504H157.175V150.741C157.175 152.013 158.563 153.043 160.267 153.043C161.971 153.043 163.365 152.013 163.365 150.741C163.365 149.563 161.906 149.001 160.36 148.412C158.596 147.73 156.592 146.964 156.576 145.081C156.576 143.281 158.209 141.816 160.267 141.816C162.325 141.816 163.959 143.281 163.959 145.076V145.313H162.995V145.076C162.995 143.809 161.775 142.774 160.273 142.774C158.77 142.774 157.55 143.809 157.55 145.076C157.55 146.342 159.02 146.827 160.578 147.432C162.347 148.115 164.345 148.886 164.334 150.736C164.324 152.586 162.543 154.006 160.267 154.006ZM158.699 153.246C159.714 153.609 160.821 153.609 161.835 153.246C160.818 153.594 159.716 153.594 158.699 153.246ZM158.699 147.157C159.316 147.473 159.952 147.747 160.605 147.977C161.095 148.164 161.585 148.357 162.037 148.566C161.525 148.313 160.948 148.087 160.354 147.862C159.786 147.656 159.228 147.42 158.683 147.157H158.699ZM160.284 142.301C160.652 142.3 161.019 142.352 161.373 142.455C160.663 142.233 159.904 142.233 159.195 142.455C159.542 142.347 159.903 142.287 160.267 142.279L160.284 142.301Z" fill="#209DD8"/>
<path d="M115.178 76.4634C111.144 76.4193 105.922 75.8302 102.628 72.6094C96.334 66.4816 101.801 56.2354 107.49 48.7202C115.516 38.1217 127.146 28.4206 142.059 19.8758C158.213 10.6262 174.079 4.42678 189.227 1.44819C194.198 0.468176 200.699 -0.533862 206.879 0.347051C211.904 1.08482 215.073 2.98428 216.358 5.94635C218.329 10.5216 215.421 16.1099 212.323 20.9659C208.365 27.1653 203.067 33.1941 195.602 39.9386L195.292 39.6027C202.713 32.8857 208 26.8845 211.937 20.7181C214.969 15.9612 217.822 10.5051 215.933 6.12804C214.719 3.30361 211.648 1.51426 206.808 0.804025C200.704 -0.082393 194.252 0.914139 189.314 1.90517C174.216 4.86723 158.399 11.0501 142.288 20.2777C127.429 28.7895 115.848 38.4465 107.86 49.0009C102.28 56.3676 96.8948 66.3935 102.96 72.2846C106.51 75.7421 112.336 76.0725 116.414 76.0174C124.772 75.9128 137.714 71.8331 141.966 70.5117L142.108 70.9467C130.494 74.608 122.093 76.4193 116.42 76.4964L115.178 76.4634Z" fill="#209DD8"/>
<path d="M134.229 68.9082C132.411 66.9702 130.511 65.0983 128.785 63.0722C121.217 54.2245 122.904 46.4339 129.808 38.6268C137.692 29.7131 148.021 25.1324 159.346 22.6603C167.235 20.9315 175.163 20.6727 183.003 23.0292C186.288 23.9287 189.304 25.6303 191.786 27.9843C194.214 30.3793 195.935 33.2092 195.788 36.7053C195.619 40.7355 195.091 44.7547 194.699 48.7738C194.53 49.4956 194.295 50.1997 193.996 50.877C194.029 41.666 189.504 36.5016 179.976 35.0591C164.263 32.6752 150.379 37.0302 138.465 47.5406C134.567 50.9761 131.763 55.2816 131.649 60.8424C131.589 63.8264 132.874 66.304 134.676 68.5834L134.229 68.9082Z" fill="#209DD8"/>
<path d="M134.214 69.2117L134.072 69.0631C133.501 68.4519 132.918 67.8463 132.335 67.2462C131.089 65.9468 129.798 64.609 128.611 63.2215C121.62 55.04 121.941 47.1779 129.64 38.4789C136.686 30.5121 146.388 25.2652 159.298 22.4243C168.058 20.5028 175.828 20.6239 183.064 22.8042C186.385 23.7083 189.433 25.4274 191.939 27.8088C194.803 30.6333 196.137 33.5458 196.001 36.7006C195.865 39.8553 195.527 42.9275 195.195 45.9611C195.092 46.9026 194.988 47.8441 194.89 48.7801C194.825 49.2246 194.694 49.6569 194.504 50.0629C194.406 50.3161 194.291 50.6135 194.177 50.9328L193.741 52.1991V50.8832C193.774 41.8098 189.249 36.706 179.912 35.2911C164.487 32.9512 150.581 37.1355 138.575 47.723C134.143 51.632 131.938 55.932 131.84 60.8596C131.786 63.4032 132.733 65.8147 134.818 68.4574L134.954 68.6336L134.214 69.2117ZM171.031 21.5213C167.115 21.5468 163.212 21.9972 159.39 22.8647C146.579 25.6781 136.953 30.8865 129.989 38.7817C122.47 47.277 122.148 54.952 128.971 62.9297C130.147 64.3061 131.432 65.644 132.673 66.9324C133.218 67.4829 133.762 68.0335 134.274 68.5841L134.361 68.5125C132.303 65.8532 131.372 63.3977 131.421 60.8045C131.524 55.7448 133.778 51.3402 138.314 47.3376C150.417 36.662 164.449 32.4446 180.004 34.8011C189.195 36.1995 193.845 41.0721 194.193 49.6665C194.329 49.3577 194.422 49.0317 194.471 48.6975C194.569 47.756 194.672 46.8145 194.776 45.873C195.108 42.8504 195.451 39.7232 195.582 36.64C195.712 33.5568 194.422 30.826 191.65 28.0951C189.192 25.7572 186.199 24.0718 182.939 23.1896C179.071 22.0519 175.059 21.49 171.031 21.5213Z" fill="#209DD8"/>
<path d="M157.967 77.2502C153.067 77.1841 148.297 76.6115 143.941 74.1945C137.887 70.836 136.319 64.7853 139.918 58.8281C143.626 52.7058 149.272 49.0059 155.68 46.3907C163.635 43.1424 171.824 41.6558 180.334 43.8801C181.851 44.2807 183.313 44.8668 184.69 45.6254C190.57 48.8463 192.312 54.5942 188.964 60.4578C185.365 66.7893 179.806 71.0012 173.332 73.9798C168.52 76.2286 163.267 77.3466 157.967 77.2502ZM160.227 76.105C168.606 75.7086 175.259 73.6219 180.035 67.5822C183.606 63.062 182.076 58.294 176.626 56.6093C170.74 54.7979 165.072 55.9046 159.639 58.4537C156.001 60.1605 152.751 62.4178 151.025 66.2883C149.468 69.7844 150.508 72.9998 153.987 74.4918C155.958 75.3929 158.07 75.9388 160.227 76.105Z" fill="#209DD8"/>
<path d="M158.669 77.4809H157.961C153.606 77.4258 148.542 77.0129 143.838 74.4032C140.816 72.7515 138.834 70.3675 138.099 67.5706C137.364 64.7737 137.925 61.7071 139.732 58.723C143.043 53.2448 148.085 49.2642 155.593 46.1975C164.642 42.5032 172.749 41.6773 180.388 43.6759C181.918 44.0864 183.395 44.6777 184.788 45.4377C187.771 47.0894 189.753 49.3798 190.515 52.0941C191.278 54.8084 190.788 57.6934 189.149 60.5784C185.838 66.3924 180.688 70.8465 173.414 74.194C168.789 76.3456 163.76 77.4665 158.669 77.4809ZM172.107 43.0537C166.967 43.0537 161.56 44.232 155.773 46.5994C148.351 49.6276 143.38 53.5531 140.119 58.9432C138.377 61.8227 137.832 64.7572 138.54 67.444C139.248 70.1308 141.153 72.3991 144.061 73.9958C148.684 76.5615 153.693 76.9689 157.983 77.0239C163.242 77.1174 168.454 76.0069 173.228 73.7756C180.421 70.4721 185.501 66.0676 188.762 60.3416C190.341 57.5888 190.799 54.7534 190.085 52.2097C189.372 49.6661 187.455 47.4032 184.575 45.8231C183.214 45.0768 181.77 44.4965 180.274 44.0943C177.606 43.3989 174.862 43.0492 172.107 43.0537ZM160.226 76.3302C158.04 76.1559 155.901 75.5969 153.905 74.6785C153.142 74.3904 152.445 73.9492 151.856 73.3815C151.266 72.8138 150.797 72.1313 150.475 71.3751C150.185 70.5329 150.068 69.6402 150.128 68.7508C150.189 67.8614 150.427 66.9936 150.829 66.1997C152.756 61.8722 156.502 59.681 159.54 58.2495C165.726 55.3535 171.328 54.7423 176.686 56.3941C179.408 57.2364 181.281 58.8771 181.929 61.0023C182.577 63.1275 181.962 65.495 180.203 67.7193C175.847 73.225 169.689 75.8843 160.226 76.3247V76.3302ZM170.718 55.9591C167.234 55.9591 163.602 56.862 159.731 58.6734C155.31 60.7491 152.685 63.1275 151.226 66.3814C150.851 67.1215 150.627 67.9304 150.567 68.7599C150.507 69.5894 150.613 70.4225 150.878 71.2099C151.176 71.9136 151.613 72.5487 152.162 73.0768C152.71 73.6049 153.359 74.0149 154.068 74.2821C156.012 75.1708 158.094 75.711 160.221 75.8787C169.537 75.4383 175.597 72.8396 179.86 67.4385C181.526 65.3353 182.114 63.0945 181.494 61.1345C180.873 59.1744 179.125 57.6218 176.539 56.8235C174.653 56.2395 172.691 55.9426 170.718 55.9426V55.9591Z" fill="#209DD8"/>
<path d="M121.288 44.6115C120.155 41.4237 120.439 38.0763 120.678 34.7508C121.283 26.2886 126.123 20.436 132.608 15.8167C143.791 7.8775 156.27 4.34284 169.98 5.48803C180.173 6.34141 186.859 12.2105 191.487 21.0031C191.585 21.2733 191.65 21.5542 191.683 21.84C191.411 21.7904 191.209 21.84 191.139 21.7243C186.505 16.5159 180.331 14.5669 173.781 14.1044C157.844 13.0033 143.448 17.4079 131.001 27.654C126.504 31.3648 122.943 35.852 121.685 41.8036C121.451 42.7231 121.402 43.6756 121.288 44.6115Z" fill="#209DD8"/>
<path d="M121.391 45.571L121.08 44.69C119.992 41.5628 120.204 38.2594 120.433 35.0606V34.7357C120.977 27.1489 124.788 21.0761 132.46 15.6364C143.774 7.61463 156.368 4.12952 169.98 5.2637C179.47 6.06202 186.564 11.1713 191.666 20.8999C191.745 21.0743 191.796 21.26 191.818 21.4505C191.818 21.5551 191.857 21.6652 191.884 21.7918L191.96 22.1277L191.622 22.0616L191.377 22.0286C191.22 22.0343 191.066 21.9792 190.947 21.8744C186.858 17.2992 181.25 14.8491 173.726 14.3261C157.647 13.2249 143.306 17.7561 131.104 27.8261C125.992 32.0489 122.937 36.6352 121.848 41.8491C121.723 42.4657 121.658 43.1154 121.592 43.7431C121.592 44.0404 121.532 44.3432 121.494 44.6405L121.391 45.571ZM165.003 5.50595C153.395 5.50595 142.56 9.02409 132.732 16.0053C125.191 21.3624 121.429 27.325 120.895 34.7688V35.0936C120.694 37.8905 120.487 40.7755 121.206 43.5173C121.253 42.9256 121.334 42.3373 121.451 41.7555C122.578 36.437 125.649 31.7682 130.848 27.4792C143.137 17.3377 157.582 12.7625 173.78 13.8801C181.403 14.4307 187.152 16.9248 191.29 21.5881H191.399C191.399 21.5881 191.399 21.5496 191.399 21.5331C191.383 21.389 191.346 21.2481 191.29 21.1146C186.265 11.5347 179.312 6.49697 169.963 5.69865C168.286 5.57018 166.633 5.50595 165.003 5.50595Z" fill="#209DD8"/>
<path d="M169.718 2.91311C154 0.809929 140.589 4.95572 128.91 15.4055C137.115 3.25996 155.753 -2.49349 169.718 2.91311Z" fill="#209DD8"/>
<path d="M127.723 16.7477L128.724 15.2612C136.99 3.044 155.823 -2.71497 169.8 2.70264L171.553 3.37984L169.691 3.13208C154.037 1.04542 140.741 5.10863 129.057 15.5695L127.723 16.7477ZM158.333 1.08397C147.667 1.08397 136.581 5.89595 130.249 13.9343C141.138 4.77279 153.444 1.00138 167.693 2.43286C164.654 1.52797 161.5 1.07906 158.333 1.10048V1.08397Z" fill="#209DD8"/>
<path d="M161.762 74.4423C160.777 74.3102 158.904 74.3212 157.216 73.5889C154.025 72.196 153.165 69.1844 155.038 66.1948C157.603 62.126 161.615 60.166 166.085 59.3291C168.544 58.8695 171.065 58.8695 173.523 59.3291C178.913 60.3917 180.231 65.022 176.409 69.0577C172.701 72.9613 167.986 74.4423 161.762 74.4423Z" fill="#209DD8"/>
<path d="M161.763 74.6683H161.736C161.513 74.6407 161.251 74.6187 160.952 74.5912C159.648 74.5371 158.36 74.2693 157.141 73.7984C156.423 73.5296 155.773 73.1034 155.237 72.5503C154.701 71.9972 154.293 71.331 154.043 70.5996C153.845 69.8314 153.816 69.0289 153.957 68.2482C154.098 67.4674 154.406 66.7273 154.859 66.0794C157.201 62.3685 160.849 60.0892 166.059 59.1147C168.542 58.6467 171.09 58.6467 173.573 59.1147C176.181 59.6267 178.016 61.0196 178.62 62.9356C179.225 64.8516 178.495 67.1915 176.584 69.2121C172.985 72.978 168.417 74.6683 161.763 74.6683ZM169.93 59.1973C168.652 59.195 167.376 59.3129 166.119 59.5496C161.05 60.4966 157.484 62.7099 155.23 66.3161C154.811 66.909 154.525 67.5872 154.393 68.3032C154.26 69.0193 154.284 69.756 154.462 70.4619C154.693 71.1324 155.068 71.7423 155.562 72.2472C156.056 72.752 156.655 73.139 157.315 73.3799C158.493 73.8323 159.736 74.0889 160.996 74.1397C161.295 74.1397 161.54 74.1893 161.785 74.2168C168.319 74.2168 172.762 72.5651 176.257 68.8818C178.054 66.9823 178.762 64.8571 178.19 63.0457C177.618 61.2344 175.925 60.0121 173.486 59.5276C172.31 59.3034 171.116 59.1928 169.919 59.1973H169.93Z" fill="#209DD8"/>
<path d="M55.3406 0.925781V12.4272C55.3406 12.9778 55.3678 13.5614 55.3678 14.1725V44.3493C55.3678 45.1971 55.3678 46.001 55.3406 46.8103V46.8654C55.1954 53.4282 54.4694 58.1888 53.1627 61.1472C51.7107 64.4506 48.9702 67.1814 44.9411 69.3396C40.7344 71.5265 36.0587 72.6291 31.3293 72.5495C27.3945 72.5495 24.0605 71.8668 21.3273 70.5014C18.8328 69.3304 16.6687 67.5453 15.0332 65.3095C13.5595 63.2173 12.5504 60.3048 12.0059 56.5719C11.4958 53.2726 11.2229 49.9403 11.1892 46.6011V27.7606H0.234375V48.7979C0.444905 54.7881 1.03112 59.0605 1.99303 61.6151C3.79988 66.3462 7.08663 70.3503 11.3525 73.0175C15.7337 75.8364 22.173 77.2458 30.6705 77.2458C38.4528 77.2458 44.609 75.7666 49.139 72.8082C53.669 69.8498 56.7054 66.3115 58.248 62.1932C59.6092 58.5595 60.3697 53.6264 60.5294 47.3939V0.925781H55.3406Z" fill="#209DD8"/>
<path d="M30.6702 77.4821C22.171 77.4821 15.6264 76.0451 11.2216 73.2097C6.9225 70.5109 3.60714 66.4724 1.77498 61.7028C0.811265 59.1481 0.212345 54.8096 0 48.8194V27.5454H11.4013V46.6006C11.4374 49.9287 11.7103 53.2499 12.218 56.5384C12.7625 60.2217 13.7643 63.1452 15.2071 65.1879C16.8281 67.3857 18.9626 69.1431 21.4196 70.3027C24.1039 71.6461 27.4088 72.3233 31.3127 72.3233C36.0074 72.4009 40.6487 71.3079 44.8265 69.141C48.774 67.0378 51.5018 64.318 52.9501 61.0586C54.235 58.1461 54.9646 53.3506 55.128 46.8594V46.8043C55.128 46.0115 55.128 45.1967 55.128 44.3488V14.172C55.128 13.5609 55.128 12.9828 55.128 12.4322V0.705078H60.785V47.4044C60.6217 53.6369 59.854 58.6416 58.4928 62.2698C56.9411 66.4156 53.843 70.0219 49.2912 72.995C44.7394 75.968 38.4616 77.4821 30.6702 77.4821ZM0.468246 27.9913V48.8084C0.675146 54.7491 1.26318 59.038 2.21056 61.5486C4.00721 66.2257 7.2549 70.1878 11.4666 72.8408C15.8224 75.6212 22.2526 77.0361 30.6593 77.0361C38.3582 77.0361 44.5271 75.5551 48.9972 72.6316C53.4673 69.708 56.5 66.1789 58.0191 62.1212C59.364 58.5315 60.1262 53.5763 60.2841 47.3934V1.14554H55.5635V12.4212C55.5635 12.9718 55.5908 13.5224 55.5908 14.1665V44.3433C55.5908 45.1912 55.5908 45.995 55.5635 46.8043V46.8594C55.4165 53.4277 54.6761 58.2617 53.3856 61.2293C51.8992 64.5822 49.1006 67.3736 45.0661 69.5264C40.8168 71.7278 36.0975 72.8396 31.3236 72.7637C27.3652 72.7637 23.9677 72.0645 21.2181 70.6936C18.6814 69.5069 16.4771 67.6998 14.8042 65.4356C13.3233 63.3214 12.2888 60.3484 11.7443 56.6265C11.2321 53.3163 10.9573 49.9729 10.9221 46.6226V28.0134L0.468246 27.9913Z" fill="#209DD8"/>
<path d="M75.7188 55.5918V60.591V77.2567H86.4612V64.043V60.591V55.5918H75.7188Z" fill="#209DD8"/>
<path d="M86.6741 77.482H75.4961V55.3711H86.6741V77.482ZM75.9262 77.036H86.2386V55.8391H75.9426L75.9262 77.036Z" fill="#209DD8"/>
<path d="M75.7188 0.925781V35.5897V46.8599V50.1963H86.4612V46.8599V37.0982V35.5897V5.74878H88.6173H97.3017H112.547V0.925781H75.7188Z" fill="#209DD8"/>
<path d="M86.6741 50.4216H75.4961V0.705078H112.776V5.97403H86.6741V50.4216ZM75.9262 49.9701H86.2386V5.52807H112.324V1.12351H75.9426L75.9262 49.9701Z" fill="#209DD8"/>
<path d="M11.4122 0.699219H0V22.5899H11.4122V0.699219Z" fill="#209DD8"/>
</g>
<defs>
<clipPath id="clip0_896_5181">
<rect width="217" height="154" fill="white"/>
</clipPath>
</defs>
</svg>
