<svg width="16" height="19" viewBox="0 0 16 19" fill="none" xmlns="http://www.w3.org/2000/svg">
<path d="M5.15527 16.6279C5.57149 17.5198 6.46507 18.148 7.51317 18.1584C8.56128 18.1687 9.46712 17.5582 9.90086 16.6748L5.15527 16.6279V16.6279Z" fill="#999999"/>
<path d="M15.0218 15.4015L13.7493 13.2322C13.1616 12.2309 12.8572 11.0877 12.8686 9.92732L12.8873 8.03827C12.9108 5.65341 11.3393 3.62058 9.16958 2.94881L9.18293 1.59627C9.19114 0.765142 8.52191 0.0825741 7.69078 0.0743704C6.85965 0.0661666 6.17708 0.735392 6.16888 1.56652L6.15553 2.91906C3.973 3.54787 2.36168 5.54929 2.33814 7.93414L2.3195 9.8232C2.30804 10.9836 1.98107 12.1198 1.37446 13.1093L0.0594151 15.2531C-0.0118141 15.3692 -0.0147608 15.5138 0.0511456 15.6328C0.117052 15.7517 0.240659 15.8261 0.37629 15.8274L14.6929 15.9687C14.8286 15.9701 14.9544 15.8982 15.0226 15.7813C15.0908 15.6644 15.09 15.5182 15.0218 15.4015Z" fill="#999999"/>
</svg>
