<svg width="22" height="22" viewBox="0 0 22 22" fill="none" xmlns="http://www.w3.org/2000/svg">
<path fill-rule="evenodd" clip-rule="evenodd" d="M18.4997 3.70324C18.7597 3.42607 18.9243 3.08344 18.956 2.75274C18.9879 2.42133 18.8838 2.129 18.6675 1.94206L17.1261 0.67335C16.8902 0.542474 16.5954 0.505783 16.2841 0.570778C15.9452 0.641432 15.6087 0.827998 15.3319 1.09583L13.6738 2.95717L16.8415 5.56459L18.4997 3.70324Z" fill="black"/>
<path fill-rule="evenodd" clip-rule="evenodd" d="M12.7046 4.04688L15.8723 6.65429L6.79823 16.8406L3.63047 14.2332L12.7046 4.04688Z" fill="black"/>
<path fill-rule="evenodd" clip-rule="evenodd" d="M2.6333 15.3496L5.80106 17.957L1.89692 19.6658C1.78665 19.7019 1.67982 19.6883 1.60719 19.6285C1.53455 19.5687 1.50406 19.4694 1.52421 19.3591C1.89389 18.0226 2.26359 16.6861 2.6333 15.3496Z" fill="black"/>
<rect x="1.49951" y="20.2695" width="19.7927" height="0.906586" rx="0.453293" fill="black"/>
</svg>
