<svg width="30" height="30" viewBox="0 0 30 30" fill="none" xmlns="http://www.w3.org/2000/svg">
<g clip-path="url(#clip0_1195_255264)">
<path fill-rule="evenodd" clip-rule="evenodd" d="M20.8851 10.0047C21.0802 9.79038 21.2036 9.52543 21.2274 9.26971C21.2513 9.01344 21.1732 8.7874 21.011 8.64284L19.855 7.66179C19.6781 7.56059 19.457 7.53222 19.2235 7.58248C18.9693 7.63711 18.7169 7.78137 18.5093 7.98848L17.2657 9.42779L19.6416 11.444L20.8851 10.0047Z" fill="white"/>
<path fill-rule="evenodd" clip-rule="evenodd" d="M16.5383 10.2699L18.9142 12.2861L12.1085 20.1628L9.73271 18.1466L16.5383 10.2699Z" fill="white"/>
<path fill-rule="evenodd" clip-rule="evenodd" d="M8.98535 19.0104L11.3612 21.0266L8.43306 22.348C8.35036 22.3759 8.27024 22.3653 8.21576 22.3191C8.16129 22.2729 8.13842 22.196 8.15353 22.1107C8.43079 21.0773 8.70806 20.0439 8.98535 19.0104Z" fill="white"/>
</g>
<rect x="8.13501" y="22.8141" width="14.8445" height="0.700562" rx="0.350281" fill="white"/>
<defs>
<clipPath id="clip0_1195_255264">
<rect width="20.0606" height="22.4928" fill="white" transform="matrix(0.762451 0.647045 -0.653785 0.75668 14.7056 0)"/>
</clipPath>
</defs>
</svg>
