<svg width="32" height="32" viewBox="0 0 32 32" fill="none" xmlns="http://www.w3.org/2000/svg">
<rect width="32" height="31.4558" rx="2" fill="#DF2121"/>
<g clip-path="url(#clip0_1205_5201)">
<path d="M22.786 9.26814H18.536V8.67131C18.536 7.68247 17.7205 6.88086 16.7146 6.88086H14.286C13.2801 6.88086 12.4646 7.68247 12.4646 8.67131V9.26814H8.21458C7.87925 9.26814 7.60742 9.53534 7.60742 9.86496C7.60742 10.1946 7.87928 10.4618 8.21458 10.4618H8.87452L10.036 23.0492C10.0646 23.3574 10.3283 23.593 10.6432 23.5917H20.3574C20.6723 23.593 20.9359 23.3575 20.9646 23.0492L22.126 10.4618H22.786C23.1214 10.4618 23.3932 10.1946 23.3932 9.86493C23.3932 9.5353 23.1213 9.26814 22.786 9.26814ZM13.6789 8.67131C13.6789 8.34168 13.9507 8.07448 14.286 8.07448H16.7146C17.0499 8.07448 17.3217 8.34168 17.3217 8.67131V9.26814H13.6789V8.67131H13.6789ZM19.8031 22.3981H11.1975L10.0967 10.4618H13.0717H20.9069L19.8031 22.3981Z" fill="white"/>
<path d="M13.6786 20.5681C13.6786 20.5673 13.6785 20.5665 13.6785 20.5657L13.0713 12.2103C13.0475 11.8806 12.7564 11.6324 12.4211 11.6558C12.0857 11.6792 11.8332 11.9654 11.857 12.295L12.4642 20.6504C12.4868 20.9634 12.7522 21.2057 13.0713 21.2049H13.1151C13.4496 21.182 13.7019 20.897 13.6786 20.5681Z" fill="white"/>
<path d="M15.4997 11.6543C15.1644 11.6543 14.8926 11.9215 14.8926 12.2511V20.6065C14.8926 20.9362 15.1644 21.2034 15.4997 21.2034C15.8351 21.2034 16.1069 20.9362 16.1069 20.6065V12.2511C16.1069 11.9215 15.8351 11.6543 15.4997 11.6543Z" fill="white"/>
<path d="M18.5794 11.6558C18.244 11.6324 17.9529 11.8806 17.9291 12.2103L17.322 20.5657C17.2974 20.8944 17.5486 21.1805 17.883 21.2047C17.884 21.2047 17.885 21.2048 17.886 21.2049H17.9291C18.2483 21.2057 18.5136 20.9634 18.5363 20.6504L19.1434 12.295C19.1672 11.9654 18.9147 11.6793 18.5794 11.6558Z" fill="white"/>
</g>
<defs>
<clipPath id="clip0_1205_5201">
<rect width="17" height="16.7109" fill="white" transform="translate(7 6.88086)"/>
</clipPath>
</defs>
</svg>
