<svg id="Layer_1" data-name="Layer 1" xmlns="http://www.w3.org/2000/svg" viewBox="0 0 382.89 426.81"><defs><style>.cls-1{fill:none;}.cls-2{fill:#282f2f;}.cls-3{fill:#fff;}</style></defs><path class="cls-1" d="M217.51,88l2.24,5.22A31.51,31.51,0,0,0,217.51,88Z" transform="translate(-46.49 -14.97)"/><path class="cls-2" d="M142.81,85.6c-.47,25.7-1.31,27-4.85,32.64a74.56,74.56,0,0,0-5.59,10.4c-3.46,7.72-7.5,11.05-11.07,14-5.14,4.23-9.57,7.89-10.34,23.55a254.82,254.82,0,0,0,.62,30.76c.63,9.31,1.12,16.67-.63,22.62-.44,1.48-.84,2.75-1.19,3.88-2.25,7.21-2.6,8.32.95,20.59,2.14,7.39,4.19,10.18,6.17,12.88A27.69,27.69,0,0,1,122,267.42c3.34,12.05.48,22.71-5.22,36a69.45,69.45,0,0,1-4.73,8.94c-3.91,6.5-6.07,10.09-.48,21.27,3.43,6.86,7.35,13.57,10.81,19.49,4.46,7.63,8,13.66,8.72,17,.55,2.48,1.35,2.46,4.33,2.38.55,0,1.16,0,1.85,0,3.32,0,8.31.38,15.86,3.21a129,129,0,0,1,15.39,7.09c7.18,3.74,11.92,6.21,18,4.6,1.85-.49,2.92-1.14,3.27-2,.5-1.19-.45-2.86-1.55-4.79-1.57-2.75-3.53-6.19-2-9.9,3.38-8.12-3.39-19.71-6.46-24.32-1.06-1.59-1.56-5-1.73-9.29a10.77,10.77,0,0,0-3,.2c-9.11,2-14.32,13.75-15.06,34.1a.63.63,0,0,1-1.26,0c-1.13-13.74-3-61.06,19.47-96,.17-2.72-.18-5.71-2.55-10-2.21-4.06-8.43-7.75-14.76-10.62-13.86-.71-23.79-1.91-27.46-3.06a11.22,11.22,0,0,1-3.58-1.9,2.85,2.85,0,0,1-.3-.16c-4.56-3.13-5.39-9.73-4.57-12.39a1.42,1.42,0,0,1,.7-1c.34-1.4.7-2.54,1-3.64,1-3.18,2.08-6.47,2.8-16.92.53-7.89.63-10.48.77-14.4.11-3.21.25-7.21.69-15.64l.17-3.35c.81-15.94,1-19.73,4.07-28.92,1.94-5.83,6.46-10.11,9.75-13.24,2.28-2.16,4.08-3.87,4.2-5.19a38,38,0,0,1,.67-3.86c.31-1.43.63-3.06.89-4.88l.39-7.81a34.4,34.4,0,0,1,2.9-15.68l.19-.47c.13-.3.29-.56.44-.84l.15-.3A19.68,19.68,0,0,1,157.71,97h0c4.52-4.84,8.33-10.19,15.53-24.6a42.07,42.07,0,0,1,10.37-12.53,34.61,34.61,0,0,1,.83-5.71,27.18,27.18,0,0,1,2.72-7.06,33.55,33.55,0,0,0-4.46-9.22C166.39,46.55,143.22,62.81,142.81,85.6Z" transform="translate(-46.49 -14.97)"/><path class="cls-2" d="M178,337.08c.17,4.3.67,7.7,1.73,9.29,3.07,4.61,9.84,16.2,6.46,24.32-1.55,3.71.41,7.15,2,9.9,1.1,1.93,2,3.6,1.55,4.79-.35.84-1.42,1.49-3.27,2-6,1.61-10.78-.86-18-4.6a129,129,0,0,0-15.39-7.09c-7.55-2.83-12.54-3.21-15.86-3.21-.69,0-1.3,0-1.85,0-3,.08-3.78.1-4.33-2.38-.74-3.33-4.26-9.36-8.72-17-3.46-5.92-7.38-12.63-10.81-19.49-5.59-11.18-3.43-14.77.48-21.27a69.45,69.45,0,0,0,4.73-8.94c5.7-13.29,8.56-23.95,5.22-36a27.69,27.69,0,0,0-5.12-10.51c-2-2.7-4-5.49-6.17-12.88-3.55-12.27-3.2-13.38-.95-20.59.35-1.13.75-2.4,1.19-3.88,1.75-5.95,1.26-13.31.63-22.62a254.82,254.82,0,0,1-.62-30.76c.77-15.66,5.2-19.32,10.34-23.55,3.57-2.94,7.61-6.27,11.07-14a74.56,74.56,0,0,1,5.59-10.4c3.54-5.61,4.38-6.94,4.85-32.64.41-22.79,23.58-39,39.89-47.7l-.29-.43c-.06-.09-.12-.17-.17-.26a132.58,132.58,0,0,0-11.84,7C147.28,59.78,142.2,75.3,142,85.58c-.46,25.49-1.28,26.78-4.72,32.24a76.07,76.07,0,0,0-5.64,10.49A33.77,33.77,0,0,1,120.79,142c-5.27,4.35-9.83,8.11-10.62,24.12a254.15,254.15,0,0,0,.62,30.85c.62,9.24,1.11,16.53-.6,22.34-.43,1.48-.83,2.75-1.18,3.87-2.27,7.25-2.68,8.55.94,21.05,2.18,7.52,4.27,10.37,6.29,13.13a26.9,26.9,0,0,1,5,10.26c3.28,11.81.44,22.33-5.19,35.47a68,68,0,0,1-4.68,8.84c-3.92,6.52-6.29,10.46-.5,22,3.44,6.88,7.36,13.6,10.83,19.53,4.24,7.27,7.91,13.55,8.63,16.76s2.17,3.08,5.12,3c3.15-.08,8.44-.22,17.41,3.14a130.82,130.82,0,0,1,15.31,7c5.75,3,10,5.2,14.58,5.2a15.12,15.12,0,0,0,3.95-.54c2.12-.56,3.33-1.34,3.79-2.43.65-1.56-.39-3.38-1.59-5.49-1.56-2.74-3.34-5.85-1.94-9.2,3.53-8.48-3.39-20.35-6.53-25.07-1-1.44-1.43-4.67-1.59-8.75C178.57,337.14,178.31,337.1,178,337.08Z" transform="translate(-46.49 -14.97)"/><path class="cls-1" d="M187.7,255.38c-6.62,0-12.85-.11-18.6-.31h-.51l-5.59-.23c5.79,2.79,11.22,6.26,13.33,10.13a19,19,0,0,1,2.68,9.11l.35-.54-.07,1.44c0,.28-.9,21.7,3.18,41.44l1.76,7.28.12.37,8.17,20.61,5,11.57c4.38,9.61,8.63,17.22,12.28,18a3,3,0,0,0,2.75-.85c2.43-2.18,2.4-8.94,2.37-16.76-.06-14.77-.14-35,15.64-43.07,6.15-3.15,11-9.78,14.83-17.86-.44-2.54-.9-5-1.39-7.32-3.62-17,3.49-24.71,8.19-29.8,2.28-2.47,4.09-4.42,4-6.56-.06-1.52-1.06-3.12-3.13-5a24.15,24.15,0,0,1-3-3.47c-5.63,5.07-16.62,10.5-39.1,11.37C202.85,255.24,195.05,255.38,187.7,255.38Z" transform="translate(-46.49 -14.97)"/><path class="cls-2" d="M184.35,324.06a68.77,68.77,0,0,0,2.87,8.13c1.4,3.21,2.8,6.53,4.15,9.75,2.06,4.88,4.14,9.81,6.19,14.3l-5-11.57Z" transform="translate(-46.49 -14.97)"/><path class="cls-2" d="M184.23,323.69l-1.76-7.28C183,318.88,183.55,321.32,184.23,323.69Z" transform="translate(-46.49 -14.97)"/><path class="cls-2" d="M163,254.83l-2.13-.11c6.33,2.87,12.55,6.56,14.76,10.62,2.37,4.33,2.72,7.32,2.55,10,.14-.21.25-.43.39-.64l.44-.67a19,19,0,0,0-2.68-9.11C174.22,261.09,168.79,257.62,163,254.83Z" transform="translate(-46.49 -14.97)"/><path class="cls-1" d="M211,109.7c-6.54.42-6.91.72-7.3,1a2.47,2.47,0,0,1-.46.29,231.39,231.39,0,0,0,16.23,20.84l.33.27a39,39,0,0,0,5.57,4.05l.69.2,3.2,1-3.35-.23a2.57,2.57,0,0,1-.79-.22c-.42-.12-1-.28-1.71-.44a40.2,40.2,0,0,1,2.86,3.67c1.15,1.8,3.18,3.19,5.75,5a56.72,56.72,0,0,1,7.37,5.74,213.74,213.74,0,0,1-14.62-38.81C220.19,110.65,215,109.44,211,109.7Z" transform="translate(-46.49 -14.97)"/><path class="cls-1" d="M244,168.21c-.87-3.28-3.17-5.35-7-8.79a135.73,135.73,0,0,1-20.94-23.37,28.63,28.63,0,0,1-12.61-.7c-3.12-1.09-10.08-1-10.25-1h0l0-.79s1-.2,3.8-3.43l.8-.95a23.34,23.34,0,0,1,4-4l0,0a6.49,6.49,0,0,1,6.29-.88h0c-2.41-3.78-5-8-7.64-12.65a25,25,0,0,1-2.91.13h-.37l0-.38a9.54,9.54,0,0,1,.88-4l-.12-.2c-7.28-13-15.12-30.82-14.47-46.22A40.24,40.24,0,0,0,174,72.77c-6.39,12.79-10.14,18.5-14.07,23a2.66,2.66,0,0,1,2,.29c1.91,1.16,8.67,8.21,9,8.51l1.06,1.1-.6-.18a22.6,22.6,0,0,1,1.46,13.28l7.11,45,.39-.08c1.34,6.73-.35,11.48-4.42,12.38a9.33,9.33,0,0,1-2,.21,11.8,11.8,0,0,1-6.4-1.89,3.1,3.1,0,0,1-1.3-1.67,11,11,0,0,0-3.35-1.49l-.19-.05c-.34-.09-.68-.2-1.05-.33l-.13-.05a8.49,8.49,0,0,1-1.71-.85,4,4,0,0,0-4.18-.56,13.51,13.51,0,0,1-4,.62c-4.17,0-5.15-1.51-7.28-4.82-.32-.5-.67-1-1.07-1.63-3.07-4.61,0-12.31,3.06-16.07a47.73,47.73,0,0,1,5.79-5c5.84-4.62,14.66-11.61,18.2-18.55a20,20,0,0,0,2.15-7.72l-1.57-9.93c-.25-.6-.43-1-.5-1.11-.77-.24-5.61-1.67-7.72-1.67s-6.52-.55-7.74-.71a32.84,32.84,0,0,0-2.93,13.75,7.55,7.55,0,0,1,3.39-.09l.31,0a12.6,12.6,0,0,1,2.07.64c.08,0,.15,0,.24.07l.55.27c.4.18.81.38,1.24.61a10.49,10.49,0,0,1,2.18,1.35l.16.15c5.74,4.21,4.52,8.47,4.46,8.65l-.13.43-.41-.19c-3.44-1.62-5-1.49-6.75-1.34a15.46,15.46,0,0,1-3.7,0l-.1,0-.25,0a26,26,0,0,1-3.74-.31c-.25,1.63-.53,3.12-.81,4.43A35.13,35.13,0,0,0,150,135c-.15,1.62-2,3.42-4.44,5.7-3.42,3.24-7.67,7.27-9.55,12.91-3,9.09-3.22,12.85-4,28.71l-.17,3.35c-.44,8.42-.58,12.42-.69,15.63-.14,3.92-.23,6.52-.77,14.43-.72,10.54-1.8,13.88-2.83,17.11-.31,1-.61,1.93-.89,3,1.83-1,6.56-5.77,9.68-9.54,3-3.6,4.27-5.43,4-11.26-.26-4.92-1.48-5.39-1.49-5.39l.16-.78h0A71.92,71.92,0,0,0,151,210.15c2.35.09,2.49.09,2.53.53s-.38.49-.63.54a21.31,21.31,0,0,0-6.82,3.33c-.8.66-1.23,2.25-1.84,4.46a49.41,49.41,0,0,1-3.09,8.73c-2.71,5.7-.52,8.27,2.24,11.52.43.5.86,1,1.29,1.54,3.34,4.18,14.53,7.31,20.9,8.8,3,.71,4.64,1.68,4.89,3a2.19,2.19,0,0,1-.54,1.75c11.93.38,25.93.41,41-.17,22.35-.86,33.18-6.24,38.67-11.22-7.85-11.58-4.8-29.14-1-43.68.77-3,1.59-5.31,2.31-7.39a33.52,33.52,0,0,0,1.57-6.38c-.15-.21-.34-.44-.49-.64A54.58,54.58,0,0,1,244,168.21Zm-90.39,9.65c1.12-.87,2.85-1,5.14-.38,4.05,1.1,11.37,8.65,17.82,15.31,3.31,3.4,6.43,6.62,8.78,8.65l2.79,2.4-3.24-1.75c-.48-.26-11.78-6.4-13.27-8.22-1.73-2.11-14.21-13.63-18.81-13l-.44.06v-.44A3.41,3.41,0,0,1,153.65,177.86ZM133.3,191.68l.44-1.58c.1-.37,2.54-9,7.81-12.25s8-1.53,8.08-1.45l.31.23-3.47,5.11-.28-.09s-3-.92-5.09,0c-1.29.56-2.83,3-4.18,5.21a26.84,26.84,0,0,1-2.51,3.63ZM151.42,209a15.29,15.29,0,0,1-2.74.2c-4.18,0-10.12-1-11.6-2.68-1.13-1.27-2.94-4.18-2.58-7.08a5.75,5.75,0,0,1,2.48-4c-.38-1.52-1.84-8.8,3.28-11.87,3.3-2,4.11-1.61,5.05-.76a2.36,2.36,0,0,0,2.06.71,14.14,14.14,0,0,0,3-.63c2.18-.64,4.44-1.3,6.85.95,1.67,1.56,5.52,5.52,9.24,9.35,3.56,3.67,6.93,7.14,8.08,8.19a1.84,1.84,0,0,1,.66,2.31c-.87,1.73-4.57,2.45-8.62,1.68-4.52-.87-8.27.84-11.29,2.21A17.88,17.88,0,0,1,151.42,209Z" transform="translate(-46.49 -14.97)"/><path class="cls-3" d="M222.92,135.59c-.26-.19-.58-.44-.87-.67.16.2.35.42.51.6Z" transform="translate(-46.49 -14.97)"/><path class="cls-1" d="M166.7,204.6c3.72.71,6.59,0,7.49-1a24.05,24.05,0,0,1-9.65-2.65c-5.73-2.88-10.6-4-14.49-3.41a13.86,13.86,0,0,1-6.57-.77A16.47,16.47,0,0,0,140,196a17.38,17.38,0,0,0-2.26-.09l-.09.06a5,5,0,0,0-2.36,3.62c-.33,2.62,1.41,5.37,2.38,6.45,1.54,1.73,10,2.91,13.6,2.23a17,17,0,0,0,3.66-1.38C158.05,205.45,161.94,203.69,166.7,204.6Z" transform="translate(-46.49 -14.97)"/><path class="cls-1" d="M140.06,195.19a17.44,17.44,0,0,1,3.65.81,13.16,13.16,0,0,0,6.22.75c4-.65,9.09.53,15,3.48a23,23,0,0,0,9.59,2.57A1.5,1.5,0,0,0,174,202c-1.17-1.07-4.55-4.55-8.12-8.23-3.72-3.82-7.56-7.78-9.21-9.32-2.08-1.94-3.94-1.4-6.09-.77a14.47,14.47,0,0,1-3.14.66,3.12,3.12,0,0,1-2.64-.92,1.36,1.36,0,0,0-1-.47,7.32,7.32,0,0,0-3.13,1.33c-4.43,2.66-3.32,9.16-2.95,10.84A17.44,17.44,0,0,1,140.06,195.19Z" transform="translate(-46.49 -14.97)"/><path class="cls-1" d="M204.6,133.78a3,3,0,0,1-.52,0c-3.39-.54-4-4.17-4.09-5.8-.53.58-1.05,1.18-1.56,1.79l-.81,1a23.77,23.77,0,0,1-2.89,2.92c2.29,0,6.66.16,9.05,1a27.56,27.56,0,0,0,11.83.72c-1.73-2.4-3.53-5-5.43-7.91C209.37,129.73,207.54,133.78,204.6,133.78Z" transform="translate(-46.49 -14.97)"/><path class="cls-1" d="M158.25,126.43l.9-.05c.51,0,1-.09,1.54-.09a12.06,12.06,0,0,1,5.15,1.29c.14-1.11,0-4.1-4.06-7.18C161.24,121.78,159.75,125.28,158.25,126.43Z" transform="translate(-46.49 -14.97)"/><path class="cls-1" d="M206.38,102.9c5.94,0,11.81,2.26,17.29,5.12-1-3.89-2-7.81-3-11.86-.26-1.07-.59-2-.9-3L217.51,88c-3.42-6.18-8.27-9.46-13-12.64-5-3.31-9.71-6.49-12.73-12.61A166.88,166.88,0,0,0,191.11,81c.1,7.68,3.65,16.16,8.48,24.28a8.9,8.9,0,0,1,6.49-2.42Z" transform="translate(-46.49 -14.97)"/><path class="cls-2" d="M151.44,116.73a3.41,3.41,0,0,1,.46-.16,32.84,32.84,0,0,1,2.93-13.75l-.31,0-.51-.07h0a34.4,34.4,0,0,0-2.9,15.68l.08-1.58Z" transform="translate(-46.49 -14.97)"/><path class="cls-2" d="M154.64,101.4l.15-.3Z" transform="translate(-46.49 -14.97)"/><path class="cls-2" d="M159.88,95.79c3.93-4.52,7.68-10.23,14.07-23A40.24,40.24,0,0,1,183.53,61c0-.38.05-.75.08-1.12a42.07,42.07,0,0,0-10.37,12.53c-7.2,14.41-11,19.76-15.53,24.6h0A4.26,4.26,0,0,1,159.88,95.79Z" transform="translate(-46.49 -14.97)"/><path class="cls-2" d="M126.58,235.88c.28-1.1.58-2.07.89-3,1-3.23,2.11-6.57,2.83-17.11.54-7.91.63-10.51.77-14.43.11-3.21.25-7.21.69-15.63l.17-3.35c.81-15.86,1-19.62,4-28.71,1.88-5.64,6.13-9.67,9.55-12.91,2.4-2.28,4.29-4.08,4.44-5.7a35.13,35.13,0,0,1,.66-3.77c.28-1.31.56-2.8.81-4.43l-.17,0-.6.62,0-.72h0l0-.49c-.26,1.82-.58,3.45-.89,4.88a38,38,0,0,0-.67,3.86c-.12,1.32-1.92,3-4.2,5.19-3.29,3.13-7.81,7.41-9.75,13.24-3.06,9.19-3.26,13-4.07,28.92l-.17,3.35c-.44,8.43-.58,12.43-.69,15.64-.14,3.92-.24,6.51-.77,14.4-.72,10.45-1.77,13.74-2.8,16.92-.35,1.1-.71,2.24-1,3.64a.91.91,0,0,1,.34-.13A1.42,1.42,0,0,0,126.58,235.88Z" transform="translate(-46.49 -14.97)"/><path class="cls-2" d="M163,254.83l5.59.23c-3.4-.17-32.77-1.74-38.76-5.3a11.22,11.22,0,0,0,3.58,1.9c3.67,1.15,13.6,2.35,27.46,3.06Z" transform="translate(-46.49 -14.97)"/><path class="cls-2" d="M169.92,254.31a3.9,3.9,0,0,1-.72.69l-.1.07c5.75.2,12,.31,18.6.31,7.35,0,15.15-.14,23.26-.45,22.48-.87,33.47-6.3,39.1-11.37-.15-.22-.32-.42-.47-.64-5.49,5-16.32,10.36-38.67,11.22C195.85,254.72,181.85,254.69,169.92,254.31Z" transform="translate(-46.49 -14.97)"/><path class="cls-2" d="M225.88,137.16l3.35.23-3.2-1-.69-.2a39,39,0,0,1-5.57-4.05l-.33-.27,1.2,1.42,1.41,1.64c.29.23.61.48.87.67l-.36-.07.82,1c.69.16,1.29.32,1.71.44A2.57,2.57,0,0,0,225.88,137.16Z" transform="translate(-46.49 -14.97)"/><path class="cls-2" d="M208.14,124.32a6.49,6.49,0,0,0-6.29.88A7,7,0,0,1,208.14,124.32Z" transform="translate(-46.49 -14.97)"/><path class="cls-2" d="M203.78,134.6c-2.39-.84-6.76-1-9.05-1a23.77,23.77,0,0,0,2.89-2.92l.81-1c.51-.61,1-1.21,1.56-1.79,0-.47,0-.8,0-.81V127l.08-.1a9.48,9.48,0,0,1,1.77-1.68,23.34,23.34,0,0,0-4,4l-.8.95c-2.8,3.23-3.76,3.43-3.8,3.43l0,.79h0c.17,0,7.13-.13,10.25,1a28.63,28.63,0,0,0,12.61.7l-.52-.73A27.56,27.56,0,0,1,203.78,134.6Z" transform="translate(-46.49 -14.97)"/><path class="cls-2" d="M172.28,193.37c.9,1.09,6.26,4.24,10.15,6.42-1.92-1.85-4.11-4.1-6.38-6.45-6.39-6.59-13.62-14.05-17.47-15.1-2-.55-3.53-.47-4.45.25a2.54,2.54,0,0,0-.89,1.55C158.82,180.09,171,191.76,172.28,193.37Z" transform="translate(-46.49 -14.97)"/><path class="cls-2" d="M152.86,180.85c4.6-.61,17.08,10.91,18.81,13,1.49,1.82,12.79,8,13.27,8.22l3.24,1.75-2.79-2.4c-2.35-2-5.47-5.25-8.78-8.65-6.45-6.66-13.77-14.21-17.82-15.31-2.29-.63-4-.49-5.14.38a3.41,3.41,0,0,0-1.24,2.61v.44Zm5.72-2.61c3.85,1,11.08,8.51,17.47,15.1,2.27,2.35,4.46,4.6,6.38,6.45-3.89-2.18-9.25-5.33-10.15-6.42-1.32-1.61-13.46-13.28-19-13.33a2.54,2.54,0,0,1,.89-1.55C155.05,177.77,156.54,177.69,158.58,178.24Z" transform="translate(-46.49 -14.97)"/><path class="cls-2" d="M210.91,108.91c.39,0,.79,0,1.19,0a46,46,0,0,1,12.39,2.26l-.54-2.06c-5.66-3-11.77-5.44-17.86-5.38a8.11,8.11,0,0,0-6,2.25L200,106c.89,1.46,1.82,2.9,2.77,4.33a2,2,0,0,0,.4-.24C203.73,109.67,204.13,109.34,210.91,108.91Z" transform="translate(-46.49 -14.97)"/><path class="cls-2" d="M200.11,110.92l-1.48-2.58A10,10,0,0,0,198,111C198.49,111,199.27,111,200.11,110.92Z" transform="translate(-46.49 -14.97)"/><path class="cls-2" d="M197.24,111.43l0,.38h.37a25,25,0,0,0,2.91-.13l-.43-.76c-.84.08-1.62.1-2.07.1a10,10,0,0,1,.59-2.68c-.17-.31-.34-.59-.51-.91A9.54,9.54,0,0,0,197.24,111.43Z" transform="translate(-46.49 -14.97)"/><path class="cls-2" d="M211,109.7c4-.26,9.22,1,13.77,2.35-.09-.31-.16-.62-.25-.92a46,46,0,0,0-12.39-2.26c-.4,0-.8,0-1.19,0-6.78.43-7.18.76-7.74,1.21a2,2,0,0,1-.4.24c.14.22.29.44.44.66a2.47,2.47,0,0,0,.46-.29C204.06,110.42,204.43,110.12,211,109.7Z" transform="translate(-46.49 -14.97)"/><path class="cls-2" d="M206.09,103.69c6.09-.06,12.2,2.36,17.86,5.38-.1-.35-.19-.7-.28-1-5.48-2.86-11.35-5.12-17.29-5.12h-.3a8.9,8.9,0,0,0-6.49,2.42l.41.71.07-.09A8.11,8.11,0,0,1,206.09,103.69Z" transform="translate(-46.49 -14.97)"/><path class="cls-2" d="M200.76,127.3c0,.82.06,5.12,3.44,5.66,2.89.46,4.77-4.34,5.43-6.39l-.74-1.15A6.41,6.41,0,0,0,200.76,127.3Zm1.67,1.55a1.26,1.26,0,1,1,1.26-1.26A1.26,1.26,0,0,1,202.43,128.85Z" transform="translate(-46.49 -14.97)"/><path class="cls-2" d="M201.85,125.2l0,0a9.48,9.48,0,0,0-1.77,1.68l-.08.1v.13s0,.34,0,.81c.1,1.63.7,5.26,4.09,5.8a3,3,0,0,0,.52,0c2.94,0,4.77-4.05,5.58-6.37-.18-.27-.36-.56-.55-.84-.66,2.05-2.54,6.85-5.43,6.39-3.38-.54-3.46-4.84-3.44-5.66a6.41,6.41,0,0,1,8.13-1.88c-.24-.37-.47-.71-.71-1.09h0A7,7,0,0,0,201.85,125.2Z" transform="translate(-46.49 -14.97)"/><path class="cls-1" d="M202.43,126.33a1.26,1.26,0,0,0,0,2.52,1.26,1.26,0,0,0,0-2.52Z" transform="translate(-46.49 -14.97)"/><path class="cls-2" d="M162.57,102.74a32.67,32.67,0,0,1,6.67,1.33c-2-2.07-6.37-6.47-7.76-7.31-1.58-1-3.17.77-3.18.79a18,18,0,0,0-3.15,4.51C156.6,102.25,160.68,102.74,162.57,102.74Z" transform="translate(-46.49 -14.97)"/><path class="cls-2" d="M154.52,102.78l.31,0c1.22.16,5.66.71,7.74.71s7,1.43,7.72,1.67l-.07-.14.69-.39s.18.36.4.84l.6.18-1.06-1.1c-.29-.3-7-7.35-9-8.51a2.66,2.66,0,0,0-2-.29A4.26,4.26,0,0,0,157.72,97h0a19.68,19.68,0,0,0-2.92,4.08l-.15.3c-.15.28-.31.54-.44.84l-.19.47h0Zm3.78-5.23s1.6-1.76,3.18-.79c1.39.84,5.74,5.24,7.76,7.31a32.67,32.67,0,0,0-6.67-1.33c-1.89,0-6-.49-7.42-.68A18,18,0,0,1,158.3,97.55Z" transform="translate(-46.49 -14.97)"/><path class="cls-1" d="M152.51,143.13a48.35,48.35,0,0,0-5.68,4.87c-2.9,3.57-5.86,10.85-3,15.13.4.59.75,1.14,1.07,1.64,2.15,3.34,2.88,4.46,6.62,4.46a12.76,12.76,0,0,0,3.83-.59,4.76,4.76,0,0,1,4.38.42,2.76,2.76,0,0,1-.22-.9c0-.9-1.84-1-3.75-1l-1.23-.06a1.89,1.89,0,0,1-1.65-.83,1.07,1.07,0,0,1,.11-1.12c.82-1.25,3.62-1.85,7.49-1.61a6.67,6.67,0,0,1,5.21,2.46c1.88,2.5,1.28,6,1.18,6.48a2.37,2.37,0,0,0,1.06,1.33,11,11,0,0,0,7.76,1.55c3.66-.82,5.08-5.1,3.81-11.45l.39-.08-7.11-45a20.57,20.57,0,0,1-1.85,5.53C167.3,131.42,158.4,138.47,152.51,143.13Z" transform="translate(-46.49 -14.97)"/><path class="cls-2" d="M162.62,171.19a5.6,5.6,0,0,1-1.05-.33C161.94,171,162.28,171.1,162.62,171.19Z" transform="translate(-46.49 -14.97)"/><path class="cls-2" d="M170.22,105.06l.07.14c.07.13.25.51.5,1.11a21.7,21.7,0,0,1,1.57,9.93,20,20,0,0,1-2.15,7.72c-3.54,6.94-12.36,13.93-18.2,18.55a47.73,47.73,0,0,0-5.79,5c-3.05,3.76-6.13,11.46-3.06,16.07.4.59.75,1.13,1.07,1.63,2.13,3.31,3.11,4.82,7.28,4.82a13.51,13.51,0,0,0,4-.62,4,4,0,0,1,4.18.56,8.49,8.49,0,0,0,1.71.85,3.26,3.26,0,0,1-1.72-1.75,4.76,4.76,0,0,0-4.38-.42,12.76,12.76,0,0,1-3.83.59c-3.74,0-4.47-1.12-6.62-4.46-.32-.5-.67-1.05-1.07-1.64-2.85-4.28.11-11.56,3-15.13a48.35,48.35,0,0,1,5.68-4.87c5.89-4.66,14.79-11.71,18.41-18.81a20.57,20.57,0,0,0,1.85-5.53,22.6,22.6,0,0,0-1.46-13.28c-.22-.48-.39-.82-.4-.84Z" transform="translate(-46.49 -14.97)"/><path class="cls-2" d="M175.68,175.31a11,11,0,0,1-7.76-1.55,2.37,2.37,0,0,1-1.06-1.33.58.58,0,0,0,0,.1l-.13.57-.48-.33-.07,0a3.1,3.1,0,0,0,1.3,1.67,11.8,11.8,0,0,0,6.4,1.89,9.33,9.33,0,0,0,2-.21c4.07-.9,5.76-5.65,4.42-12.38l-.39.08-.39.08C180.76,170.21,179.34,174.49,175.68,175.31Z" transform="translate(-46.49 -14.97)"/><path class="cls-2" d="M166.55,205.38c4,.77,7.75.05,8.62-1.68a1.84,1.84,0,0,0-.66-2.31c-1.15-1-4.52-4.52-8.08-8.19-3.72-3.83-7.57-7.79-9.24-9.35-2.41-2.25-4.67-1.59-6.85-.95a14.14,14.14,0,0,1-3,.63,2.36,2.36,0,0,1-2.06-.71c-.94-.85-1.75-1.22-5.05.76-5.12,3.07-3.66,10.35-3.28,11.87a5.75,5.75,0,0,0-2.48,4c-.36,2.9,1.45,5.81,2.58,7.08,1.48,1.66,7.42,2.68,11.6,2.68a15.29,15.29,0,0,0,2.74-.2,17.88,17.88,0,0,0,3.84-1.44C158.28,206.22,162,204.51,166.55,205.38Zm-15.28,2.87c-3.61.68-12.06-.5-13.6-2.23-1-1.08-2.71-3.83-2.38-6.45a5,5,0,0,1,2.36-3.62l.09-.06h-.19a.36.36,0,0,0,.22-.3l-.32,0-.18.41-.28-.51c0-.21.18-.33.72-.37-.37-1.68-1.48-8.18,2.95-10.84a7.32,7.32,0,0,1,3.13-1.33,1.36,1.36,0,0,1,1,.47,3.12,3.12,0,0,0,2.64.92,14.47,14.47,0,0,0,3.14-.66c2.15-.63,4-1.17,6.09.77,1.65,1.54,5.49,5.5,9.21,9.32,3.57,3.68,6.95,7.16,8.12,8.23a1.5,1.5,0,0,1,.51.82h.45l0,.79h-.79c-.9,1-3.77,1.72-7.49,1-4.76-.91-8.65.85-11.77,2.27A17,17,0,0,1,151.27,208.25Z" transform="translate(-46.49 -14.97)"/><path class="cls-2" d="M140,196a16.47,16.47,0,0,1,3.48.78,13.86,13.86,0,0,0,6.57.77c3.89-.62,8.76.53,14.49,3.41a24.05,24.05,0,0,0,9.65,2.65H175l0-.79h-.45a23,23,0,0,1-9.59-2.57c-5.88-2.95-10.92-4.13-15-3.48a13.16,13.16,0,0,1-6.22-.75,16.94,16.94,0,0,0-6-.9c-.54,0-.67.16-.72.37l.28.51.18-.41.32,0a.36.36,0,0,1-.22.3h.19A17.38,17.38,0,0,1,140,196Z" transform="translate(-46.49 -14.97)"/><path class="cls-2" d="M130,249c5.18,3.56,36.46,5.2,38.87,5.33.27-.23,1-.88.84-1.58-.1-.52-.8-1.51-4.29-2.33-7.91-1.85-18-4.92-21.34-9.07-.42-.53-.85-1-1.27-1.53-2.84-3.33-5.29-6.21-2.35-12.37a49.48,49.48,0,0,0,3-8.6c.64-2.35,1.11-4.05,2.1-4.86a21.72,21.72,0,0,1,5.54-3H151a79,79,0,0,1-11-1,12.38,12.38,0,0,1,1,5.1c.3,5.83-.9,7.87-4.15,11.81-2.45,3-9,10.05-10.87,10.05,0,0-.33.35-.46,1.46C125.24,241.07,126.17,246.33,130,249Z" transform="translate(-46.49 -14.97)"/><path class="cls-2" d="M168.59,255.06h.51l.1-.07a3.9,3.9,0,0,0,.72-.69,2.19,2.19,0,0,0,.54-1.75c-.25-1.28-1.85-2.25-4.89-3-6.37-1.49-17.56-4.62-20.9-8.8-.43-.53-.86-1-1.29-1.54-2.76-3.25-4.95-5.82-2.24-11.52a49.41,49.41,0,0,0,3.09-8.73c.61-2.21,1-3.8,1.84-4.46a21.31,21.31,0,0,1,6.82-3.33c.25-.05.67-.15.63-.54s-.18-.44-2.53-.53a71.92,71.92,0,0,1-12.05-1.23h0l-.16.78s1.23.47,1.49,5.39c.3,5.83-1,7.66-4,11.26-3.12,3.77-7.85,8.49-9.68,9.54a1.42,1.42,0,0,1-.58.23.91.91,0,0,0-.34.13,1.42,1.42,0,0,0-.7,1c-.82,2.66,0,9.26,4.57,12.39a2.85,2.85,0,0,0,.3.16C135.82,253.32,165.19,254.89,168.59,255.06ZM126,236.9c1.83,0,8.42-7.1,10.87-10.05,3.25-3.94,4.45-6,4.15-11.81a12.38,12.38,0,0,0-1-5.1,79,79,0,0,0,11,1h.15a21.72,21.72,0,0,0-5.54,3c-1,.81-1.46,2.51-2.1,4.86a49.48,49.48,0,0,1-3,8.6c-2.94,6.16-.49,9,2.35,12.37.42.5.85,1,1.27,1.53,3.32,4.15,13.43,7.22,21.34,9.07,3.49.82,4.19,1.81,4.29,2.33.13.7-.57,1.35-.84,1.58-2.41-.13-33.69-1.77-38.87-5.33-3.8-2.62-4.73-7.88-4.43-10.59C125.67,237.25,126,236.92,126,236.9Z" transform="translate(-46.49 -14.97)"/><path class="cls-2" d="M165,166.42a5.93,5.93,0,0,0-4.62-2.14c-.57,0-1.09-.05-1.58-.05-3.38,0-4.86.79-5.2,1.31-.13.19-.08.29-.06.32s.38.36,1,.4l1.22.05c2.28.1,4.44.19,4.51,1.81.05,1.18,1,2,2.66,2.34a10.74,10.74,0,0,1,3.2,1.33A7.66,7.66,0,0,0,165,166.42Z" transform="translate(-46.49 -14.97)"/><path class="cls-2" d="M166.71,173.1l.13-.57a.58.58,0,0,1,0-.1c.1-.53.7-4-1.18-6.48a6.67,6.67,0,0,0-5.21-2.46c-3.87-.24-6.67.36-7.49,1.61a1.07,1.07,0,0,0-.11,1.12,1.89,1.89,0,0,0,1.65.83l1.23.06c1.91.08,3.71.15,3.75,1a2.76,2.76,0,0,0,.22.9,3.26,3.26,0,0,0,1.72,1.75l.13.05a5.6,5.6,0,0,0,1.05.33l.19.05a11,11,0,0,1,3.35,1.49l.07,0ZM163,170.46c-1.62-.29-2.61-1.16-2.66-2.34-.07-1.62-2.23-1.71-4.51-1.81l-1.22-.05c-.6,0-.9-.24-1-.4s-.07-.13.06-.32c.34-.52,1.82-1.31,5.2-1.31.49,0,1,0,1.58.05a5.93,5.93,0,0,1,4.62,2.14,7.66,7.66,0,0,1,1.11,5.37A10.74,10.74,0,0,0,163,170.46Z" transform="translate(-46.49 -14.97)"/><path class="cls-2" d="M161.13,119.9l0,0c-.5-.34-1-.61-1.43-.87s-1.12-.59-1.94-1c-.35-.15-.68-.25-1-.36s-.38-.14-.57-.19-.6-.14-.88-.19a9.05,9.05,0,0,0-3.3.11l-.31,6.25-.12,2.27a27.47,27.47,0,0,1,3.86.38,5.91,5.91,0,0,0,2.13-.3C158.78,125.43,160.45,121.64,161.13,119.9Zm-7.13,2a1.46,1.46,0,1,1,1.46-1.46A1.47,1.47,0,0,1,154,121.87Z" transform="translate(-46.49 -14.97)"/><path class="cls-2" d="M161.78,120.4c-.22-.17-.41-.33-.65-.5-.68,1.74-2.35,5.53-3.62,6.1a5.91,5.91,0,0,1-2.13.3l.24,0a12.19,12.19,0,0,0,2.63.1C159.75,125.28,161.24,121.78,161.78,120.4Z" transform="translate(-46.49 -14.97)"/><path class="cls-2" d="M155.29,116.48c.11,0,.2,0,.31,0Z" transform="translate(-46.49 -14.97)"/><path class="cls-2" d="M151.31,126.72l-.06.07.17,0a26,26,0,0,0,3.74.31l.25,0A20.72,20.72,0,0,0,151.31,126.72Z" transform="translate(-46.49 -14.97)"/><path class="cls-2" d="M162,119.62l-.16-.15a10.49,10.49,0,0,0-2.18-1.35c.59.32,1.18.66,1.83,1.09C161.73,119.35,161.86,119.48,162,119.62Z" transform="translate(-46.49 -14.97)"/><path class="cls-2" d="M157.91,117.24c-.09,0-.16,0-.24-.07.25.09.52.22.79.34Z" transform="translate(-46.49 -14.97)"/><path class="cls-2" d="M150.69,126.69l.5-9.84.2-.1.05,0-.25.08-.08,1.58-.39,7.81,0,.49Z" transform="translate(-46.49 -14.97)"/><path class="cls-2" d="M156.13,117.48c.19,0,.38.13.57.19C156.52,117.61,156.31,117.53,156.13,117.48Z" transform="translate(-46.49 -14.97)"/><path class="cls-2" d="M157.71,118c.82.38,1.44.69,1.94,1A15.92,15.92,0,0,0,157.71,118Z" transform="translate(-46.49 -14.97)"/><path class="cls-2" d="M155.25,117.29a7,7,0,0,0-3.3.09v0A9.05,9.05,0,0,1,155.25,117.29Z" transform="translate(-46.49 -14.97)"/><polygon class="cls-2" points="105.03 110.95 105.03 110.95 105.15 108.68 105.03 110.95"/><path class="cls-2" d="M151.44,116.73l-.05,0-.2.1-.5,9.84,0,.72.6-.62.06-.07a20.72,20.72,0,0,1,4.1.38l.1,0a15.46,15.46,0,0,0,3.7,0c1.77-.15,3.31-.28,6.75,1.34l.41.19.13-.43c.06-.18,1.28-4.44-4.46-8.65-.18-.14-.31-.27-.51-.41-.65-.43-1.24-.77-1.83-1.09-.43-.23-.84-.43-1.24-.61s-.54-.25-.79-.34a12.6,12.6,0,0,0-2.07-.64c-.11,0-.2,0-.31,0a7.55,7.55,0,0,0-3.39.09A3.41,3.41,0,0,0,151.44,116.73Zm14.4,10.85a12.06,12.06,0,0,0-5.15-1.29c-.53,0-1,0-1.54.09l-.9.05a12.19,12.19,0,0,1-2.63-.1l-.24,0a27.47,27.47,0,0,0-3.86-.38h0l.12-2.27.31-6.25v0a7,7,0,0,1,3.3-.09c.28,0,.56.11.88.19s.39.13.57.19c.33.11.66.21,1,.36a15.92,15.92,0,0,1,1.94,1c.47.26.93.53,1.43.87l0,0c.24.17.43.33.65.5C165.85,123.48,166,126.47,165.84,127.58Z" transform="translate(-46.49 -14.97)"/><path class="cls-2" d="M140.79,180.91a9,9,0,0,1,5.35-.1l2.67-3.93a4,4,0,0,0-1.47-.24,10.34,10.34,0,0,0-5.37,1.88c-3.3,2.06-5.48,6.49-6.6,9.29.29-.44.58-.91.87-1.38C137.73,184,139.27,181.56,140.79,180.91Z" transform="translate(-46.49 -14.97)"/><path class="cls-2" d="M141.1,181.63c2.11-.9,5.06,0,5.09,0l.28.09,3.47-5.11-.31-.23c-.11-.08-2.71-1.91-8.08,1.45s-7.71,11.88-7.81,12.25l-.44,1.58,1.11-1.21a26.84,26.84,0,0,0,2.51-3.63C138.27,184.66,139.81,182.19,141.1,181.63Zm.87-3.11a10.34,10.34,0,0,1,5.37-1.88,4,4,0,0,1,1.47.24l-2.67,3.93a9,9,0,0,0-5.35.1c-1.52.65-3.06,3.12-4.55,5.52-.29.47-.58.94-.87,1.38C136.49,185,138.67,180.58,142,178.52Z" transform="translate(-46.49 -14.97)"/><path class="cls-1" d="M154,119a1.46,1.46,0,1,0,1.46,1.46A1.46,1.46,0,0,0,154,119Z" transform="translate(-46.49 -14.97)"/><path class="cls-1" d="M231,314.29c-15.34,7.86-15.26,27.8-15.21,42.37,0,8.34.06,14.93-2.63,17.35a3.78,3.78,0,0,1-3.46,1c-5.74-1.29-12.19-16.6-19-32.8-1.35-3.22-2.75-6.54-4.14-9.74-8.43-19.41-8.22-49.28-8-56.14-20.73,32.72-20.22,76.07-19.15,92.32,1.1-19.12,6.46-30.23,15.56-32.18a11.65,11.65,0,0,1,2.5-.27c8.5,0,13.16,9.92,16.66,17.34.88,1.87,1.71,3.63,2.49,5,.59,1,1.22,2.23,1.88,3.49,3.49,6.71,7.84,15.07,14.56,13.33,4.49-1.16,7.31-12.38,10-23.22,2.15-8.52,4.36-17.33,7.46-21.39a3.34,3.34,0,0,1,3.56-1.56c4,1,8.33,9.94,11.22,17.28a140.7,140.7,0,0,1,6.89,22.68,17.6,17.6,0,0,1,.24,1.81,37.29,37.29,0,0,0,5.94-7c-4.88-12.93-7.47-31.26-9.86-48.24-.92-6.56-1.82-12.83-2.8-18.64C241.44,305.6,236.55,311.43,231,314.29Z" transform="translate(-46.49 -14.97)"/><path class="cls-2" d="M258.31,364a37.29,37.29,0,0,1-5.94,7,17.6,17.6,0,0,0-.24-1.81,140.7,140.7,0,0,0-6.89-22.68c-2.89-7.34-7.19-16.3-11.22-17.28a3.34,3.34,0,0,0-3.56,1.56c-3.1,4.06-5.31,12.87-7.46,21.39-2.73,10.84-5.55,22.06-10,23.22-6.72,1.74-11.07-6.62-14.56-13.33-.66-1.26-1.29-2.46-1.88-3.49-.78-1.36-1.61-3.12-2.49-5-3.5-7.42-8.16-17.34-16.66-17.34a11.65,11.65,0,0,0-2.5.27c-9.1,1.95-14.46,13.06-15.56,32.18-1.07-16.25-1.58-59.6,19.15-92.32-.18,6.86-.39,36.73,8,56.14,1.39,3.2,2.79,6.52,4.14,9.74,6.83,16.2,13.28,31.51,19,32.8a3.78,3.78,0,0,0,3.46-1c2.69-2.42,2.67-9,2.63-17.35-.05-14.57-.13-34.51,15.21-42.37,5.59-2.86,10.48-8.69,14.69-17.19-.07-.46-.15-.92-.22-1.37-3.83,8.08-8.68,14.71-14.83,17.86-15.78,8.08-15.7,28.3-15.64,43.07,0,7.82.06,14.58-2.37,16.76a3,3,0,0,1-2.75.85c-3.65-.81-7.9-8.42-12.28-18-2.05-4.49-4.13-9.42-6.19-14.3-1.35-3.22-2.75-6.54-4.15-9.75a68.77,68.77,0,0,1-2.87-8.13l-.12-.37c-.68-2.37-1.25-4.81-1.76-7.28-4.08-19.74-3.19-41.16-3.18-41.44l.07-1.44-.35.54-.44.67c-.14.21-.25.43-.39.64-22.51,35-20.6,82.29-19.47,96a.63.63,0,0,0,1.26,0c.74-20.35,5.95-32.14,15.06-34.1a10.77,10.77,0,0,1,3-.2c.27,0,.53.06.8.1,7.1,1.12,11.29,10,14.47,16.73.89,1.89,1.72,3.67,2.52,5.06.59,1,1.21,2.2,1.86,3.46,3.12,6,7.29,14,13.52,14a7.48,7.48,0,0,0,1.95-.26c4.94-1.28,7.69-12.21,10.61-23.79,2.12-8.44,4.32-17.17,7.32-21.1,1.1-1.44,2.28-1.71,3.7-.86,8.22,4.88,17.49,39.69,16.76,41.33l0,0,.48.63a.81.81,0,0,0,.1-.09,37.45,37.45,0,0,0,6.48-7.35C258.53,364.59,258.42,364.28,258.31,364Z" transform="translate(-46.49 -14.97)"/><path class="cls-2" d="M193.06,40.41l.11-.06h.12c.28,0,2.76.29,3.42,1.72a2.35,2.35,0,0,1-.48,2.37c-.4.55-2.94,4.57-4.3,16.62,2.9,6.79,7.82,10.16,13,13.61,6.64,4.43,13.5,9,16.5,21.29,4.73,19.37,9.35,36.25,19.78,56.83,3.85,4.21,7.55,10.19,10.07,19.7v0a34.92,34.92,0,0,1,2.16,6.92c2.41,6.66,5.07,10.73,7.45,13.06a17.25,17.25,0,0,0,5.72,2.69l2.07.45-2.09.33s-.17,0-.39,0a8.16,8.16,0,0,1-5.11-2.24,30.37,30.37,0,0,1-7.75-7.17,48.11,48.11,0,0,1-1.68,5.52c-.72,2.07-1.53,4.42-2.29,7.33-4.5,17.18-7.5,36.19,4.28,47,2.23,2.06,3.31,3.83,3.38,5.58.1,2.47-1.8,4.53-4.21,7.13-4.87,5.26-11.53,12.47-8,29.09,1.7,8,3,17.4,4.43,27.39,3.86,27.53,8.25,58.74,22,63.94,3.76,1.43,5.89,3.16,6.49,5.3.94,3.35-2,7.16-5.11,11.18-3.86,5-8.23,10.63-5.71,16.22,4.31,9.59,25,27.36,38.61,28.64,4,.38,7-.75,8.79-3.36.68-1,1.41-2,2.18-3.09,9.1-12.84,24.32-34.32,16.65-46a5.21,5.21,0,0,1-.78-4.23c1.33-5.35,10.83-10.56,20.88-16.07,12.09-6.63,24.6-13.49,22.74-20.62-1.54-5.91-2.1-8.63-1-9.94,1-1.14,2.95-1,6.55-.68a91.28,91.28,0,0,0,11.71.38c4.4-.16,7.13-1.22,8.37-3.25,2.4-3.93-1-11.22-4.67-18.93-1.41-3-2.86-6.08-4.05-9.12-2.12-5.41-1.07-13.09.15-22,2.2-16,4.94-35.94-9.19-53.6-22-27.51-21-39.38-13.06-61.79,8-22.63-.08-75.73-30.44-104.19-13.8-12.95-32.83-29.06-57.64-38.91C255.79,14.86,226.57,13,193.33,19.7l-.08,0-.09,0a14.72,14.72,0,0,0-3.18-.33A10.21,10.21,0,0,0,184,21c-1.93,1.4-3,3.67-3.26,6.75-.4,5.27.63,6.76,2.33,9.23a33.81,33.81,0,0,1,4.63,9.2A17.89,17.89,0,0,1,193.06,40.41ZM327,357.09a43.53,43.53,0,0,0,6.89-1.52,44.56,44.56,0,0,0,6.64-2.55,38.83,38.83,0,0,0,11.74-8.17,34.61,34.61,0,0,1-11,9.55,44.34,44.34,0,0,1-13.86,5.13,32,32,0,0,1-7.52.56,24.6,24.6,0,0,1-7.53-1.47,19.48,19.48,0,0,1-6.62-4.13,20.46,20.46,0,0,1-4.51-6.35,17.3,17.3,0,0,1-.74-1.79l-.65-1.73-1.26-3.28a66.47,66.47,0,0,0-3.23-6.28c-1.12-2.09-2.5-4-3.82-6l-2.14-2.86c-.7-1-1.49-1.86-2.23-2.8a147.22,147.22,0,0,0-20.64-20.13A103.14,103.14,0,0,1,289,321.79a73.09,73.09,0,0,1,8.9,11.74,60.68,60.68,0,0,1,3.5,6.57l1.37,3.48.65,1.66a12.57,12.57,0,0,0,.66,1.56,17.52,17.52,0,0,0,3.78,5.46,17.14,17.14,0,0,0,5.57,3.57C317.62,357.53,322.4,357.68,327,357.09Zm-30.74-63.83a41.45,41.45,0,0,1-14.06-.78,29,29,0,0,1-12.67-6.67,20.62,20.62,0,0,1-4.31-6,31.67,31.67,0,0,1-2.32-6.79,47.41,47.41,0,0,1-1-7c-.1-1.17-.14-2.33-.17-3.49s0-2.33,0-3.49a94.15,94.15,0,0,1,1.46-13.74A101.72,101.72,0,0,1,266.52,232c-.75,4.52-1.35,9-1.75,13.56a120.73,120.73,0,0,0-.53,13.56c.05,2.24.19,4.48.43,6.7a43.23,43.23,0,0,0,1.16,6.54,31.68,31.68,0,0,0,2.18,6.11,17.47,17.47,0,0,0,3.71,5A26.38,26.38,0,0,0,283,289.58a42,42,0,0,0,13.12,1.21c9-.49,17.79-2.92,26.49-5.72C314.37,289.09,305.59,292.27,296.28,293.26Zm-80-252.51a27.69,27.69,0,0,0,5,16.18,25.47,25.47,0,0,0,2.71,3.23,25.88,25.88,0,0,0,3.23,2.69,31.19,31.19,0,0,0,7.45,3.86,47,47,0,0,0,8.2,2.1c.7.12,1.41.19,2.11.29l1.06.14,1.14.19,1.15.2a6.32,6.32,0,0,1,1.13.24l2.23.68a22.11,22.11,0,0,1,7.81,5.06l.81.83a7.76,7.76,0,0,1,.76.87c.48.6,1,1.2,1.42,1.81L263.69,81c.42.64.76,1.31,1.13,2,5.59,10.71,7.46,22.39,12.47,32.66a37.08,37.08,0,0,0,4.44,7.2c.22.28.42.57.65.84l.71.77a17.58,17.58,0,0,0,1.48,1.51l1.58,1.39,1.73,1.21a25.82,25.82,0,0,0,7.76,3.46,31.8,31.8,0,0,0,4.23.9,6.53,6.53,0,0,0,1.08.15l1.08.1,2.18.2-2.19,0-1.1,0a8.09,8.09,0,0,1-1.1,0,32.5,32.5,0,0,1-4.38-.52c-.72-.15-1.46-.26-2.17-.45l-2.12-.69a13.85,13.85,0,0,1-2.07-.85,14.47,14.47,0,0,1-2-1c-5.26-3-9.23-7.88-12-13.12-.73-1.3-1.35-2.65-2-4s-1.17-2.72-1.69-4.09c-1.08-2.75-2-5.51-3-8.26-1.89-5.49-3.69-11-6.38-15.94-.35-.61-.66-1.25-1-1.83l-1.13-1.75c-.41-.55-.84-1.08-1.26-1.63a6.16,6.16,0,0,0-.67-.77l-.7-.74a20,20,0,0,0-6.68-4.45l-1.93-.63a4.62,4.62,0,0,0-1-.24l-1-.2-1-.19-1.09-.18c-.74-.12-1.48-.22-2.21-.36A45,45,0,0,1,233.72,69a28.45,28.45,0,0,1-13.79-11.22A26.63,26.63,0,0,1,216.24,40.75Z" transform="translate(-46.49 -14.97)"/><path class="cls-2" d="M397.63,314.79c-1.41-3-2.86-6.05-4-9.07-2.05-5.22-1-12.81.2-21.59,2.22-16.16,5-36.28-9.36-54.2-21.76-27.2-20.74-38.92-12.93-61,4.14-11.74,3.9-30.84-.64-49.85-5.37-22.47-16-42.07-30-55.18S307.91,34.69,283,24.79c-27-10.72-56.36-12.64-89.71-5.88-.77-.18-6-1.22-9.73,1.49-2.13,1.54-3.34,4-3.59,7.33-.4,5.35.66,7.1,2.3,9.48,0,.09.11.17.17.26l.29.43a33.55,33.55,0,0,1,4.46,9.22c.17-.31.35-.61.53-.9a33.81,33.81,0,0,0-4.63-9.2c-1.7-2.47-2.73-4-2.33-9.23.23-3.08,1.33-5.35,3.26-6.75a10.21,10.21,0,0,1,6-1.67,14.72,14.72,0,0,1,3.18.33l.09,0,.08,0c33.24-6.75,62.46-4.84,89.35,5.83,24.81,9.85,43.84,26,57.64,38.91C370.68,92.9,378.75,146,370.76,168.63c-7.91,22.41-8.94,34.28,13.06,61.79C398,248.08,395.21,268,393,284c-1.22,8.9-2.27,16.58-.15,22,1.19,3,2.64,6.13,4.05,9.12,3.63,7.71,7.07,15,4.67,18.93-1.24,2-4,3.09-8.37,3.25a91.28,91.28,0,0,1-11.71-.38c-3.6-.3-5.59-.46-6.55.68-1.1,1.31-.54,4,1,9.94,1.86,7.13-10.65,14-22.74,20.62-10,5.51-19.55,10.72-20.88,16.07a5.21,5.21,0,0,0,.78,4.23c7.67,11.67-7.55,33.15-16.65,46-.77,1.08-1.5,2.11-2.18,3.09-1.83,2.61-4.79,3.74-8.79,3.36-13.59-1.28-34.3-19.05-38.61-28.64-2.52-5.59,1.85-11.24,5.71-16.22,3.11-4,6.05-7.83,5.11-11.18-.6-2.14-2.73-3.87-6.49-5.3-13.72-5.2-18.11-36.41-22-63.94-1.41-10-2.73-19.43-4.43-27.39-3.53-16.62,3.13-23.83,8-29.09,2.41-2.6,4.31-4.66,4.21-7.13-.07-1.75-1.15-3.52-3.38-5.58-11.78-10.81-8.78-29.82-4.28-47,.76-2.91,1.57-5.26,2.29-7.33a48.11,48.11,0,0,0,1.68-5.52c-.3-.38-.58-.75-.86-1.12a33.52,33.52,0,0,1-1.57,6.38c-.72,2.08-1.54,4.44-2.31,7.39-3.8,14.54-6.85,32.1,1,43.68.15.22.32.42.47.64a24.15,24.15,0,0,0,3,3.47c2.07,1.9,3.07,3.5,3.13,5,.09,2.14-1.72,4.09-4,6.56-4.7,5.09-11.81,12.77-8.19,29.8.49,2.31,1,4.78,1.39,7.32.07.45.15.91.22,1.37,1,5.81,1.88,12.08,2.8,18.64,2.39,17,5,35.31,9.86,48.24.11.3.22.61.33.9,3.05,7.76,7,13.42,12.29,15.43,3.51,1.34,5.48,2.9,6,4.78.83,3-2,6.61-5,10.47-4,5.16-8.51,11-5.8,17,4.38,9.75,25.44,27.81,39.26,29.11.53.05,1,.08,1.54.08,3.53,0,6.21-1.27,8-3.78l2.17-3.08c9.82-13.84,24.64-34.76,16.68-46.88a4.39,4.39,0,0,1-.68-3.61c1.25-5,11-10.38,20.49-15.57,12.36-6.77,25.14-13.78,23.12-21.51-1.48-5.71-2-8.26-1.16-9.23s2.65-.67,5.89-.4a90.75,90.75,0,0,0,11.8.38c4.68-.16,7.63-1.35,9-3.63C404.87,330.18,401.35,322.7,397.63,314.79Z" transform="translate(-46.49 -14.97)"/><path class="cls-2" d="M253.43,179.45a34.92,34.92,0,0,0-2.16-6.92C252,175.1,252.68,177.39,253.43,179.45Z" transform="translate(-46.49 -14.97)"/><path class="cls-2" d="M221.42,96c-3-12.28-9.86-16.86-16.5-21.29-5.17-3.45-10.09-6.82-13-13.61-.06.53-.11,1.09-.17,1.66,3,6.12,7.77,9.3,12.73,12.61,4.75,3.18,9.6,6.46,13,12.64a31.51,31.51,0,0,1,2.24,5.22c.31,1,.64,1.89.9,3,1,4,2,8,3,11.86.09.35.18.7.28,1l.54,2.06c.09.3.16.61.25.92a213.74,213.74,0,0,0,14.62,38.81c.62.59,1.23,1.26,1.84,1.94C230.77,132.22,226.15,115.34,221.42,96Z" transform="translate(-46.49 -14.97)"/><path class="cls-2" d="M185.19,54.44c-2.14,9.08-1.53,25.54,13.5,52.4,19,34,31.48,45.27,38.91,52,3.91,3.54,6.27,5.67,7.21,9.18a45.21,45.21,0,0,0,12.94,22c-2.42-3.44-5-8.85-7.25-17.35-4.5-17-12.86-22.75-18.95-26.93-2.54-1.74-4.74-3.24-6-5.18a87.38,87.38,0,0,0-5.53-6.8c-10.3-12-29.49-34.48-29.73-52.74C190,59.54,193,47.64,195.59,44c.45-.64.59-1.17.4-1.58-.37-.81-1.93-1.16-2.64-1.25C192.54,41.69,187.32,45.38,185.19,54.44Z" transform="translate(-46.49 -14.97)"/><path class="cls-2" d="M183.61,59.89c0,.37-.06.74-.08,1.12-.65,15.4,7.19,33.21,14.47,46.22l.12.2c.17.32.34.6.51.91l1.48,2.58.43.76c2.67,4.64,5.23,8.87,7.64,12.65.24.38.47.72.71,1.09l.74,1.15c.19.28.37.57.55.84,1.9,2.89,3.7,5.51,5.43,7.91l.52.73a135.73,135.73,0,0,0,20.94,23.37c3.8,3.44,6.1,5.51,7,8.79A54.58,54.58,0,0,0,252,184.83c.15.2.34.43.49.64.28.37.56.74.86,1.12a30.37,30.37,0,0,0,7.75,7.17,8.16,8.16,0,0,0,5.11,2.24c.22,0,.35,0,.39,0l2.09-.33-2.07-.45a17.25,17.25,0,0,1-5.72-2.69c-2.38-2.33-5-6.4-7.45-13.06-.75-2.06-1.47-4.35-2.16-6.92v0c-2.52-9.51-6.22-15.49-10.07-19.7-.61-.68-1.22-1.35-1.84-1.94a56.72,56.72,0,0,0-7.37-5.74c-2.57-1.76-4.6-3.15-5.75-5a40.2,40.2,0,0,0-2.86-3.67l-.82-1c-.16-.18-.35-.4-.51-.6l-1.41-1.64-1.2-1.42A231.39,231.39,0,0,1,203.21,111c-.15-.22-.3-.44-.44-.66-1-1.43-1.88-2.87-2.77-4.33l-.41-.71c-4.83-8.12-8.38-16.6-8.48-24.28a166.88,166.88,0,0,1,.65-18.31c.06-.57.11-1.13.17-1.66,1.36-12,3.9-16.07,4.3-16.62a2.35,2.35,0,0,0,.48-2.37c-.66-1.43-3.14-1.7-3.42-1.72h-.12l-.11.06a17.89,17.89,0,0,0-5.37,5.81c-.18.29-.36.59-.53.9a27.18,27.18,0,0,0-2.72,7.06A34.61,34.61,0,0,0,183.61,59.89ZM196,42.41c.19.41,0,.94-.4,1.58C193,47.64,190,59.54,190.31,81.05c.24,18.26,19.43,40.69,29.73,52.74a87.38,87.38,0,0,1,5.53,6.8c1.24,1.94,3.44,3.44,6,5.18,6.09,4.18,14.45,9.9,18.95,26.93,2.25,8.5,4.83,13.91,7.25,17.35a45.21,45.21,0,0,1-12.94-22c-.94-3.51-3.3-5.64-7.21-9.18-7.43-6.72-19.87-18-38.91-52-15-26.86-15.64-43.32-13.5-52.4s7.35-12.75,8.16-13.28C194.06,41.25,195.62,41.6,196,42.41Z" transform="translate(-46.49 -14.97)"/><path class="cls-1" d="M283,289.58a26.38,26.38,0,0,1-11.25-6.08,17.47,17.47,0,0,1-3.71-5,31.68,31.68,0,0,1-2.18-6.11,43.23,43.23,0,0,1-1.16-6.54c-.24-2.22-.38-4.46-.43-6.7a120.73,120.73,0,0,1,.53-13.56c.4-4.53,1-9,1.75-13.56a101.72,101.72,0,0,0-3.28,13.36,94.15,94.15,0,0,0-1.46,13.74c0,1.16,0,2.32,0,3.49s.07,2.32.17,3.49a47.41,47.41,0,0,0,1,7,31.67,31.67,0,0,0,2.32,6.79,20.62,20.62,0,0,0,4.31,6,29,29,0,0,0,12.67,6.67,41.45,41.45,0,0,0,14.06.78c9.31-1,18.09-4.17,26.3-8.19-8.7,2.8-17.54,5.23-26.49,5.72A42,42,0,0,1,283,289.58Z" transform="translate(-46.49 -14.97)"/><path class="cls-1" d="M307.88,352.26a17.52,17.52,0,0,1-3.78-5.46,12.57,12.57,0,0,1-.66-1.56l-.65-1.66-1.37-3.48a60.68,60.68,0,0,0-3.5-6.57,73.09,73.09,0,0,0-8.9-11.74,103.14,103.14,0,0,0-22.5-18.52,147.22,147.22,0,0,1,20.64,20.13c.74.94,1.53,1.83,2.23,2.8l2.14,2.86c1.32,2,2.7,3.91,3.82,6a66.47,66.47,0,0,1,3.23,6.28l1.26,3.28.65,1.73a17.3,17.3,0,0,0,.74,1.79,20.46,20.46,0,0,0,4.51,6.35,19.48,19.48,0,0,0,6.62,4.13,24.6,24.6,0,0,0,7.53,1.47,32,32,0,0,0,7.52-.56,44.34,44.34,0,0,0,13.86-5.13,34.61,34.61,0,0,0,11-9.55A38.83,38.83,0,0,1,340.55,353a44.56,44.56,0,0,1-6.64,2.55,43.53,43.53,0,0,1-6.89,1.52c-4.62.59-9.4.44-13.57-1.26A17.14,17.14,0,0,1,307.88,352.26Z" transform="translate(-46.49 -14.97)"/><path class="cls-1" d="M233.72,69a45,45,0,0,0,8.61,2.53c.73.14,1.47.24,2.21.36l1.09.18,1,.19,1,.2a4.62,4.62,0,0,1,1,.24l1.93.63a20,20,0,0,1,6.68,4.45l.7.74a6.16,6.16,0,0,1,.67.77c.42.55.85,1.08,1.26,1.63L261,82.68c.37.58.68,1.22,1,1.83,2.69,4.94,4.49,10.45,6.38,15.94,1,2.75,1.91,5.51,3,8.26.52,1.37,1.11,2.73,1.69,4.09s1.26,2.69,2,4c2.75,5.24,6.72,10.14,12,13.12a14.47,14.47,0,0,0,2,1,13.85,13.85,0,0,0,2.07.85l2.12.69c.71.19,1.45.3,2.17.45a32.5,32.5,0,0,0,4.38.52,8.09,8.09,0,0,0,1.1,0l1.1,0,2.19,0-2.18-.2-1.08-.1a6.53,6.53,0,0,1-1.08-.15,31.8,31.8,0,0,1-4.23-.9,25.82,25.82,0,0,1-7.76-3.46l-1.73-1.21L284.57,126a17.58,17.58,0,0,1-1.48-1.51l-.71-.77c-.23-.27-.43-.56-.65-.84a37.08,37.08,0,0,1-4.44-7.2c-5-10.27-6.88-22-12.47-32.66-.37-.66-.71-1.33-1.13-2l-1.26-1.91c-.45-.61-.94-1.21-1.42-1.81a7.76,7.76,0,0,0-.76-.87l-.81-.83a22.11,22.11,0,0,0-7.81-5.06l-2.23-.68a6.32,6.32,0,0,0-1.13-.24l-1.15-.2L246,69.24l-1.06-.14c-.7-.1-1.41-.17-2.11-.29a47,47,0,0,1-8.2-2.1,31.19,31.19,0,0,1-7.45-3.86,25.88,25.88,0,0,1-3.23-2.69,25.47,25.47,0,0,1-2.71-3.23,27.69,27.69,0,0,1-5-16.18,26.63,26.63,0,0,0,3.69,17A28.45,28.45,0,0,0,233.72,69Z" transform="translate(-46.49 -14.97)"/><path class="cls-2" d="M47.56,381.27l-1.07-.62c2.46-4.3,9-13.27,9.31-13.65l.11-.15.17-.06c.31-.11,30.45-11.21,47.52-19.74s22.62-11.54,22.68-11.57l.59,1.08c-.05,0-5.6,3.06-22.72,11.6C87.7,356.38,59.2,367,56.69,367.89,55.8,369.1,49.82,377.32,47.56,381.27Z" transform="translate(-46.49 -14.97)"/><path class="cls-2" d="M428.59,384.19l-8.24-6.88c-7.67-6.41-15-12-15.9-12.62-26.49-8-80-30.62-80.55-30.85l.49-1.14c.53.23,54.14,22.89,80.52,30.84l.19.1c.08.05,7.89,5.91,16,12.72l8.24,6.88Z" transform="translate(-46.49 -14.97)"/></svg>