<svg width="32" height="32" viewBox="0 0 32 32" fill="none" xmlns="http://www.w3.org/2000/svg">
<path d="M13.8826 23.1738C14.2988 24.0657 15.1924 24.6939 16.2405 24.7043C17.2886 24.7146 18.1944 24.1041 18.6282 23.2207L13.8826 23.1738Z" fill="#999999"/>
<path d="M23.7491 21.9474L22.4766 19.7781C21.8889 18.7768 21.5845 17.6336 21.5959 16.4732L21.6146 14.5842C21.6381 12.1993 20.0666 10.1665 17.8969 9.49471L17.9102 8.14217C17.9184 7.31104 17.2492 6.62847 16.4181 6.62027C15.5869 6.61207 14.9044 7.28129 14.8962 8.11242L14.8828 9.46496C12.7003 10.0938 11.089 12.0952 11.0654 14.48L11.0468 16.3691C11.0353 17.5295 10.7084 18.6657 10.1018 19.6552L8.78671 21.799C8.71548 21.9151 8.71253 22.0597 8.77844 22.1787C8.84435 22.2976 8.96795 22.372 9.10359 22.3733L23.4202 22.5146C23.5559 22.516 23.6816 22.4441 23.7499 22.3272C23.8181 22.2103 23.8173 22.0641 23.7491 21.9474Z" fill="#999999"/>
<circle cx="16" cy="16" r="15.5" stroke="#999999"/>
</svg>
