<svg width="17" height="17" viewBox="0 0 17 17" fill="none" xmlns="http://www.w3.org/2000/svg">
<path d="M0.207799 15.7909L5.04217 10.9565C4.10575 9.7998 3.54192 8.33 3.54192 6.72918C3.54192 3.01893 6.56085 0 10.2711 0C13.9814 0 17.0002 3.01889 17.0002 6.72914C17.0002 10.4394 13.9813 13.4583 10.2711 13.4583C8.67024 13.4583 7.20044 12.8945 6.04375 11.9581L1.20937 16.7924C1.07125 16.9306 0.889924 17 0.708568 17C0.527213 17 0.345891 16.9306 0.207766 16.7924C-0.0691817 16.5155 -0.0691814 16.0678 0.207799 15.7909ZM10.2711 12.0416C13.2007 12.0416 15.5836 9.65882 15.5836 6.72914C15.5836 3.79947 13.2007 1.41664 10.2711 1.41664C7.34139 1.41664 4.95857 3.79947 4.95857 6.72914C4.95857 9.65882 7.34142 12.0416 10.2711 12.0416Z" fill="black"/>
</svg>
