<svg width="17" height="16" viewBox="0 0 17 16" fill="none" xmlns="http://www.w3.org/2000/svg">
<path d="M0.197014 13.934L6.87381 7.55262L0.296848 1.06843C0.0470189 0.822128 0.050083 0.42714 0.303703 0.184741C0.557323 -0.0576586 0.964229 -0.0545021 1.21406 0.191803L8.24278 7.12138C8.49261 7.36768 8.48955 7.76267 8.23593 8.00507L1.10054 14.8248C0.974053 14.9457 0.80877 15.0056 0.643931 15.0044C0.479123 15.0031 0.314759 14.9405 0.190159 14.8177C-0.05967 14.5714 -0.0566059 14.1764 0.197014 13.934Z" fill="black"/>
<path d="M8.19701 13.934L14.8738 7.55262L8.29685 1.06843C8.04702 0.822128 8.05008 0.42714 8.3037 0.184741C8.55732 -0.0576586 8.96423 -0.0545021 9.21406 0.191803L16.2428 7.12138C16.4926 7.36768 16.4895 7.76267 16.2359 8.00507L9.10054 14.8248C8.97405 14.9457 8.80877 15.0056 8.64393 15.0044C8.47912 15.0031 8.31476 14.9405 8.19016 14.8177C7.94033 14.5714 7.94339 14.1764 8.19701 13.934Z" fill="black"/>
</svg>
