<svg width="21" height="22" viewBox="0 0 21 22" fill="none" xmlns="http://www.w3.org/2000/svg">
<path d="M20.7345 20.4353L14.7653 14.179C15.9215 12.6821 16.6177 10.78 16.6177 8.70835C16.6177 3.90685 12.8901 0 8.30884 0C3.72759 0 0 3.9068 0 8.7083C0 13.5098 3.72763 17.4167 8.30888 17.4167C10.2855 17.4167 12.1003 16.687 13.5286 15.4752L19.4979 21.7314C19.6684 21.9102 19.8923 22 20.1162 22C20.3401 22 20.564 21.9102 20.7346 21.7314C21.0765 21.373 21.0765 20.7937 20.7345 20.4353ZM8.30888 15.5833C4.69145 15.5833 1.74925 12.4997 1.74925 8.7083C1.74925 4.91696 4.69145 1.8333 8.30888 1.8333C11.9263 1.8333 14.8685 4.91696 14.8685 8.7083C14.8685 12.4997 11.9263 15.5833 8.30888 15.5833Z" fill="#333333"/>
</svg>
