<svg width="31" height="28" viewBox="0 0 31 28" fill="none" xmlns="http://www.w3.org/2000/svg">
<path d="M29.8834 12.4923L18.5756 1.24882C18.2163 0.892768 17.6773 0.784067 17.2061 0.977741C16.7362 1.17013 16.4309 1.62739 16.4309 2.1321V7.13418C9.20146 7.42899 2.89427 12.2824 0.873941 19.2371C-0.000522248 22.2529 0.0673293 24.7027 0.0924209 25.6259L0.0974515 25.8682C0.0974515 26.4304 0.475604 26.9239 1.01964 27.0725C1.13148 27.1026 1.24326 27.1175 1.35387 27.1175C1.78859 27.1175 2.20318 26.8914 2.43312 26.5079C7.40978 18.1902 14.0035 17.9541 16.4309 18.189V24.619C16.4309 25.1237 16.7362 25.581 17.2061 25.7734C17.6773 25.9683 18.2163 25.8596 18.5756 25.5023L29.8834 14.2589C30.3746 13.7703 30.3746 12.9807 29.8834 12.4923Z" fill="#888888"/>
</svg>
