<svg width="17" height="17" viewBox="0 0 17 17" fill="none" xmlns="http://www.w3.org/2000/svg">
<g clip-path="url(#clip0_1324_218058)">
<path d="M15.7858 2.42858H11.5358V1.82143C11.5358 0.81548 10.7203 0 9.71435 0H7.28577C6.27982 0 5.46434 0.81548 5.46434 1.82143V2.42858H1.21433C0.879004 2.42858 0.607178 2.70041 0.607178 3.03573C0.607178 3.37106 0.87904 3.64285 1.21433 3.64285H1.87428L3.03576 16.4481C3.0644 16.7616 3.32804 17.0013 3.64291 17H13.3572C13.6721 17.0013 13.9357 16.7617 13.9644 16.4481L15.1258 3.64285H15.7858C16.1211 3.64285 16.3929 3.37103 16.3929 3.0357C16.3929 2.70037 16.1211 2.42858 15.7858 2.42858ZM6.67862 1.82143C6.67862 1.4861 6.95044 1.21427 7.28577 1.21427H9.71435C10.0497 1.21427 10.3215 1.4861 10.3215 1.82143V2.42858H6.67865V1.82143H6.67862ZM12.8029 15.7857H4.19724L3.09649 3.64285H6.0715H13.9067L12.8029 15.7857Z" fill="white"/>
<path d="M6.67863 13.9235C6.67856 13.9227 6.67852 13.9219 6.67845 13.921L6.0713 5.42106C6.0475 5.08573 5.75635 4.83322 5.42106 4.85702C5.08573 4.88082 4.83322 5.17197 4.85702 5.50726L5.46418 14.0072C5.48684 14.3256 5.75216 14.5721 6.07133 14.5713H6.11505C6.44956 14.548 6.7019 14.258 6.67863 13.9235Z" fill="white"/>
<path d="M8.49998 4.85693C8.16465 4.85693 7.89282 5.12876 7.89282 5.46409V13.9641C7.89282 14.2994 8.16465 14.5712 8.49998 14.5712C8.83531 14.5712 9.10713 14.2994 9.10713 13.9641V5.46409C9.10713 5.12876 8.83531 4.85693 8.49998 4.85693Z" fill="white"/>
<path d="M11.5789 4.85702C11.2435 4.83322 10.9524 5.08573 10.9286 5.42106L10.3215 13.921C10.2969 14.2554 10.5481 14.5465 10.8825 14.5711C10.8835 14.5711 10.8845 14.5712 10.8855 14.5713H10.9286C11.2478 14.5721 11.5131 14.3256 11.5358 14.0072L12.143 5.50726C12.1668 5.17197 11.9142 4.88086 11.5789 4.85702Z" fill="white"/>
</g>
<defs>
<clipPath id="clip0_1324_218058">
<rect width="17" height="17" fill="white"/>
</clipPath>
</defs>
</svg>
