<svg width="4" height="19" viewBox="0 0 4 19" fill="none" xmlns="http://www.w3.org/2000/svg">
<path d="M2.00067 18.3331C1.80587 18.3331 1.61299 18.2947 1.43302 18.2201C1.25305 18.1456 1.08953 18.0363 0.951792 17.8986C0.814051 17.7609 0.70479 17.5973 0.630246 17.4174C0.555701 17.2374 0.517334 17.0445 0.517334 16.8497V16.8497V7.29974C0.517334 6.90633 0.673613 6.52904 0.951792 6.25086C1.22997 5.97269 1.60726 5.81641 2.00067 5.81641C2.39407 5.81641 2.77136 5.97269 3.04954 6.25086C3.32772 6.52904 3.484 6.90633 3.484 7.29974V16.8497C3.484 17.2431 3.32772 17.6204 3.04954 17.8986C2.77136 18.1768 2.39407 18.3331 2.00067 18.3331V18.3331Z" fill="white"/>
<path d="M2.00001 1.75086e-05C2.39558 1.75086e-05 2.78226 0.117316 3.11115 0.337078C3.44005 0.556841 3.6964 0.869198 3.84777 1.23465C3.99915 1.6001 4.03875 2.00223 3.96158 2.3902C3.88441 2.77816 3.69393 3.13452 3.41423 3.41423C3.13452 3.69393 2.77816 3.88441 2.3902 3.96158C2.00223 4.03875 1.6001 3.99915 1.23465 3.84777C0.869197 3.6964 0.55684 3.44005 0.337077 3.11116C0.117315 2.78226 1.75086e-05 2.39558 1.75086e-05 2.00002V2.00002C-0.00108503 1.73706 0.049894 1.4765 0.150013 1.23335C0.250132 0.990198 0.397407 0.769282 0.583344 0.583345C0.769281 0.397408 0.990198 0.250132 1.23335 0.150013C1.4765 0.049894 1.73706 -0.00108503 2.00001 1.75086e-05V1.75086e-05Z" fill="white"/>
</svg>
