<svg width="16" height="17" viewBox="0 0 16 17" fill="none" xmlns="http://www.w3.org/2000/svg">
<path fill-rule="evenodd" clip-rule="evenodd" d="M13.8851 3.0047C14.0802 2.79038 14.2036 2.52543 14.2274 2.26971C14.2513 2.01344 14.1732 1.7874 14.011 1.64284L12.855 0.661791C12.6781 0.560589 12.457 0.532218 12.2235 0.582476C11.9693 0.63711 11.7169 0.781375 11.5093 0.988477L10.2657 2.42779L12.6416 4.44401L13.8851 3.0047Z" fill="white"/>
<path fill-rule="evenodd" clip-rule="evenodd" d="M9.53833 3.27002L11.9142 5.28624L5.10854 13.1629L2.73271 11.1467L9.53833 3.27002Z" fill="white"/>
<path fill-rule="evenodd" clip-rule="evenodd" d="M1.98535 12.0103L4.36119 14.0265L1.43306 15.3478C1.35036 15.3758 1.27024 15.3652 1.21576 15.319C1.16129 15.2727 1.13842 15.1959 1.15353 15.1106C1.43079 14.0772 1.70806 13.0437 1.98535 12.0103Z" fill="white"/>
<rect x="1.13501" y="15.814" width="14.8445" height="0.700562" rx="0.350281" fill="white"/>
</svg>
