<svg width="17" height="15" viewBox="0 0 17 15" fill="none" xmlns="http://www.w3.org/2000/svg">
<path d="M8.5 1.07143C7.30766 1.07143 6.16182 1.34263 5.099 1.80134L5.9094 2.61496C6.72975 2.31696 7.59993 2.14286 8.5 2.14286C11.7881 2.14286 14.7407 4.28906 15.9065 7.5C15.4614 8.72545 14.754 9.79018 13.8705 10.644L14.6178 11.3973C15.654 10.3895 16.4777 9.12723 16.9726 7.67411C17.0091 7.56027 17.0091 7.43973 16.9726 7.32924C15.7072 3.58594 12.2996 1.07143 8.5 1.07143Z" fill="white"/>
<path d="M10.6123 7.35603L11.5722 8.32366C11.6419 8.05915 11.6918 7.78795 11.6918 7.50335C11.6918 5.73214 10.2603 4.28906 8.50332 4.28906C8.22101 4.28906 7.94867 4.33929 7.68961 4.4096L8.64946 5.37723C9.69898 5.4442 10.5393 6.29129 10.6123 7.35603Z" fill="white"/>
<path d="M1.06032 0.756696L3.21583 2.92969C1.78768 4.01786 0.641838 5.50781 0.0274006 7.32589C-0.00913353 7.43973 -0.00913353 7.56027 0.0274006 7.67076C1.29281 11.4141 4.70045 13.9286 8.5 13.9286C10.0809 13.9286 11.5722 13.4598 12.8874 12.6797L15.1891 15L15.9397 14.2433L1.81093 0L1.06032 0.756696ZM8.5 12.8571C5.21193 12.8571 2.2593 10.7109 1.09353 7.5C1.66812 5.91629 2.70104 4.62723 3.97309 3.69308L5.90608 5.64174C5.53409 6.16741 5.31157 6.80692 5.31157 7.5C5.31157 9.2712 6.74304 10.7143 8.5 10.7143C9.18751 10.7143 9.82187 10.49 10.3433 10.115L12.1102 11.8962C11.0142 12.4955 9.78866 12.8571 8.5 12.8571ZM6.67661 6.41853L9.57277 9.33817C9.25725 9.52567 8.89191 9.64286 8.5 9.64286C7.32759 9.64286 6.37438 8.68192 6.37438 7.5C6.37438 7.10491 6.4873 6.73661 6.67661 6.41853Z" fill="white"/>
</svg>
