<svg width="16" height="12" viewBox="0 0 16 12" fill="none" xmlns="http://www.w3.org/2000/svg">
<path d="M8.00001 0C4.42426 0 1.22012 2.34623 0.0267382 5.83848C-0.00891274 5.94346 -0.00891274 6.05675 0.0267382 6.16172C1.22012 9.65398 4.42426 12.0002 8.00001 12.0002C11.5758 12.0002 14.7799 9.65398 15.9733 6.16172C16.0089 6.05675 16.0089 5.94346 15.9733 5.83848C14.7799 2.34623 11.5757 0 8.00001 0V0ZM8.00001 11.0002C4.90721 11.0002 2.12736 8.99772 1.03016 6.0001C2.12736 3.00249 4.90718 1.00003 8.00001 1.00003C11.0928 1.00003 13.8727 3.00249 14.9699 6.0001C13.8727 8.99772 11.0928 11.0002 8.00001 11.0002V11.0002Z" fill="white"/>
<path d="M8.00005 3C6.34574 3 5 4.34574 5 6.00005C5 7.65437 6.34574 9.00011 8.00005 9.00011C9.65437 9.00011 11.0001 7.6544 11.0001 6.00005C11.0001 4.34571 9.65437 3 8.00005 3ZM8.00005 8.00008C6.89699 8.00008 6.00003 7.10309 6.00003 6.00005C6.00003 4.89699 6.89702 4.00003 8.00005 4.00003C9.10311 4.00003 10.0001 4.89702 10.0001 6.00005C10.0001 7.10309 9.10308 8.00008 8.00005 8.00008Z" fill="white"/>
</svg>
