<svg width="9" height="10" viewBox="0 0 9 10" fill="none" xmlns="http://www.w3.org/2000/svg">
<path d="M3.67558 4.50828L0.171161 1.00375C-0.0569011 0.775794 -0.0569011 0.407222 0.171161 0.179267C0.399116 -0.048688 0.767688 -0.048688 0.995643 0.179267L4.50017 3.6838L8.00459 0.179267C8.23266 -0.048688 8.60112 -0.048688 8.82908 0.179267C9.05714 0.407222 9.05714 0.775794 8.82908 1.00375L5.32465 4.50828L8.82908 8.01281C9.05714 8.24076 9.05714 8.60933 8.82908 8.83729C8.71547 8.951 8.5661 9.00812 8.41683 9.00812C8.26757 9.00812 8.1183 8.951 8.00459 8.83729L4.50017 5.33276L0.995643 8.83729C0.881932 8.951 0.732667 9.00812 0.583402 9.00812C0.434137 9.00812 0.284871 8.951 0.171161 8.83729C-0.0569011 8.60933 -0.0569011 8.24076 0.171161 8.01281L3.67558 4.50828Z" fill="white"/>
</svg>
